{"glyphs":{"0":{"ha":701,"x_min":88,"x_max":614,"o":"m 351 939 q 614 461 614 939 q 351 -15 614 -15 q 154 103 221 -15 q 88 463 88 222 q 351 939 88 939 m 351 874 q 214 776 260 874 q 168 463 168 678 q 214 148 168 246 q 351 50 260 50 q 488 148 442 50 q 533 461 533 246 q 488 776 533 678 q 351 874 443 874 z "},"1":{"ha":518,"x_min":49,"x_max":365,"o":"m 365 924 l 365 0 l 288 0 l 288 838 l 85 697 l 49 753 l 299 924 l 365 924 z "},"2":{"ha":593,"x_min":33,"x_max":528,"o":"m 274 939 q 443 873 381 939 q 506 701 506 807 q 472 532 506 613 q 365 354 438 451 q 133 69 292 257 l 528 69 l 517 0 l 46 0 l 46 65 q 289 367 213 265 q 396 543 365 469 q 426 699 426 617 q 385 826 426 781 q 271 872 343 872 q 170 847 214 872 q 86 768 126 821 l 33 807 q 141 906 82 874 q 274 939 200 939 z "},"3":{"ha":610,"x_min":24,"x_max":532,"o":"m 276 939 q 446 874 383 939 q 508 708 508 808 q 462 563 508 618 q 336 492 415 508 q 478 425 424 483 q 532 261 532 367 q 499 118 532 181 q 406 20 467 56 q 267 -15 346 -15 q 132 14 190 -15 q 24 104 74 43 l 74 144 q 163 72 118 93 q 265 50 207 50 q 403 107 353 50 q 453 261 453 164 q 258 456 453 456 l 204 456 l 213 518 l 254 518 q 381 566 328 518 q 433 704 433 614 q 390 829 433 783 q 272 875 346 875 q 176 855 219 875 q 90 790 133 835 l 47 835 q 153 913 97 888 q 276 939 210 939 z "},"4":{"ha":650,"x_min":56,"x_max":607,"o":"m 607 308 l 607 243 l 496 243 l 496 0 l 421 0 l 421 243 l 56 243 l 56 303 l 308 939 l 375 914 l 136 308 l 421 308 l 429 581 l 496 581 l 496 308 l 607 308 z "},"5":{"ha":613,"x_min":42,"x_max":550,"o":"m 510 858 l 174 858 l 174 540 q 315 585 239 585 q 486 508 422 585 q 550 297 550 432 q 517 135 550 206 q 422 24 483 64 q 279 -15 361 -15 q 149 13 206 -15 q 42 96 92 42 l 92 140 q 176 73 132 94 q 279 51 221 51 q 418 117 367 51 q 469 299 469 183 q 423 467 469 413 q 297 521 376 521 q 226 510 257 521 q 158 476 196 500 l 99 476 l 99 924 l 522 924 l 510 858 z "},"6":{"ha":667,"x_min":88,"x_max":600,"o":"m 378 601 q 538 527 475 601 q 600 311 600 453 q 569 135 600 208 q 482 23 538 61 q 354 -15 426 -15 q 151 100 215 -15 q 88 415 88 215 q 124 697 88 579 q 229 877 161 815 q 390 939 297 939 q 547 885 475 939 l 513 832 q 389 874 456 874 q 229 764 288 874 q 165 467 171 654 q 378 601 249 601 m 354 50 q 479 119 436 50 q 522 308 522 188 q 481 482 522 426 q 367 538 439 538 q 253 497 306 538 q 165 383 201 456 q 213 134 168 218 q 354 50 258 50 z "},"7":{"ha":549,"x_min":38,"x_max":504,"o":"m 504 924 l 504 863 l 178 -11 l 107 13 l 425 857 l 38 857 l 38 924 l 504 924 z "},"8":{"ha":676,"x_min":67,"x_max":610,"o":"m 421 489 q 565 388 519 446 q 610 240 610 331 q 535 53 610 122 q 336 -15 460 -15 q 140 54 213 -15 q 67 238 67 124 q 250 496 67 419 q 138 583 172 533 q 103 708 103 632 q 135 833 103 781 q 222 913 168 886 q 339 939 275 939 q 456 913 401 939 q 542 836 510 888 q 575 710 575 785 q 538 585 575 636 q 421 489 501 533 m 179 707 q 212 602 179 640 q 331 528 244 564 l 369 511 q 468 598 438 553 q 499 707 499 643 q 456 834 499 790 q 339 878 413 878 q 223 835 267 878 q 179 707 179 792 m 338 50 q 478 98 426 50 q 531 239 531 146 q 491 367 531 322 q 349 453 451 411 l 306 471 q 184 378 222 433 q 146 238 146 322 q 197 98 146 146 q 338 50 249 50 z "},"9":{"ha":653,"x_min":65,"x_max":575,"o":"m 319 939 q 512 843 449 939 q 575 565 575 747 q 528 274 575 388 q 392 92 482 160 q 153 -26 301 24 l 133 33 q 395 192 306 92 q 494 468 485 292 q 294 346 418 346 q 177 381 229 346 q 95 481 125 415 q 65 636 65 547 q 98 800 65 732 q 188 903 131 868 q 319 939 246 939 m 307 410 q 412 446 365 410 q 497 551 458 482 q 455 798 496 721 q 322 875 414 875 q 191 814 238 875 q 144 635 144 753 q 188 468 144 526 q 307 410 232 410 z "},"\r":{"ha":346,"x_min":0,"x_max":0,"o":""}," ":{"ha":346,"x_min":0,"x_max":0,"o":""},"A":{"ha":717,"x_min":24,"x_max":693,"o":"m 610 0 l 535 261 l 178 261 l 103 0 l 24 0 l 308 951 l 408 951 l 693 0 l 610 0 m 197 329 l 515 329 l 357 885 l 197 329 z "},"Á":{"ha":717,"x_min":24,"x_max":693,"o":"m 610 0 l 535 261 l 178 261 l 103 0 l 24 0 l 308 951 l 408 951 l 693 0 l 610 0 m 197 329 l 515 329 l 357 885 l 197 329 m 460 1229 l 494 1160 l 246 1053 l 224 1099 l 460 1229 z "},"Ă":{"ha":717,"x_min":24,"x_max":693,"o":"m 610 0 l 535 261 l 178 261 l 103 0 l 24 0 l 308 951 l 408 951 l 693 0 l 610 0 m 197 329 l 515 329 l 357 885 l 197 329 m 358 1063 q 248 1101 293 1063 q 194 1200 203 1139 l 246 1213 q 286 1149 257 1172 q 358 1126 315 1126 q 431 1149 401 1126 q 472 1213 461 1172 l 524 1200 q 470 1101 515 1139 q 358 1063 425 1063 z "},"Ắ":{"ha":717,"x_min":24,"x_max":693,"o":"m 610 0 l 535 261 l 178 261 l 103 0 l 24 0 l 308 951 l 408 951 l 693 0 l 610 0 m 197 329 l 515 329 l 357 885 l 197 329 m 358 1025 q 248 1063 293 1025 q 194 1163 203 1101 l 246 1175 q 286 1112 257 1135 q 358 1089 315 1089 q 431 1112 401 1089 q 472 1175 461 1135 l 524 1163 q 470 1063 515 1101 q 358 1025 425 1025 m 465 1410 l 519 1364 l 364 1194 l 328 1226 l 465 1410 z "},"Ặ":{"ha":717,"x_min":24,"x_max":693,"o":"m 610 0 l 535 261 l 178 261 l 103 0 l 24 0 l 308 951 l 408 951 l 693 0 l 610 0 m 197 329 l 515 329 l 357 885 l 197 329 m 358 1063 q 248 1101 293 1063 q 194 1200 203 1139 l 246 1213 q 286 1149 257 1172 q 358 1126 315 1126 q 431 1149 401 1126 q 472 1213 461 1172 l 524 1200 q 470 1101 515 1139 q 358 1063 425 1063 m 360 -235 q 319 -218 335 -235 q 303 -178 303 -201 q 319 -137 303 -153 q 360 -121 335 -121 q 401 -137 385 -121 q 417 -178 417 -153 q 401 -218 417 -201 q 360 -235 385 -235 z "},"Ằ":{"ha":717,"x_min":24,"x_max":693,"o":"m 610 0 l 535 261 l 178 261 l 103 0 l 24 0 l 308 951 l 408 951 l 693 0 l 610 0 m 197 329 l 515 329 l 357 885 l 197 329 m 357 1025 q 247 1063 292 1025 q 193 1163 201 1101 l 244 1175 q 285 1112 256 1135 q 357 1089 314 1089 q 430 1112 400 1089 q 471 1175 460 1135 l 522 1163 q 469 1063 514 1101 q 357 1025 424 1025 m 263 1410 l 400 1226 l 364 1194 l 208 1364 l 263 1410 z "},"Ẳ":{"ha":717,"x_min":24,"x_max":693,"o":"m 610 0 l 535 261 l 178 261 l 103 0 l 24 0 l 308 951 l 408 951 l 693 0 l 610 0 m 197 329 l 515 329 l 357 885 l 197 329 m 358 1025 q 248 1063 293 1025 q 194 1163 203 1101 l 246 1175 q 286 1112 257 1135 q 358 1089 315 1089 q 431 1112 401 1089 q 472 1175 461 1135 l 524 1163 q 470 1063 515 1101 q 358 1025 425 1025 m 324 1265 q 389 1283 367 1268 q 411 1331 411 1297 q 395 1373 411 1358 q 351 1388 379 1388 q 281 1368 317 1388 l 260 1415 q 363 1444 304 1444 q 448 1415 417 1444 q 479 1335 479 1385 q 455 1263 479 1289 q 386 1229 431 1236 l 386 1165 l 324 1165 l 324 1265 z "},"Ẵ":{"ha":717,"x_min":24,"x_max":693,"o":"m 610 0 l 535 261 l 178 261 l 103 0 l 24 0 l 308 951 l 408 951 l 693 0 l 610 0 m 197 329 l 515 329 l 357 885 l 197 329 m 360 1025 q 249 1063 294 1025 q 196 1163 204 1101 l 247 1175 q 288 1112 258 1135 q 360 1089 317 1089 q 433 1112 403 1089 q 474 1175 463 1135 l 525 1163 q 472 1063 517 1101 q 360 1025 426 1025 m 436 1239 q 394 1248 413 1239 q 347 1274 375 1257 q 289 1300 310 1300 q 252 1288 268 1300 q 218 1246 236 1275 l 172 1269 q 288 1361 218 1361 q 328 1352 308 1361 q 369 1328 347 1343 q 406 1306 393 1313 q 435 1300 419 1300 q 470 1314 454 1300 q 506 1360 486 1328 l 551 1336 q 436 1239 508 1239 z "},"Ǎ":{"ha":717,"x_min":24,"x_max":693,"o":"m 610 0 l 535 261 l 178 261 l 103 0 l 24 0 l 308 951 l 408 951 l 693 0 l 610 0 m 197 329 l 515 329 l 357 885 l 197 329 m 513 1231 l 544 1193 l 383 1050 l 335 1050 l 172 1193 l 206 1231 l 360 1118 l 513 1231 z "},"Â":{"ha":717,"x_min":24,"x_max":693,"o":"m 610 0 l 535 261 l 178 261 l 103 0 l 24 0 l 308 951 l 408 951 l 693 0 l 610 0 m 197 329 l 515 329 l 357 885 l 197 329 m 207 1060 l 172 1097 l 335 1239 l 383 1239 l 544 1097 l 511 1060 l 358 1171 l 207 1060 z "},"Ấ":{"ha":717,"x_min":24,"x_max":693,"o":"m 610 0 l 535 261 l 178 261 l 103 0 l 24 0 l 308 951 l 408 951 l 693 0 l 610 0 m 197 329 l 515 329 l 357 885 l 197 329 m 208 1013 l 174 1050 l 336 1192 l 385 1192 l 546 1050 l 513 1013 l 360 1124 l 208 1013 m 607 1371 l 661 1325 l 506 1156 l 469 1188 l 607 1371 z "},"Ậ":{"ha":717,"x_min":24,"x_max":693,"o":"m 610 0 l 535 261 l 178 261 l 103 0 l 24 0 l 308 951 l 408 951 l 693 0 l 610 0 m 197 329 l 515 329 l 357 885 l 197 329 m 207 1060 l 172 1097 l 335 1239 l 383 1239 l 544 1097 l 511 1060 l 358 1171 l 207 1060 m 360 -235 q 319 -218 335 -235 q 303 -178 303 -201 q 319 -137 303 -153 q 360 -121 335 -121 q 401 -137 385 -121 q 417 -178 417 -153 q 401 -218 417 -201 q 360 -235 385 -235 z "},"Ầ":{"ha":717,"x_min":24,"x_max":693,"o":"m 610 0 l 535 261 l 178 261 l 103 0 l 24 0 l 308 951 l 408 951 l 693 0 l 610 0 m 197 329 l 515 329 l 357 885 l 197 329 m 207 1013 l 172 1050 l 335 1192 l 383 1192 l 544 1050 l 511 1013 l 358 1124 l 207 1013 m 117 1371 l 254 1188 l 218 1156 l 63 1325 l 117 1371 z "},"Ẩ":{"ha":717,"x_min":24,"x_max":693,"o":"m 610 0 l 535 261 l 178 261 l 103 0 l 24 0 l 308 951 l 408 951 l 693 0 l 610 0 m 197 329 l 515 329 l 357 885 l 197 329 m 207 1013 l 172 1050 l 335 1192 l 383 1192 l 544 1050 l 511 1013 l 358 1124 l 207 1013 m 488 1229 q 553 1247 531 1232 q 575 1294 575 1261 q 559 1337 575 1322 q 515 1351 543 1351 q 444 1332 481 1351 l 424 1379 q 526 1408 468 1408 q 612 1378 581 1408 q 643 1299 643 1349 q 619 1226 643 1253 q 550 1193 594 1200 l 550 1129 l 488 1129 l 488 1229 z "},"Ẫ":{"ha":717,"x_min":24,"x_max":693,"o":"m 610 0 l 535 261 l 178 261 l 103 0 l 24 0 l 308 951 l 408 951 l 693 0 l 610 0 m 197 329 l 515 329 l 357 885 l 197 329 m 206 1013 l 171 1050 l 333 1192 l 382 1192 l 543 1050 l 510 1013 l 357 1124 l 206 1013 m 432 1247 q 390 1256 408 1247 q 343 1282 371 1265 q 285 1308 306 1308 q 248 1296 264 1308 q 214 1254 232 1283 l 168 1278 q 283 1369 214 1369 q 324 1360 304 1369 q 365 1336 343 1351 q 402 1315 389 1321 q 431 1308 415 1308 q 466 1322 450 1308 q 501 1368 482 1336 l 547 1344 q 432 1247 504 1247 z "},"Ȁ":{"ha":717,"x_min":24,"x_max":693,"o":"m 610 0 l 535 261 l 178 261 l 103 0 l 24 0 l 308 951 l 408 951 l 693 0 l 610 0 m 197 329 l 515 329 l 357 885 l 197 329 m 208 1299 l 307 1089 l 260 1068 l 142 1264 l 208 1299 m 372 1299 l 461 1096 l 413 1074 l 306 1264 l 372 1299 z "},"Ä":{"ha":717,"x_min":24,"x_max":693,"o":"m 610 0 l 535 261 l 178 261 l 103 0 l 24 0 l 308 951 l 408 951 l 693 0 l 610 0 m 197 329 l 515 329 l 357 885 l 197 329 m 244 1203 q 283 1188 268 1203 q 297 1150 297 1172 q 283 1111 297 1126 q 244 1096 268 1096 q 207 1111 222 1096 q 192 1150 192 1126 q 207 1188 192 1172 q 244 1203 222 1203 m 483 1203 q 521 1188 506 1203 q 536 1150 536 1172 q 521 1111 536 1126 q 483 1096 506 1096 q 444 1111 460 1096 q 429 1150 429 1126 q 444 1188 429 1172 q 483 1203 460 1203 z "},"Ǟ":{"ha":717,"x_min":24,"x_max":693,"o":"m 610 0 l 535 261 l 178 261 l 103 0 l 24 0 l 308 951 l 408 951 l 693 0 l 610 0 m 197 329 l 515 329 l 357 885 l 197 329 m 240 1139 q 278 1124 264 1139 q 293 1086 293 1108 q 278 1047 293 1063 q 240 1032 264 1032 q 203 1047 218 1032 q 188 1086 188 1063 q 203 1124 188 1108 q 240 1139 218 1139 m 479 1139 q 517 1124 501 1139 q 532 1086 532 1108 q 517 1047 532 1063 q 479 1032 501 1032 q 440 1047 456 1032 q 425 1086 425 1063 q 440 1124 425 1108 q 479 1139 456 1139 m 514 1219 l 210 1219 l 210 1281 l 514 1281 l 514 1219 z "},"Ȧ":{"ha":717,"x_min":24,"x_max":693,"o":"m 610 0 l 535 261 l 178 261 l 103 0 l 24 0 l 308 951 l 408 951 l 693 0 l 610 0 m 197 329 l 515 329 l 357 885 l 197 329 m 360 1219 q 401 1203 385 1219 q 417 1163 417 1186 q 401 1122 417 1138 q 360 1106 385 1106 q 319 1122 335 1106 q 303 1163 303 1138 q 319 1203 303 1186 q 360 1219 335 1219 z "},"Ạ":{"ha":717,"x_min":24,"x_max":693,"o":"m 610 0 l 535 261 l 178 261 l 103 0 l 24 0 l 308 951 l 408 951 l 693 0 l 610 0 m 197 329 l 515 329 l 357 885 l 197 329 m 360 -235 q 319 -218 335 -235 q 303 -178 303 -201 q 319 -137 303 -153 q 360 -121 335 -121 q 401 -137 385 -121 q 417 -178 417 -153 q 401 -218 417 -201 q 360 -235 385 -235 z "},"Ǡ":{"ha":717,"x_min":24,"x_max":693,"o":"m 610 0 l 535 261 l 178 261 l 103 0 l 24 0 l 308 951 l 408 951 l 693 0 l 610 0 m 197 329 l 515 329 l 357 885 l 197 329 m 361 1146 q 402 1129 386 1146 q 418 1089 418 1113 q 402 1048 418 1064 q 361 1032 386 1032 q 320 1048 336 1032 q 304 1089 304 1064 q 320 1129 304 1113 q 361 1146 336 1146 m 514 1219 l 210 1219 l 210 1281 l 514 1281 l 514 1219 z "},"À":{"ha":717,"x_min":24,"x_max":693,"o":"m 610 0 l 535 261 l 178 261 l 103 0 l 24 0 l 308 951 l 408 951 l 693 0 l 610 0 m 197 329 l 515 329 l 357 885 l 197 329 m 256 1229 l 490 1097 l 468 1053 l 219 1160 l 256 1229 z "},"Ả":{"ha":717,"x_min":24,"x_max":693,"o":"m 610 0 l 535 261 l 178 261 l 103 0 l 24 0 l 308 951 l 408 951 l 693 0 l 610 0 m 197 329 l 515 329 l 357 885 l 197 329 m 328 1176 q 393 1194 371 1179 q 415 1242 415 1208 q 399 1284 415 1269 q 356 1299 383 1299 q 285 1279 321 1299 l 264 1326 q 367 1356 308 1356 q 452 1326 421 1356 q 483 1246 483 1296 q 459 1174 483 1200 q 390 1140 435 1147 l 390 1076 l 328 1076 l 328 1176 z "},"Ȃ":{"ha":717,"x_min":24,"x_max":693,"o":"m 610 0 l 535 261 l 178 261 l 103 0 l 24 0 l 308 951 l 408 951 l 693 0 l 610 0 m 197 329 l 515 329 l 357 885 l 197 329 m 358 1256 q 470 1215 425 1256 q 524 1103 515 1174 l 472 1092 q 358 1192 447 1192 q 246 1092 271 1192 l 194 1103 q 247 1215 203 1174 q 358 1256 292 1256 z "},"Ɑ":{"ha":847,"x_min":82,"x_max":764,"o":"m 706 151 q 719 88 706 108 q 764 51 732 67 l 739 -11 q 662 30 688 4 q 628 99 636 56 q 410 -15 546 -15 q 242 36 315 -15 q 125 194 168 88 q 82 457 82 300 q 125 737 82 622 q 244 909 168 851 q 415 967 319 967 q 628 865 546 967 l 635 951 l 706 951 l 706 151 m 415 54 q 625 174 540 54 l 625 788 q 424 897 549 897 q 236 790 306 897 q 167 457 167 682 q 235 152 167 250 q 415 54 303 54 z "},"Ā":{"ha":717,"x_min":24,"x_max":693,"o":"m 610 0 l 535 261 l 178 261 l 103 0 l 24 0 l 308 951 l 408 951 l 693 0 l 610 0 m 197 329 l 515 329 l 357 885 l 197 329 m 513 1115 l 208 1115 l 208 1176 l 513 1176 l 513 1115 z "},"Ą":{"ha":717,"x_min":24,"x_max":693,"o":"m 669 0 q 552 -78 586 -42 q 518 -165 518 -115 q 596 -237 518 -237 q 668 -228 629 -237 l 661 -292 q 588 -301 618 -301 q 484 -267 521 -301 q 447 -175 447 -232 q 486 -70 447 -115 q 606 13 525 -25 l 535 261 l 178 261 l 103 0 l 24 0 l 308 951 l 408 951 l 693 0 l 669 0 m 197 329 l 515 329 l 357 885 l 197 329 z "},"Å":{"ha":717,"x_min":24,"x_max":693,"o":"m 610 0 l 535 261 l 178 261 l 103 0 l 24 0 l 308 951 l 408 951 l 693 0 l 610 0 m 197 329 l 515 329 l 357 885 l 197 329 m 360 1314 q 451 1278 417 1314 q 486 1185 486 1243 q 451 1090 486 1125 q 360 1054 417 1054 q 269 1090 304 1054 q 235 1185 235 1125 q 269 1278 235 1243 q 360 1314 304 1314 m 360 1267 q 292 1185 292 1267 q 360 1101 292 1101 q 411 1122 393 1101 q 429 1185 429 1143 q 360 1267 429 1267 z "},"Ǻ":{"ha":717,"x_min":24,"x_max":693,"o":"m 610 0 l 535 261 l 178 261 l 103 0 l 24 0 l 308 951 l 408 951 l 693 0 l 610 0 m 197 329 l 515 329 l 357 885 l 197 329 m 363 1269 q 454 1234 419 1269 q 489 1140 489 1199 q 454 1045 489 1081 q 363 1010 419 1010 q 272 1045 307 1010 q 238 1140 238 1081 q 272 1234 238 1199 q 363 1269 307 1269 m 363 1222 q 294 1140 294 1222 q 363 1057 294 1057 q 414 1078 396 1057 q 432 1140 432 1099 q 363 1222 432 1222 m 464 1463 l 499 1393 l 250 1286 l 228 1332 l 464 1463 z "},"Ⱥ":{"ha":717,"x_min":24,"x_max":693,"o":"m 611 0 l 536 261 l 347 261 l 263 -97 l 219 -87 l 303 261 l 178 261 l 103 0 l 24 0 l 308 951 l 408 951 l 440 843 l 486 1033 l 529 1024 l 467 758 l 693 0 l 611 0 m 196 328 l 318 328 l 408 710 l 357 892 l 196 328 m 364 328 l 518 328 l 433 622 l 364 328 z "},"Ã":{"ha":717,"x_min":24,"x_max":693,"o":"m 610 0 l 535 261 l 178 261 l 103 0 l 24 0 l 308 951 l 408 951 l 693 0 l 610 0 m 197 329 l 515 329 l 357 885 l 197 329 m 433 1103 q 391 1112 410 1103 q 344 1138 372 1121 q 286 1164 307 1164 q 249 1151 265 1164 q 215 1110 233 1139 l 169 1133 q 285 1225 215 1225 q 326 1216 307 1225 q 367 1192 344 1207 q 403 1170 390 1176 q 432 1164 417 1164 q 467 1178 451 1164 q 503 1224 483 1192 l 549 1200 q 433 1103 506 1103 z "},"Æ":{"ha":982,"x_min":-1,"x_max":926,"o":"m 640 68 l 926 68 l 926 0 l 576 0 l 519 257 l 167 257 l 79 0 l -1 0 l 333 951 l 867 951 l 857 883 l 456 883 l 536 526 l 857 526 l 857 460 l 551 460 l 640 68 m 189 324 l 506 324 l 381 888 l 189 324 z "},"Ǽ":{"ha":982,"x_min":-1,"x_max":926,"o":"m 640 68 l 926 68 l 926 0 l 576 0 l 519 257 l 167 257 l 79 0 l -1 0 l 333 951 l 867 951 l 857 883 l 456 883 l 536 526 l 857 526 l 857 460 l 551 460 l 640 68 m 189 324 l 506 324 l 381 888 l 189 324 m 672 1229 l 707 1160 l 458 1053 l 436 1099 l 672 1229 z "},"Ǣ":{"ha":982,"x_min":-1,"x_max":926,"o":"m 640 68 l 926 68 l 926 0 l 576 0 l 519 257 l 167 257 l 79 0 l -1 0 l 333 951 l 867 951 l 857 883 l 456 883 l 536 526 l 857 526 l 857 460 l 551 460 l 640 68 m 189 324 l 506 324 l 381 888 l 189 324 m 725 1115 l 421 1115 l 421 1176 l 725 1176 l 725 1115 z "},"B":{"ha":749,"x_min":136,"x_max":683,"o":"m 474 504 q 626 435 569 492 q 683 264 683 378 q 600 67 683 133 q 367 0 517 0 l 136 0 l 136 951 l 325 951 q 560 890 478 951 q 643 714 643 829 q 598 574 643 628 q 474 504 553 521 m 217 885 l 217 533 l 371 533 q 510 580 460 533 q 561 708 561 626 q 503 842 561 800 q 333 885 446 885 l 217 885 m 368 68 q 600 264 600 68 q 542 418 600 368 q 379 468 485 468 l 217 468 l 217 68 l 368 68 z "},"Ḃ":{"ha":749,"x_min":136,"x_max":683,"o":"m 474 504 q 626 435 569 492 q 683 264 683 378 q 600 67 683 133 q 367 0 517 0 l 136 0 l 136 951 l 325 951 q 560 890 478 951 q 643 714 643 829 q 598 574 643 628 q 474 504 553 521 m 217 885 l 217 533 l 371 533 q 510 580 460 533 q 561 708 561 626 q 503 842 561 800 q 333 885 446 885 l 217 885 m 368 68 q 600 264 600 68 q 542 418 600 368 q 379 468 485 468 l 217 468 l 217 68 l 368 68 m 369 1219 q 410 1203 394 1219 q 426 1163 426 1186 q 410 1122 426 1138 q 369 1106 394 1106 q 328 1122 344 1106 q 313 1163 313 1138 q 328 1203 313 1186 q 369 1219 344 1219 z "},"Ḅ":{"ha":749,"x_min":136,"x_max":683,"o":"m 474 504 q 626 435 569 492 q 683 264 683 378 q 600 67 683 133 q 367 0 517 0 l 136 0 l 136 951 l 325 951 q 560 890 478 951 q 643 714 643 829 q 598 574 643 628 q 474 504 553 521 m 217 885 l 217 533 l 371 533 q 510 580 460 533 q 561 708 561 626 q 503 842 561 800 q 333 885 446 885 l 217 885 m 368 68 q 600 264 600 68 q 542 418 600 368 q 379 468 485 468 l 217 468 l 217 68 l 368 68 m 389 -235 q 348 -218 364 -235 q 332 -178 332 -201 q 348 -137 332 -153 q 389 -121 364 -121 q 430 -137 414 -121 q 446 -178 446 -153 q 430 -218 446 -201 q 389 -235 414 -235 z "},"Ꞵ":{"ha":749,"x_min":136,"x_max":683,"o":"m 474 504 q 626 436 569 492 q 683 271 683 381 q 604 70 683 140 q 393 0 525 0 q 217 32 299 0 l 217 -274 l 136 -274 l 136 951 l 325 951 q 560 890 478 951 q 643 714 643 829 q 598 574 643 628 q 474 504 553 521 m 392 68 q 544 118 488 68 q 600 271 600 168 q 542 420 600 372 q 379 468 485 468 l 311 468 l 319 533 l 374 533 q 511 580 461 533 q 561 708 561 626 q 503 842 561 800 q 333 885 446 885 l 217 885 l 217 96 q 392 68 296 68 z "},"Ɓ":{"ha":828,"x_min":19,"x_max":763,"o":"m 553 504 q 706 435 649 492 q 763 264 763 378 q 679 67 763 133 q 446 0 596 0 l 215 0 l 215 885 l 183 885 q 92 797 92 885 q 121 692 92 747 l 65 663 q 31 727 43 696 q 19 800 19 758 q 62 910 19 868 q 186 951 104 951 l 404 951 q 640 890 557 951 q 722 714 722 829 q 677 574 722 628 q 553 504 632 521 m 296 885 l 296 533 l 450 533 q 590 580 539 533 q 640 708 640 626 q 583 842 640 800 q 413 885 525 885 l 296 885 m 447 68 q 679 264 679 68 q 622 418 679 368 q 458 468 564 468 l 296 468 l 296 68 l 447 68 z "},"Ƀ":{"ha":754,"x_min":29,"x_max":689,"o":"m 479 504 q 632 435 575 492 q 689 264 689 378 q 606 67 689 133 q 372 0 522 0 l 142 0 l 142 243 l 29 243 l 29 307 l 142 307 l 142 951 l 331 951 q 566 890 483 951 q 649 714 649 829 q 603 574 649 628 q 479 504 558 521 m 222 885 l 222 533 l 376 533 q 516 580 465 533 q 567 708 567 626 q 509 842 567 800 q 339 885 451 885 l 222 885 m 374 68 q 606 264 606 68 q 548 418 606 368 q 385 468 490 468 l 222 468 l 222 307 l 438 307 l 438 243 l 222 243 l 222 68 l 374 68 z "},"Ƃ":{"ha":715,"x_min":136,"x_max":660,"o":"m 347 579 q 578 508 497 579 q 660 299 660 438 q 576 73 660 146 q 342 0 492 0 l 136 0 l 136 951 l 574 951 l 563 882 l 217 882 l 217 579 l 347 579 m 351 68 q 517 122 460 68 q 575 299 575 175 q 517 461 575 410 q 349 513 460 513 l 217 513 l 217 68 l 351 68 z "},"C":{"ha":690,"x_min":82,"x_max":663,"o":"m 431 967 q 552 945 501 967 q 653 879 603 924 l 610 828 q 526 881 565 864 q 435 897 486 897 q 240 797 314 897 q 167 476 167 696 q 240 160 167 264 q 433 56 314 56 q 533 76 492 56 q 618 133 574 96 l 663 82 q 431 -15 565 -15 q 250 40 329 -15 q 126 205 171 94 q 82 476 82 315 q 128 748 82 638 q 253 913 174 858 q 431 967 332 967 z "},"Ć":{"ha":690,"x_min":82,"x_max":663,"o":"m 431 967 q 552 945 501 967 q 653 879 603 924 l 610 828 q 526 881 565 864 q 435 897 486 897 q 240 797 314 897 q 167 476 167 696 q 240 160 167 264 q 433 56 314 56 q 533 76 492 56 q 618 133 574 96 l 663 82 q 431 -15 565 -15 q 250 40 329 -15 q 126 205 171 94 q 82 476 82 315 q 128 748 82 638 q 253 913 174 858 q 431 967 332 967 m 532 1229 l 567 1160 l 318 1053 l 296 1099 l 532 1229 z "},"Č":{"ha":690,"x_min":82,"x_max":663,"o":"m 431 967 q 552 945 501 967 q 653 879 603 924 l 610 828 q 526 881 565 864 q 435 897 486 897 q 240 797 314 897 q 167 476 167 696 q 240 160 167 264 q 433 56 314 56 q 533 76 492 56 q 618 133 574 96 l 663 82 q 431 -15 565 -15 q 250 40 329 -15 q 126 205 171 94 q 82 476 82 315 q 128 748 82 638 q 253 913 174 858 q 431 967 332 967 m 585 1231 l 617 1193 l 456 1050 l 407 1050 l 244 1193 l 278 1231 l 432 1118 l 585 1231 z "},"Ç":{"ha":690,"x_min":82,"x_max":663,"o":"m 451 -90 q 539 -124 510 -96 q 568 -196 568 -151 q 530 -283 568 -251 q 433 -314 492 -314 q 332 -285 374 -314 l 358 -239 q 432 -258 394 -258 q 481 -242 463 -258 q 500 -196 500 -226 q 473 -149 500 -164 q 388 -133 446 -133 l 399 -14 q 169 124 256 -1 q 82 476 82 250 q 128 748 82 638 q 253 913 174 858 q 431 967 332 967 q 552 945 501 967 q 653 879 603 924 l 610 828 q 526 881 565 864 q 435 897 486 897 q 240 797 314 897 q 167 476 167 696 q 240 160 167 264 q 433 56 314 56 q 533 76 492 56 q 618 133 574 96 l 663 82 q 451 -15 572 -8 l 451 -90 z "},"Ĉ":{"ha":690,"x_min":82,"x_max":663,"o":"m 431 967 q 552 945 501 967 q 653 879 603 924 l 610 828 q 526 881 565 864 q 435 897 486 897 q 240 797 314 897 q 167 476 167 696 q 240 160 167 264 q 433 56 314 56 q 533 76 492 56 q 618 133 574 96 l 663 82 q 431 -15 565 -15 q 250 40 329 -15 q 126 205 171 94 q 82 476 82 315 q 128 748 82 638 q 253 913 174 858 q 431 967 332 967 m 279 1060 l 244 1097 l 407 1239 l 456 1239 l 617 1097 l 583 1060 l 431 1171 l 279 1060 z "},"Ċ":{"ha":690,"x_min":82,"x_max":663,"o":"m 431 967 q 552 945 501 967 q 653 879 603 924 l 610 828 q 526 881 565 864 q 435 897 486 897 q 240 797 314 897 q 167 476 167 696 q 240 160 167 264 q 433 56 314 56 q 533 76 492 56 q 618 133 574 96 l 663 82 q 431 -15 565 -15 q 250 40 329 -15 q 126 205 171 94 q 82 476 82 315 q 128 748 82 638 q 253 913 174 858 q 431 967 332 967 m 432 1219 q 473 1203 457 1219 q 489 1163 489 1186 q 473 1122 489 1138 q 432 1106 457 1106 q 391 1122 407 1106 q 375 1163 375 1138 q 391 1203 375 1186 q 432 1219 407 1219 z "},"Ꭓ":{"ha":636,"x_min":13,"x_max":625,"o":"m 364 440 l 625 -158 l 533 -158 l 314 386 l 99 -158 l 13 -158 l 267 438 l 38 951 l 128 951 l 317 489 l 503 951 l 590 951 l 364 440 z "},"Ƈ":{"ha":690,"x_min":82,"x_max":864,"o":"m 733 1144 q 864 1097 806 1144 l 831 1047 q 787 1071 808 1063 q 738 1079 765 1079 q 653 972 653 1079 l 653 879 l 613 833 q 526 882 567 867 q 435 897 486 897 q 240 797 314 897 q 167 476 167 696 q 240 160 167 264 q 433 56 314 56 q 533 76 492 56 q 618 133 574 96 l 663 82 q 431 -15 568 -15 q 250 40 329 -15 q 126 205 171 94 q 82 476 82 315 q 128 748 82 638 q 252 913 174 858 q 429 967 331 967 q 576 926 514 967 l 576 969 q 618 1099 576 1054 q 733 1144 660 1144 z "},"Ȼ":{"ha":690,"x_min":82,"x_max":663,"o":"m 663 82 q 431 -15 565 -15 q 319 3 369 -15 l 296 -97 l 253 -87 l 279 22 q 134 188 186 72 q 82 476 82 303 q 128 748 82 638 q 253 913 174 858 q 431 967 332 967 q 501 960 464 967 l 518 1033 l 563 1024 l 544 949 q 653 879 600 928 l 610 828 q 528 879 568 863 l 338 75 q 433 56 383 56 q 533 76 492 56 q 618 133 574 96 l 663 82 m 167 476 q 201 238 167 332 q 297 99 235 144 l 485 893 q 435 897 463 897 q 240 797 314 897 q 167 476 167 696 z "},"D":{"ha":793,"x_min":136,"x_max":711,"o":"m 310 951 q 601 851 490 951 q 711 483 711 751 q 599 107 711 214 q 324 0 488 0 l 136 0 l 136 951 l 310 951 m 217 883 l 217 67 l 328 67 q 543 157 460 67 q 626 483 626 247 q 583 737 626 649 q 474 854 540 825 q 321 883 408 883 l 217 883 z "},"Ǳ":{"ha":1403,"x_min":136,"x_max":1346,"o":"m 310 951 q 601 851 490 951 q 711 483 711 751 q 599 107 711 214 q 324 0 488 0 l 136 0 l 136 951 l 310 951 m 217 883 l 217 67 l 328 67 q 543 157 460 67 q 626 483 626 247 q 583 737 626 649 q 474 854 540 825 q 321 883 408 883 l 217 883 m 1346 951 l 1346 885 l 889 71 l 1339 71 l 1329 0 l 801 0 l 801 67 l 1260 882 l 847 882 l 847 951 l 1346 951 z "},"Ǆ":{"ha":1403,"x_min":136,"x_max":1346,"o":"m 310 951 q 601 851 490 951 q 711 483 711 751 q 599 107 711 214 q 324 0 488 0 l 136 0 l 136 951 l 310 951 m 217 883 l 217 67 l 328 67 q 543 157 460 67 q 626 483 626 247 q 583 737 626 649 q 474 854 540 825 q 321 883 408 883 l 217 883 m 1346 951 l 1346 885 l 889 71 l 1339 71 l 1329 0 l 801 0 l 801 67 l 1260 882 l 847 882 l 847 951 l 1346 951 m 1240 1231 l 1272 1193 l 1111 1050 l 1063 1050 l 900 1193 l 933 1231 l 1088 1118 l 1240 1231 z "},"Ɖ":{"ha":800,"x_min":29,"x_max":719,"o":"m 318 951 q 609 851 499 951 q 719 483 719 751 q 608 107 719 214 q 332 0 496 0 l 144 0 l 144 457 l 29 457 l 29 522 l 144 522 l 144 951 l 318 951 m 336 67 q 551 157 468 67 q 635 483 635 247 q 592 737 635 649 q 483 854 549 825 q 329 883 417 883 l 225 883 l 225 522 l 438 522 l 438 457 l 225 457 l 225 67 l 336 67 z "},"Ð":{"ha":800,"x_min":29,"x_max":719,"o":"m 318 951 q 609 851 499 951 q 719 483 719 751 q 608 107 719 214 q 332 0 496 0 l 144 0 l 144 457 l 29 457 l 29 522 l 144 522 l 144 951 l 318 951 m 336 67 q 551 157 468 67 q 635 483 635 247 q 592 737 635 649 q 483 854 549 825 q 329 883 417 883 l 225 883 l 225 522 l 438 522 l 438 457 l 225 457 l 225 67 l 336 67 z "},"Ď":{"ha":793,"x_min":136,"x_max":711,"o":"m 310 951 q 601 851 490 951 q 711 483 711 751 q 599 107 711 214 q 324 0 488 0 l 136 0 l 136 951 l 310 951 m 217 883 l 217 67 l 328 67 q 543 157 460 67 q 626 483 626 247 q 583 737 626 649 q 474 854 540 825 q 321 883 408 883 l 217 883 m 528 1231 l 560 1193 l 399 1050 l 350 1050 l 188 1193 l 221 1231 l 375 1118 l 528 1231 z "},"Ḓ":{"ha":793,"x_min":136,"x_max":711,"o":"m 310 951 q 601 851 490 951 q 711 483 711 751 q 599 107 711 214 q 324 0 488 0 l 136 0 l 136 951 l 310 951 m 217 883 l 217 67 l 328 67 q 543 157 460 67 q 626 483 626 247 q 583 737 626 649 q 474 854 540 825 q 321 883 408 883 l 217 883 m 225 -282 l 190 -246 l 353 -97 l 400 -97 l 563 -246 l 529 -282 l 376 -165 l 225 -282 z "},"Đ":{"ha":800,"x_min":29,"x_max":719,"o":"m 318 951 q 609 851 499 951 q 719 483 719 751 q 608 107 719 214 q 332 0 496 0 l 144 0 l 144 457 l 29 457 l 29 522 l 144 522 l 144 951 l 318 951 m 336 67 q 551 157 468 67 q 635 483 635 247 q 592 737 635 649 q 483 854 549 825 q 329 883 417 883 l 225 883 l 225 522 l 438 522 l 438 457 l 225 457 l 225 67 l 336 67 z "},"Ḋ":{"ha":793,"x_min":136,"x_max":711,"o":"m 310 951 q 601 851 490 951 q 711 483 711 751 q 599 107 711 214 q 324 0 488 0 l 136 0 l 136 951 l 310 951 m 217 883 l 217 67 l 328 67 q 543 157 460 67 q 626 483 626 247 q 583 737 626 649 q 474 854 540 825 q 321 883 408 883 l 217 883 m 375 1219 q 416 1203 400 1219 q 432 1163 432 1186 q 416 1122 432 1138 q 375 1106 400 1106 q 334 1122 350 1106 q 318 1163 318 1138 q 334 1203 318 1186 q 375 1219 350 1219 z "},"Ḍ":{"ha":793,"x_min":136,"x_max":711,"o":"m 310 951 q 601 851 490 951 q 711 483 711 751 q 599 107 711 214 q 324 0 488 0 l 136 0 l 136 951 l 310 951 m 217 883 l 217 67 l 328 67 q 543 157 460 67 q 626 483 626 247 q 583 737 626 649 q 474 854 540 825 q 321 883 408 883 l 217 883 m 376 -235 q 335 -218 351 -235 q 319 -178 319 -201 q 335 -137 319 -153 q 376 -121 351 -121 q 417 -137 401 -121 q 433 -178 433 -153 q 417 -218 433 -201 q 376 -235 401 -235 z "},"Ɗ":{"ha":872,"x_min":19,"x_max":790,"o":"m 389 951 q 680 851 569 951 q 790 483 790 751 q 678 107 790 214 q 403 0 567 0 l 215 0 l 215 885 l 183 885 q 92 797 92 885 q 121 692 92 747 l 65 663 q 31 727 43 696 q 19 800 19 758 q 62 910 19 868 q 186 951 104 951 l 389 951 m 407 67 q 622 157 539 67 q 706 483 706 247 q 663 737 706 649 q 553 854 619 825 q 400 883 488 883 l 296 883 l 296 67 l 407 67 z "},"Ḏ":{"ha":793,"x_min":136,"x_max":711,"o":"m 310 951 q 601 851 490 951 q 711 483 711 751 q 599 107 711 214 q 324 0 488 0 l 136 0 l 136 951 l 310 951 m 217 883 l 217 67 l 328 67 q 543 157 460 67 q 626 483 626 247 q 583 737 626 649 q 474 854 540 825 q 321 883 408 883 l 217 883 m 529 -218 l 225 -218 l 225 -157 l 529 -157 l 529 -218 z "},"Ƌ":{"ha":715,"x_min":56,"x_max":579,"o":"m 579 0 l 368 0 q 139 70 222 0 q 56 286 56 140 q 140 503 56 428 q 378 579 224 579 l 499 579 l 499 882 l 146 882 l 146 951 l 579 951 l 579 0 m 499 68 l 499 513 l 378 513 q 199 457 258 513 q 140 286 140 401 q 199 118 140 168 q 371 68 257 68 l 499 68 z "},"ǲ":{"ha":1308,"x_min":136,"x_max":1267,"o":"m 310 951 q 601 851 490 951 q 711 483 711 751 q 599 107 711 214 q 324 0 488 0 l 136 0 l 136 951 l 310 951 m 217 883 l 217 67 l 328 67 q 543 157 460 67 q 626 483 626 247 q 583 737 626 649 q 474 854 540 825 q 321 883 408 883 l 217 883 m 1267 726 l 1267 665 l 900 68 l 1265 68 l 1257 0 l 813 0 l 813 60 l 1181 658 l 843 658 l 843 726 l 1267 726 z "},"ǅ":{"ha":1308,"x_min":136,"x_max":1267,"o":"m 310 951 q 601 851 490 951 q 711 483 711 751 q 599 107 711 214 q 324 0 488 0 l 136 0 l 136 951 l 310 951 m 217 883 l 217 67 l 328 67 q 543 157 460 67 q 626 483 626 247 q 583 737 626 649 q 474 854 540 825 q 321 883 408 883 l 217 883 m 1267 726 l 1267 665 l 900 68 l 1265 68 l 1257 0 l 813 0 l 813 60 l 1181 658 l 843 658 l 843 726 l 1267 726 m 1203 1065 l 1236 1028 l 1075 879 l 1026 879 l 864 1028 l 899 1065 l 1051 947 l 1203 1065 z "},"E":{"ha":640,"x_min":136,"x_max":583,"o":"m 575 951 l 565 883 l 217 883 l 217 526 l 519 526 l 519 460 l 217 460 l 217 68 l 583 68 l 583 0 l 136 0 l 136 951 l 575 951 z "},"É":{"ha":640,"x_min":136,"x_max":583,"o":"m 575 951 l 565 883 l 217 883 l 217 526 l 519 526 l 519 460 l 217 460 l 217 68 l 583 68 l 583 0 l 136 0 l 136 951 l 575 951 m 461 1229 l 496 1160 l 247 1053 l 225 1099 l 461 1229 z "},"Ĕ":{"ha":640,"x_min":136,"x_max":583,"o":"m 575 951 l 565 883 l 217 883 l 217 526 l 519 526 l 519 460 l 217 460 l 217 68 l 583 68 l 583 0 l 136 0 l 136 951 l 575 951 m 360 1063 q 249 1101 294 1063 q 196 1200 204 1139 l 247 1213 q 288 1149 258 1172 q 360 1126 317 1126 q 433 1149 403 1126 q 474 1213 463 1172 l 525 1200 q 472 1101 517 1139 q 360 1063 426 1063 z "},"Ě":{"ha":640,"x_min":136,"x_max":583,"o":"m 575 951 l 565 883 l 217 883 l 217 526 l 519 526 l 519 460 l 217 460 l 217 68 l 583 68 l 583 0 l 136 0 l 136 951 l 575 951 m 514 1231 l 546 1193 l 385 1050 l 336 1050 l 174 1193 l 207 1231 l 361 1118 l 514 1231 z "},"Ȩ":{"ha":640,"x_min":136,"x_max":583,"o":"m 379 0 l 379 -90 q 467 -124 438 -96 q 496 -196 496 -151 q 458 -283 496 -251 q 361 -314 419 -314 q 260 -285 301 -314 l 286 -239 q 360 -258 322 -258 q 409 -242 390 -258 q 428 -196 428 -226 q 401 -149 428 -164 q 315 -133 374 -133 l 328 0 l 136 0 l 136 951 l 575 951 l 565 883 l 217 883 l 217 526 l 519 526 l 519 460 l 217 460 l 217 68 l 583 68 l 583 0 l 379 0 z "},"Ê":{"ha":640,"x_min":136,"x_max":583,"o":"m 575 951 l 565 883 l 217 883 l 217 526 l 519 526 l 519 460 l 217 460 l 217 68 l 583 68 l 583 0 l 136 0 l 136 951 l 575 951 m 208 1060 l 174 1097 l 336 1239 l 385 1239 l 546 1097 l 513 1060 l 360 1171 l 208 1060 z "},"Ế":{"ha":640,"x_min":136,"x_max":663,"o":"m 575 951 l 565 883 l 217 883 l 217 526 l 519 526 l 519 460 l 217 460 l 217 68 l 583 68 l 583 0 l 136 0 l 136 951 l 575 951 m 210 1013 l 175 1050 l 338 1192 l 386 1192 l 547 1050 l 514 1013 l 361 1124 l 210 1013 m 608 1371 l 663 1325 l 507 1156 l 471 1188 l 608 1371 z "},"Ệ":{"ha":640,"x_min":136,"x_max":583,"o":"m 575 951 l 565 883 l 217 883 l 217 526 l 519 526 l 519 460 l 217 460 l 217 68 l 583 68 l 583 0 l 136 0 l 136 951 l 575 951 m 208 1060 l 174 1097 l 336 1239 l 385 1239 l 546 1097 l 513 1060 l 360 1171 l 208 1060 m 358 -235 q 317 -218 333 -235 q 301 -178 301 -201 q 317 -137 301 -153 q 358 -121 333 -121 q 399 -137 383 -121 q 415 -178 415 -153 q 399 -218 415 -201 q 358 -235 383 -235 z "},"Ề":{"ha":640,"x_min":64,"x_max":583,"o":"m 575 951 l 565 883 l 217 883 l 217 526 l 519 526 l 519 460 l 217 460 l 217 68 l 583 68 l 583 0 l 136 0 l 136 951 l 575 951 m 208 1013 l 174 1050 l 336 1192 l 385 1192 l 546 1050 l 513 1013 l 360 1124 l 208 1013 m 118 1371 l 256 1188 l 219 1156 l 64 1325 l 118 1371 z "},"Ể":{"ha":640,"x_min":136,"x_max":644,"o":"m 575 951 l 565 883 l 217 883 l 217 526 l 519 526 l 519 460 l 217 460 l 217 68 l 583 68 l 583 0 l 136 0 l 136 951 l 575 951 m 208 1013 l 174 1050 l 336 1192 l 385 1192 l 546 1050 l 513 1013 l 360 1124 l 208 1013 m 489 1229 q 554 1247 532 1232 q 576 1294 576 1261 q 560 1337 576 1322 q 517 1351 544 1351 q 446 1332 482 1351 l 425 1379 q 528 1408 469 1408 q 613 1378 582 1408 q 644 1299 644 1349 q 620 1226 644 1253 q 551 1193 596 1200 l 551 1129 l 489 1129 l 489 1229 z "},"Ễ":{"ha":640,"x_min":136,"x_max":583,"o":"m 575 951 l 565 883 l 217 883 l 217 526 l 519 526 l 519 460 l 217 460 l 217 68 l 583 68 l 583 0 l 136 0 l 136 951 l 575 951 m 207 1013 l 172 1050 l 335 1192 l 383 1192 l 544 1050 l 511 1013 l 358 1124 l 207 1013 m 433 1247 q 391 1256 410 1247 q 344 1282 372 1265 q 286 1308 307 1308 q 249 1296 265 1308 q 215 1254 233 1283 l 169 1278 q 285 1369 215 1369 q 325 1360 306 1369 q 367 1336 344 1351 q 403 1315 390 1321 q 432 1308 417 1308 q 467 1322 451 1308 q 503 1368 483 1336 l 549 1344 q 433 1247 506 1247 z "},"Ȅ":{"ha":640,"x_min":136,"x_max":583,"o":"m 575 951 l 565 883 l 217 883 l 217 526 l 519 526 l 519 460 l 217 460 l 217 68 l 583 68 l 583 0 l 136 0 l 136 951 l 575 951 m 210 1299 l 308 1089 l 261 1068 l 143 1264 l 210 1299 m 374 1299 l 463 1096 l 414 1074 l 307 1264 l 374 1299 z "},"Ë":{"ha":640,"x_min":136,"x_max":583,"o":"m 575 951 l 565 883 l 217 883 l 217 526 l 519 526 l 519 460 l 217 460 l 217 68 l 583 68 l 583 0 l 136 0 l 136 951 l 575 951 m 246 1203 q 284 1188 269 1203 q 299 1150 299 1172 q 284 1111 299 1126 q 246 1096 269 1096 q 208 1111 224 1096 q 193 1150 193 1126 q 208 1188 193 1172 q 246 1203 224 1203 m 485 1203 q 522 1188 507 1203 q 538 1150 538 1172 q 522 1111 538 1126 q 485 1096 507 1096 q 446 1111 461 1096 q 431 1150 431 1126 q 446 1188 431 1172 q 485 1203 461 1203 z "},"Ė":{"ha":640,"x_min":136,"x_max":583,"o":"m 575 951 l 565 883 l 217 883 l 217 526 l 519 526 l 519 460 l 217 460 l 217 68 l 583 68 l 583 0 l 136 0 l 136 951 l 575 951 m 361 1219 q 402 1203 386 1219 q 418 1163 418 1186 q 402 1122 418 1138 q 361 1106 386 1106 q 320 1122 336 1106 q 304 1163 304 1138 q 320 1203 304 1186 q 361 1219 336 1219 z "},"Ẹ":{"ha":640,"x_min":136,"x_max":583,"o":"m 575 951 l 565 883 l 217 883 l 217 526 l 519 526 l 519 460 l 217 460 l 217 68 l 583 68 l 583 0 l 136 0 l 136 951 l 575 951 m 358 -235 q 317 -218 333 -235 q 301 -178 301 -201 q 317 -137 301 -153 q 358 -121 333 -121 q 399 -137 383 -121 q 415 -178 415 -153 q 399 -218 415 -201 q 358 -235 383 -235 z "},"È":{"ha":640,"x_min":136,"x_max":583,"o":"m 575 951 l 565 883 l 217 883 l 217 526 l 519 526 l 519 460 l 217 460 l 217 68 l 583 68 l 583 0 l 136 0 l 136 951 l 575 951 m 257 1229 l 492 1097 l 469 1053 l 221 1160 l 257 1229 z "},"Ẻ":{"ha":640,"x_min":136,"x_max":583,"o":"m 575 951 l 565 883 l 217 883 l 217 526 l 519 526 l 519 460 l 217 460 l 217 68 l 583 68 l 583 0 l 136 0 l 136 951 l 575 951 m 329 1176 q 394 1194 372 1179 q 417 1242 417 1208 q 401 1284 417 1269 q 357 1299 385 1299 q 286 1279 322 1299 l 265 1326 q 368 1356 310 1356 q 453 1326 422 1356 q 485 1246 485 1296 q 460 1174 485 1200 q 392 1140 436 1147 l 392 1076 l 329 1076 l 329 1176 z "},"Ȇ":{"ha":640,"x_min":136,"x_max":583,"o":"m 575 951 l 565 883 l 217 883 l 217 526 l 519 526 l 519 460 l 217 460 l 217 68 l 583 68 l 583 0 l 136 0 l 136 951 l 575 951 m 360 1256 q 472 1215 426 1256 q 525 1103 517 1174 l 474 1092 q 360 1192 449 1192 q 247 1092 272 1192 l 196 1103 q 249 1215 204 1174 q 360 1256 293 1256 z "},"Ē":{"ha":640,"x_min":136,"x_max":583,"o":"m 575 951 l 565 883 l 217 883 l 217 526 l 519 526 l 519 460 l 217 460 l 217 68 l 583 68 l 583 0 l 136 0 l 136 951 l 575 951 m 514 1115 l 210 1115 l 210 1176 l 514 1176 l 514 1115 z "},"Ę":{"ha":640,"x_min":136,"x_max":583,"o":"m 583 68 l 583 0 l 544 0 q 427 -78 461 -42 q 393 -165 393 -115 q 471 -237 393 -237 q 543 -228 504 -237 l 536 -292 q 463 -301 493 -301 q 359 -267 396 -301 q 322 -175 322 -232 q 355 -77 322 -119 q 454 0 388 -35 l 136 0 l 136 951 l 575 951 l 565 883 l 217 883 l 217 526 l 519 526 l 519 460 l 217 460 l 217 68 l 583 68 z "},"Ɛ":{"ha":651,"x_min":65,"x_max":626,"o":"m 344 967 q 601 850 489 967 l 557 803 q 350 897 460 897 q 222 850 268 897 q 175 726 175 803 q 226 591 175 639 q 364 543 278 543 l 440 543 l 429 475 l 361 475 q 204 424 258 476 q 150 272 150 371 q 207 113 150 169 q 360 56 264 56 q 478 82 426 56 q 576 158 531 108 l 626 114 q 358 -15 517 -15 q 207 19 274 -15 q 103 119 140 54 q 65 272 65 183 q 120 442 65 381 q 258 514 175 503 q 137 586 182 532 q 92 729 92 640 q 160 901 92 835 q 344 967 228 967 z "},"Ǝ":{"ha":640,"x_min":57,"x_max":503,"o":"m 65 951 l 503 951 l 503 0 l 57 0 l 57 68 l 422 68 l 422 460 l 121 460 l 121 526 l 422 526 l 422 883 l 65 883 l 65 951 z "},"Ʃ":{"ha":618,"x_min":56,"x_max":563,"o":"m 563 951 l 563 882 l 151 882 l 418 494 l 418 449 l 150 69 l 563 69 l 563 0 l 56 0 l 56 58 l 344 471 l 56 893 l 56 951 l 563 951 z "},"Ɇ":{"ha":640,"x_min":136,"x_max":583,"o":"m 583 68 l 583 0 l 281 0 l 257 -97 l 214 -87 l 235 0 l 136 0 l 136 951 l 461 951 l 481 1033 l 522 1024 l 506 951 l 575 951 l 565 883 l 489 883 l 404 526 l 519 526 l 519 460 l 389 460 l 296 68 l 583 68 m 217 883 l 217 526 l 360 526 l 444 883 l 217 883 m 217 68 l 251 68 l 344 460 l 217 460 l 217 68 z "},"Ẽ":{"ha":640,"x_min":136,"x_max":583,"o":"m 575 951 l 565 883 l 217 883 l 217 526 l 519 526 l 519 460 l 217 460 l 217 68 l 583 68 l 583 0 l 136 0 l 136 951 l 575 951 m 435 1103 q 392 1112 411 1103 q 346 1138 374 1121 q 288 1164 308 1164 q 251 1151 267 1164 q 217 1110 235 1139 l 171 1133 q 286 1225 217 1225 q 327 1216 308 1225 q 368 1192 346 1207 q 405 1170 392 1176 q 433 1164 418 1164 q 469 1178 453 1164 q 504 1224 485 1192 l 550 1200 q 435 1103 507 1103 z "},"Ʒ":{"ha":617,"x_min":18,"x_max":560,"o":"m 272 535 q 488 466 415 535 q 560 263 560 397 q 484 62 560 139 q 278 -15 408 -15 q 130 15 193 -15 q 18 104 67 44 l 67 147 q 160 76 111 97 q 275 54 208 54 q 425 110 374 54 q 476 264 476 167 q 423 423 476 374 q 263 472 369 472 l 158 472 l 158 533 l 438 883 l 47 883 l 47 951 l 529 951 l 529 886 l 243 535 l 272 535 z "},"Ǯ":{"ha":617,"x_min":18,"x_max":560,"o":"m 272 535 q 488 466 415 535 q 560 263 560 397 q 484 62 560 139 q 278 -15 408 -15 q 130 15 193 -15 q 18 104 67 44 l 67 147 q 160 76 111 97 q 275 54 208 54 q 425 110 374 54 q 476 264 476 167 q 423 423 476 374 q 263 472 369 472 l 158 472 l 158 533 l 438 883 l 47 883 l 47 951 l 529 951 l 529 886 l 243 535 l 272 535 m 442 1231 l 474 1193 l 313 1050 l 264 1050 l 101 1193 l 135 1231 l 289 1118 l 442 1231 z "},"Ƹ":{"ha":617,"x_min":57,"x_max":599,"o":"m 599 104 q 484 14 547 43 q 333 -15 421 -15 q 131 59 206 -15 q 57 257 57 133 q 131 463 57 390 q 346 535 204 535 l 374 535 l 88 886 l 88 951 l 569 951 l 569 883 l 181 883 l 458 533 l 458 472 l 356 472 q 140 257 140 472 q 190 108 140 161 q 335 54 240 54 q 453 76 404 54 q 550 147 501 97 l 599 104 z "},"F":{"ha":601,"x_min":136,"x_max":568,"o":"m 136 0 l 136 951 l 568 951 l 558 883 l 217 883 l 217 510 l 513 510 l 513 443 l 217 443 l 217 0 l 136 0 z "},"Ḟ":{"ha":601,"x_min":136,"x_max":568,"o":"m 136 0 l 136 951 l 568 951 l 558 883 l 217 883 l 217 510 l 513 510 l 513 443 l 217 443 l 217 0 l 136 0 m 365 1219 q 406 1203 390 1219 q 422 1163 422 1186 q 406 1122 422 1138 q 365 1106 390 1106 q 324 1122 340 1106 q 308 1163 308 1138 q 324 1203 308 1186 q 365 1219 340 1219 z "},"Ƒ":{"ha":601,"x_min":-74,"x_max":568,"o":"m 217 883 l 217 510 l 513 510 l 513 443 l 217 443 l 217 -112 q 173 -240 217 -196 q 58 -285 129 -285 q -74 -237 -15 -285 l -39 -186 q 4 -210 -17 -201 q 54 -218 25 -218 q 114 -194 92 -218 q 136 -115 136 -169 l 136 951 l 568 951 l 558 883 l 217 883 z "},"G":{"ha":776,"x_min":82,"x_max":693,"o":"m 443 967 q 569 944 515 967 q 679 872 624 921 l 632 824 q 543 880 586 863 q 443 897 500 897 q 307 856 369 897 q 206 722 244 815 q 167 479 167 628 q 439 54 167 54 q 615 103 535 54 l 615 444 l 450 444 l 440 513 l 693 513 l 693 63 q 439 -15 574 -15 q 176 108 271 -15 q 82 479 82 232 q 132 750 82 640 q 264 913 182 860 q 443 967 346 967 z "},"Ǵ":{"ha":776,"x_min":82,"x_max":693,"o":"m 443 967 q 569 944 515 967 q 679 872 624 921 l 632 824 q 543 880 586 863 q 443 897 500 897 q 307 856 369 897 q 206 722 244 815 q 167 479 167 628 q 439 54 167 54 q 615 103 535 54 l 615 444 l 450 444 l 440 513 l 693 513 l 693 63 q 439 -15 574 -15 q 176 108 271 -15 q 82 479 82 232 q 132 750 82 640 q 264 913 182 860 q 443 967 346 967 m 540 1229 l 575 1160 l 326 1053 l 304 1099 l 540 1229 z "},"Ɣ":{"ha":693,"x_min":24,"x_max":669,"o":"m 394 82 q 453 -62 436 -12 q 469 -164 469 -112 q 438 -252 469 -219 q 347 -285 406 -285 q 257 -253 289 -285 q 225 -164 225 -221 q 241 -70 225 -118 q 300 82 257 -22 l 24 951 l 107 951 l 347 140 l 589 951 l 669 951 l 394 82 m 396 -158 q 385 -86 396 -124 q 347 28 375 -49 q 310 -83 321 -43 q 299 -158 299 -122 q 347 -219 299 -219 q 396 -158 396 -219 z "},"Ğ":{"ha":776,"x_min":82,"x_max":693,"o":"m 443 967 q 569 944 515 967 q 679 872 624 921 l 632 824 q 543 880 586 863 q 443 897 500 897 q 307 856 369 897 q 206 722 244 815 q 167 479 167 628 q 439 54 167 54 q 615 103 535 54 l 615 444 l 450 444 l 440 513 l 693 513 l 693 63 q 439 -15 574 -15 q 176 108 271 -15 q 82 479 82 232 q 132 750 82 640 q 264 913 182 860 q 443 967 346 967 m 439 1063 q 328 1101 374 1063 q 275 1200 283 1139 l 326 1213 q 367 1149 338 1172 q 439 1126 396 1126 q 512 1149 482 1126 q 553 1213 542 1172 l 604 1200 q 551 1101 596 1139 q 439 1063 506 1063 z "},"Ǧ":{"ha":776,"x_min":82,"x_max":693,"o":"m 443 967 q 569 944 515 967 q 679 872 624 921 l 632 824 q 543 880 586 863 q 443 897 500 897 q 307 856 369 897 q 206 722 244 815 q 167 479 167 628 q 439 54 167 54 q 615 103 535 54 l 615 444 l 450 444 l 440 513 l 693 513 l 693 63 q 439 -15 574 -15 q 176 108 271 -15 q 82 479 82 232 q 132 750 82 640 q 264 913 182 860 q 443 967 346 967 m 593 1231 l 625 1193 l 464 1050 l 415 1050 l 253 1193 l 286 1231 l 440 1118 l 593 1231 z "},"Ĝ":{"ha":776,"x_min":82,"x_max":693,"o":"m 443 967 q 569 944 515 967 q 679 872 624 921 l 632 824 q 543 880 586 863 q 443 897 500 897 q 307 856 369 897 q 206 722 244 815 q 167 479 167 628 q 439 54 167 54 q 615 103 535 54 l 615 444 l 450 444 l 440 513 l 693 513 l 693 63 q 439 -15 574 -15 q 176 108 271 -15 q 82 479 82 232 q 132 750 82 640 q 264 913 182 860 q 443 967 346 967 m 288 1060 l 253 1097 l 415 1239 l 464 1239 l 625 1097 l 592 1060 l 439 1171 l 288 1060 z "},"Ģ":{"ha":776,"x_min":82,"x_max":693,"o":"m 443 967 q 569 944 515 967 q 679 872 624 921 l 632 824 q 543 880 586 863 q 443 897 500 897 q 307 856 369 897 q 206 722 244 815 q 167 479 167 628 q 439 54 167 54 q 615 103 535 54 l 615 444 l 450 444 l 440 513 l 693 513 l 693 63 q 439 -15 574 -15 q 176 108 271 -15 q 82 479 82 232 q 132 750 82 640 q 264 913 182 860 q 443 967 346 967 m 425 -118 q 466 -135 450 -118 q 482 -176 482 -151 q 476 -209 482 -192 q 454 -267 471 -226 l 403 -386 l 357 -386 l 399 -228 q 367 -176 367 -210 q 383 -135 367 -151 q 425 -118 399 -118 z "},"Ġ":{"ha":776,"x_min":82,"x_max":693,"o":"m 443 967 q 569 944 515 967 q 679 872 624 921 l 632 824 q 543 880 586 863 q 443 897 500 897 q 307 856 369 897 q 206 722 244 815 q 167 479 167 628 q 439 54 167 54 q 615 103 535 54 l 615 444 l 450 444 l 440 513 l 693 513 l 693 63 q 439 -15 574 -15 q 176 108 271 -15 q 82 479 82 232 q 132 750 82 640 q 264 913 182 860 q 443 967 346 967 m 440 1219 q 481 1203 465 1219 q 497 1163 497 1186 q 481 1122 497 1138 q 440 1106 465 1106 q 399 1122 415 1106 q 383 1163 383 1138 q 399 1203 383 1186 q 440 1219 415 1219 z "},"Ɠ":{"ha":717,"x_min":82,"x_max":890,"o":"m 760 1144 q 890 1097 832 1144 l 857 1047 q 813 1071 835 1063 q 764 1079 792 1079 q 679 972 679 1079 l 679 872 l 638 828 q 544 881 590 864 q 442 897 497 897 q 306 856 368 897 q 206 722 244 815 q 167 479 167 628 q 439 54 167 54 q 615 103 535 54 l 615 444 l 450 444 l 440 513 l 693 513 l 693 63 q 438 -15 575 -15 q 176 108 271 -15 q 82 479 82 232 q 132 750 82 640 q 263 913 182 860 q 438 967 343 967 q 603 922 531 967 l 603 969 q 644 1099 603 1054 q 760 1144 686 1144 z "},"Ɂ":{"ha":575,"x_min":15,"x_max":538,"o":"m 193 422 l 282 447 q 411 524 368 472 q 454 681 454 576 q 406 838 454 779 q 269 897 357 897 q 161 874 211 897 q 61 803 111 850 l 15 850 q 136 938 75 910 q 274 967 197 967 q 414 931 354 967 q 506 830 474 894 q 538 683 538 765 q 478 486 538 550 q 317 393 419 422 l 274 381 l 274 0 l 193 0 l 193 422 z "},"Ǥ":{"ha":793,"x_min":82,"x_max":785,"o":"m 785 268 l 693 268 l 693 63 q 438 -15 574 -15 q 176 109 271 -15 q 82 479 82 233 q 132 749 82 639 q 264 913 182 858 q 440 967 346 967 q 570 944 515 967 q 679 872 625 921 l 632 822 q 543 880 586 863 q 443 897 500 897 q 307 856 369 897 q 206 720 244 814 q 167 479 167 626 q 238 158 167 261 q 438 54 308 54 q 615 103 535 54 l 615 268 l 451 268 l 451 335 l 615 335 l 615 444 l 450 444 l 440 513 l 693 513 l 693 335 l 785 335 l 785 268 z "},"Ȝ":{"ha":626,"x_min":25,"x_max":563,"o":"m 285 967 q 469 899 403 967 q 535 719 535 831 q 490 572 535 626 q 363 500 444 518 q 508 433 453 489 q 563 279 563 378 q 450 33 563 132 q 83 -124 338 -67 l 76 -54 q 315 29 226 -18 q 440 137 403 76 q 478 278 478 197 q 423 415 478 367 q 264 461 368 463 l 188 461 l 197 529 l 261 529 q 400 578 349 529 q 451 717 451 626 q 407 849 451 800 q 281 897 363 897 q 172 873 222 897 q 69 803 121 849 l 25 850 q 147 938 85 908 q 285 967 210 967 z "},"H":{"ha":838,"x_min":136,"x_max":701,"o":"m 621 0 l 621 467 l 217 467 l 217 0 l 136 0 l 136 951 l 217 951 l 217 535 l 621 535 l 621 951 l 701 951 l 701 0 l 621 0 z "},"Ħ":{"ha":842,"x_min":57,"x_max":785,"o":"m 785 774 l 785 714 l 704 714 l 704 0 l 624 0 l 624 467 l 219 467 l 219 0 l 139 0 l 139 714 l 57 714 l 57 774 l 139 774 l 139 951 l 219 951 l 219 774 l 624 774 l 624 951 l 704 951 l 704 774 l 785 774 m 624 535 l 624 714 l 219 714 l 219 535 l 624 535 z "},"Ȟ":{"ha":838,"x_min":136,"x_max":701,"o":"m 621 0 l 621 467 l 217 467 l 217 0 l 136 0 l 136 951 l 217 951 l 217 535 l 621 535 l 621 951 l 701 951 l 701 0 l 621 0 m 571 1231 l 603 1193 l 442 1050 l 393 1050 l 231 1193 l 264 1231 l 418 1118 l 571 1231 z "},"Ĥ":{"ha":838,"x_min":136,"x_max":701,"o":"m 621 0 l 621 467 l 217 467 l 217 0 l 136 0 l 136 951 l 217 951 l 217 535 l 621 535 l 621 951 l 701 951 l 701 0 l 621 0 m 265 1060 l 231 1097 l 393 1239 l 442 1239 l 603 1097 l 569 1060 l 417 1171 l 265 1060 z "},"Ḥ":{"ha":838,"x_min":136,"x_max":701,"o":"m 621 0 l 621 467 l 217 467 l 217 0 l 136 0 l 136 951 l 217 951 l 217 535 l 621 535 l 621 951 l 701 951 l 701 0 l 621 0 m 419 -235 q 378 -218 394 -235 q 363 -178 363 -201 q 378 -137 363 -153 q 419 -121 394 -121 q 460 -137 444 -121 q 476 -178 476 -153 q 460 -218 476 -201 q 419 -235 444 -235 z "},"Ɦ":{"ha":917,"x_min":19,"x_max":781,"o":"m 781 951 l 781 0 l 700 0 l 700 467 l 296 467 l 296 0 l 215 0 l 215 885 l 183 885 q 92 797 92 885 q 121 692 92 747 l 65 663 q 31 727 43 696 q 19 800 19 758 q 62 910 19 868 q 186 951 104 951 l 296 951 l 296 535 l 700 535 l 700 951 l 781 951 z "},"Ɥ":{"ha":744,"x_min":56,"x_max":607,"o":"m 607 951 l 607 0 l 526 0 l 526 411 q 423 335 476 361 q 300 310 369 310 q 123 378 190 310 q 56 567 56 446 l 56 951 l 136 951 l 136 571 q 183 428 136 476 q 315 381 231 381 q 435 408 381 381 q 526 483 489 436 l 526 951 l 607 951 z "},"Ƕ":{"ha":1207,"x_min":136,"x_max":1106,"o":"m 1072 726 q 1106 360 1106 518 q 1069 148 1106 232 q 971 24 1032 64 q 835 -15 910 -15 q 681 43 742 -15 q 621 206 621 101 l 621 467 l 217 467 l 217 0 l 136 0 l 136 951 l 217 951 l 217 535 l 621 535 l 621 951 l 701 951 l 701 211 q 738 90 701 131 q 838 50 775 50 q 972 123 918 50 q 1026 363 1026 196 q 993 726 1026 538 l 1072 726 z "},"I":{"ha":354,"x_min":136,"x_max":217,"o":"m 217 951 l 217 0 l 136 0 l 136 951 l 217 951 z "},"Ĳ":{"ha":718,"x_min":136,"x_max":589,"o":"m 217 951 l 217 0 l 136 0 l 136 951 l 217 951 m 589 126 q 569 -8 589 44 q 506 -97 549 -61 q 390 -164 464 -132 l 369 -106 q 457 -47 428 -76 q 497 22 486 -18 q 508 131 508 63 l 508 951 l 589 951 l 589 126 z "},"Í":{"ha":354,"x_min":40,"x_max":311,"o":"m 217 951 l 217 0 l 136 0 l 136 951 l 217 951 m 276 1229 l 311 1160 l 63 1053 l 40 1099 l 276 1229 z "},"Ĭ":{"ha":354,"x_min":11,"x_max":340,"o":"m 217 951 l 217 0 l 136 0 l 136 951 l 217 951 m 175 1063 q 65 1101 110 1063 q 11 1200 19 1139 l 63 1213 q 103 1149 74 1172 q 175 1126 132 1126 q 248 1149 218 1126 q 289 1213 278 1172 l 340 1200 q 287 1101 332 1139 q 175 1063 242 1063 z "},"Ǐ":{"ha":354,"x_min":-11,"x_max":361,"o":"m 217 951 l 217 0 l 136 0 l 136 951 l 217 951 m 329 1231 l 361 1193 l 200 1050 l 151 1050 l -11 1193 l 22 1231 l 176 1118 l 329 1231 z "},"Î":{"ha":354,"x_min":-11,"x_max":361,"o":"m 217 951 l 217 0 l 136 0 l 136 951 l 217 951 m 24 1060 l -11 1097 l 151 1239 l 200 1239 l 361 1097 l 328 1060 l 175 1171 l 24 1060 z "},"Ȉ":{"ha":354,"x_min":-42,"x_max":278,"o":"m 217 951 l 217 0 l 136 0 l 136 951 l 217 951 m 25 1299 l 124 1089 l 76 1068 l -42 1264 l 25 1299 m 189 1299 l 278 1096 l 229 1074 l 122 1264 l 189 1299 z "},"Ï":{"ha":354,"x_min":8,"x_max":353,"o":"m 217 951 l 217 0 l 136 0 l 136 951 l 217 951 m 61 1203 q 99 1188 85 1203 q 114 1150 114 1172 q 99 1111 114 1126 q 61 1096 85 1096 q 24 1111 39 1096 q 8 1150 8 1126 q 24 1188 8 1172 q 61 1203 39 1203 m 300 1203 q 338 1188 322 1203 q 353 1150 353 1172 q 338 1111 353 1126 q 300 1096 322 1096 q 261 1111 276 1096 q 246 1150 246 1126 q 261 1188 246 1172 q 300 1203 276 1203 z "},"Ḯ":{"ha":354,"x_min":4,"x_max":349,"o":"m 217 951 l 217 0 l 136 0 l 136 951 l 217 951 m 278 1344 l 332 1299 l 176 1129 l 140 1161 l 278 1344 m 57 1140 q 95 1125 81 1140 q 110 1086 110 1110 q 95 1049 110 1064 q 57 1033 81 1033 q 19 1049 35 1033 q 4 1086 4 1064 q 19 1125 4 1110 q 57 1140 35 1140 m 296 1140 q 333 1125 318 1140 q 349 1086 349 1110 q 333 1049 349 1064 q 296 1033 318 1033 q 257 1049 272 1033 q 242 1086 242 1064 q 257 1125 242 1110 q 296 1140 272 1140 z "},"İ":{"ha":354,"x_min":119,"x_max":233,"o":"m 217 951 l 217 0 l 136 0 l 136 951 l 217 951 m 176 1219 q 217 1203 201 1219 q 233 1163 233 1186 q 217 1122 233 1138 q 176 1106 201 1106 q 135 1122 151 1106 q 119 1163 119 1138 q 135 1203 119 1186 q 176 1219 151 1219 z "},"Ị":{"ha":354,"x_min":121,"x_max":235,"o":"m 217 951 l 217 0 l 136 0 l 136 951 l 217 951 m 178 -235 q 137 -218 153 -235 q 121 -178 121 -201 q 137 -137 121 -153 q 178 -121 153 -121 q 219 -137 203 -121 q 235 -178 235 -153 q 219 -218 235 -201 q 178 -235 203 -235 z "},"Ì":{"ha":354,"x_min":36,"x_max":307,"o":"m 217 951 l 217 0 l 136 0 l 136 951 l 217 951 m 72 1229 l 307 1097 l 285 1053 l 36 1160 l 72 1229 z "},"Ỉ":{"ha":354,"x_min":81,"x_max":300,"o":"m 217 951 l 217 0 l 136 0 l 136 951 l 217 951 m 144 1176 q 210 1194 188 1179 q 232 1242 232 1208 q 216 1284 232 1269 q 172 1299 200 1299 q 101 1279 138 1299 l 81 1326 q 183 1356 125 1356 q 269 1326 238 1356 q 300 1246 300 1296 q 276 1174 300 1200 q 207 1140 251 1147 l 207 1076 l 144 1076 l 144 1176 z "},"Ȋ":{"ha":354,"x_min":11,"x_max":340,"o":"m 217 951 l 217 0 l 136 0 l 136 951 l 217 951 m 175 1256 q 287 1215 242 1256 q 340 1103 332 1174 l 289 1092 q 175 1192 264 1192 q 63 1092 88 1192 l 11 1103 q 64 1215 19 1174 q 175 1256 108 1256 z "},"Ī":{"ha":354,"x_min":25,"x_max":329,"o":"m 217 951 l 217 0 l 136 0 l 136 951 l 217 951 m 329 1115 l 25 1115 l 25 1176 l 329 1176 l 329 1115 z "},"Į":{"ha":354,"x_min":-11,"x_max":217,"o":"m 217 951 l 217 0 l 211 0 q 94 -78 128 -42 q 60 -165 60 -115 q 138 -237 60 -237 q 210 -228 171 -237 l 203 -292 q 129 -301 160 -301 q 26 -267 63 -301 q -11 -175 -11 -232 q 25 -73 -11 -117 q 136 7 61 -29 l 136 951 l 217 951 z "},"Ɩ":{"ha":431,"x_min":122,"x_max":413,"o":"m 413 32 q 281 -15 354 -15 q 166 29 210 -15 q 122 157 122 74 l 122 951 l 203 951 l 203 154 q 225 76 203 100 q 285 51 247 51 q 335 60 314 51 q 378 83 356 68 l 413 32 z "},"Ɨ":{"ha":394,"x_min":31,"x_max":364,"o":"m 364 533 l 364 468 l 238 468 l 238 0 l 157 0 l 157 468 l 31 468 l 31 533 l 157 533 l 157 951 l 238 951 l 238 533 l 364 533 z "},"Ĩ":{"ha":354,"x_min":-14,"x_max":365,"o":"m 217 951 l 217 0 l 136 0 l 136 951 l 217 951 m 250 1103 q 208 1112 226 1103 q 161 1138 189 1121 q 103 1164 124 1164 q 66 1151 82 1164 q 32 1110 50 1139 l -14 1133 q 101 1225 32 1225 q 142 1216 124 1225 q 183 1192 161 1207 q 220 1170 207 1176 q 249 1164 233 1164 q 284 1178 268 1164 q 319 1224 300 1192 l 365 1200 q 250 1103 322 1103 z "},"J":{"ha":364,"x_min":15,"x_max":235,"o":"m 235 126 q 215 -8 235 44 q 152 -97 194 -61 q 36 -164 110 -132 l 15 -106 q 103 -47 74 -76 q 143 22 132 -18 q 154 131 154 63 l 154 951 l 235 951 l 235 126 z "},"Ĵ":{"ha":364,"x_min":6,"x_max":378,"o":"m 235 126 q 215 -8 235 44 q 152 -97 194 -61 q 36 -164 110 -132 l 15 -106 q 103 -47 74 -76 q 143 22 132 -18 q 154 131 154 63 l 154 951 l 235 951 l 235 126 m 40 1060 l 6 1097 l 168 1239 l 217 1239 l 378 1097 l 344 1060 l 192 1171 l 40 1060 z "},"Ʝ":{"ha":389,"x_min":-100,"x_max":385,"o":"m 361 -124 q 251 -81 313 -97 q 196 -232 246 -179 q 56 -285 146 -285 q -59 -248 -18 -285 q -100 -149 -100 -211 q -50 -42 -100 -81 q 86 -3 0 -3 q 172 -10 135 -3 l 172 951 l 253 951 l 253 -25 q 385 -78 324 -46 l 361 -124 m 56 -226 q 145 -187 118 -226 q 172 -65 172 -149 q 86 -57 140 -57 q -33 -146 -33 -57 q 56 -226 -33 -226 z "},"Ɉ":{"ha":385,"x_min":15,"x_max":360,"o":"m 360 443 l 235 443 l 235 126 q 215 -8 235 44 q 152 -97 194 -61 q 36 -164 110 -132 l 15 -106 q 103 -47 74 -76 q 143 22 132 -18 q 154 131 154 63 l 154 443 l 26 443 l 26 510 l 154 510 l 154 951 l 235 951 l 235 510 l 360 510 l 360 443 z "},"K":{"ha":694,"x_min":136,"x_max":690,"o":"m 217 951 l 217 0 l 136 0 l 136 951 l 217 951 m 668 951 l 314 514 l 690 0 l 594 0 l 222 510 l 578 951 l 668 951 z "},"Ǩ":{"ha":694,"x_min":136,"x_max":690,"o":"m 217 951 l 217 0 l 136 0 l 136 951 l 217 951 m 668 951 l 314 514 l 690 0 l 594 0 l 222 510 l 578 951 l 668 951 m 538 1231 l 569 1193 l 408 1050 l 360 1050 l 197 1193 l 231 1231 l 385 1118 l 538 1231 z "},"Ķ":{"ha":694,"x_min":136,"x_max":690,"o":"m 217 951 l 217 0 l 136 0 l 136 951 l 217 951 m 668 951 l 314 514 l 690 0 l 594 0 l 222 510 l 578 951 l 668 951 m 383 -118 q 424 -135 408 -118 q 440 -176 440 -151 q 435 -209 440 -192 q 413 -267 429 -226 l 361 -386 l 315 -386 l 357 -228 q 325 -176 325 -210 q 341 -135 325 -151 q 383 -118 357 -118 z "},"Ƙ":{"ha":731,"x_min":136,"x_max":726,"o":"m 222 510 l 444 857 q 519 941 482 915 q 608 967 556 967 q 672 953 644 967 q 726 915 700 939 l 693 868 q 655 893 672 885 q 613 901 638 901 q 560 885 582 901 q 507 822 538 869 l 313 514 l 690 0 l 594 0 l 222 510 m 217 951 l 217 0 l 136 0 l 136 951 l 217 951 z "},"L":{"ha":596,"x_min":136,"x_max":574,"o":"m 217 951 l 217 72 l 574 72 l 563 0 l 136 0 l 136 951 l 217 951 z "},"Ǉ":{"ha":936,"x_min":136,"x_max":807,"o":"m 217 951 l 217 72 l 574 72 l 563 0 l 136 0 l 136 951 l 217 951 m 807 126 q 787 -8 807 44 q 724 -97 767 -61 q 608 -164 682 -132 l 588 -106 q 675 -47 646 -76 q 715 22 704 -18 q 726 131 726 63 l 726 951 l 807 951 l 807 126 z "},"Ĺ":{"ha":596,"x_min":42,"x_max":574,"o":"m 217 951 l 217 72 l 574 72 l 563 0 l 136 0 l 136 951 l 217 951 m 278 1229 l 313 1160 l 64 1053 l 42 1099 l 278 1229 z "},"Ƚ":{"ha":615,"x_min":31,"x_max":593,"o":"m 236 72 l 593 72 l 582 0 l 156 0 l 156 471 l 31 471 l 31 538 l 156 538 l 156 951 l 236 951 l 236 538 l 364 538 l 364 471 l 236 471 l 236 72 z "},"Ɬ":{"ha":649,"x_min":22,"x_max":626,"o":"m 626 72 l 615 0 l 189 0 l 189 374 q 65 410 108 375 q 22 513 22 446 q 59 606 22 571 q 151 640 96 640 q 189 636 160 640 l 189 951 l 269 951 l 269 435 q 417 453 335 436 l 426 397 q 269 376 340 378 l 269 72 l 626 72 m 89 513 q 189 435 89 435 l 189 581 q 156 583 169 583 q 107 565 125 583 q 89 513 89 547 z "},"Ľ":{"ha":596,"x_min":136,"x_max":574,"o":"m 217 951 l 217 72 l 574 72 l 563 0 l 136 0 l 136 951 l 217 951 m 343 725 l 393 950 l 321 960 l 296 732 l 343 725 z "},"Ḽ":{"ha":596,"x_min":136,"x_max":574,"o":"m 217 951 l 217 72 l 574 72 l 563 0 l 136 0 l 136 951 l 217 951 m 201 -282 l 167 -246 l 329 -97 l 376 -97 l 539 -246 l 506 -282 l 353 -165 l 201 -282 z "},"Ļ":{"ha":596,"x_min":136,"x_max":574,"o":"m 217 951 l 217 72 l 574 72 l 563 0 l 136 0 l 136 951 l 217 951 m 351 -118 q 392 -135 376 -118 q 408 -176 408 -151 q 403 -209 408 -192 q 381 -267 397 -226 l 329 -386 l 283 -386 l 325 -228 q 293 -176 293 -210 q 309 -135 293 -151 q 351 -118 325 -118 z "},"Ŀ":{"ha":596,"x_min":136,"x_max":574,"o":"m 217 951 l 217 72 l 574 72 l 563 0 l 136 0 l 136 951 l 217 951 m 463 568 q 503 551 488 568 q 519 511 519 535 q 503 470 519 486 q 463 454 488 454 q 422 470 438 454 q 406 511 406 486 q 422 551 406 535 q 463 568 438 568 z "},"Ḷ":{"ha":596,"x_min":136,"x_max":574,"o":"m 217 951 l 217 72 l 574 72 l 563 0 l 136 0 l 136 951 l 217 951 m 353 -235 q 312 -218 328 -235 q 296 -178 296 -201 q 312 -137 296 -153 q 353 -121 328 -121 q 394 -137 378 -121 q 410 -178 410 -153 q 394 -218 410 -201 q 353 -235 378 -235 z "},"ǈ":{"ha":914,"x_min":136,"x_max":800,"o":"m 217 951 l 217 72 l 574 72 l 563 0 l 136 0 l 136 951 l 217 951 m 783 6 q 764 -131 783 -79 q 708 -216 744 -183 q 604 -282 671 -249 l 579 -226 q 653 -174 628 -200 q 692 -107 679 -149 q 706 4 706 -65 l 706 726 l 783 726 l 783 6 m 743 1044 q 784 1028 768 1044 q 800 988 800 1011 q 784 947 800 963 q 743 931 768 931 q 702 947 718 931 q 686 988 686 963 q 702 1028 686 1011 q 743 1044 718 1044 z "},"Ł":{"ha":611,"x_min":40,"x_max":589,"o":"m 232 72 l 589 72 l 578 0 l 151 0 l 151 390 l 72 336 l 40 389 l 151 465 l 151 951 l 232 951 l 232 521 l 456 674 l 486 621 l 232 446 l 232 72 z "},"M":{"ha":972,"x_min":88,"x_max":883,"o":"m 883 0 l 807 0 l 768 457 q 738 872 746 706 l 525 113 l 447 113 l 228 872 q 204 511 225 803 l 200 460 l 164 0 l 88 0 l 169 951 l 279 951 l 488 208 l 690 951 l 801 951 l 883 0 z "},"Ḿ":{"ha":972,"x_min":88,"x_max":883,"o":"m 883 0 l 807 0 l 768 457 q 738 872 746 706 l 525 113 l 447 113 l 228 872 q 204 511 225 803 l 200 460 l 164 0 l 88 0 l 169 951 l 279 951 l 488 208 l 690 951 l 801 951 l 883 0 m 585 1229 l 619 1160 l 371 1053 l 349 1099 l 585 1229 z "},"Ṁ":{"ha":972,"x_min":88,"x_max":883,"o":"m 883 0 l 807 0 l 768 457 q 738 872 746 706 l 525 113 l 447 113 l 228 872 q 204 511 225 803 l 200 460 l 164 0 l 88 0 l 169 951 l 279 951 l 488 208 l 690 951 l 801 951 l 883 0 m 485 1219 q 526 1203 510 1219 q 542 1163 542 1186 q 526 1122 542 1138 q 485 1106 510 1106 q 444 1122 460 1106 q 428 1163 428 1138 q 444 1203 428 1186 q 485 1219 460 1219 z "},"Ɯ":{"ha":1160,"x_min":122,"x_max":1022,"o":"m 1022 951 l 1022 0 l 953 0 l 946 125 q 733 -15 863 -15 q 615 24 663 -15 q 547 135 568 64 q 325 -15 454 -15 q 176 53 229 -15 q 122 239 122 122 l 122 951 l 203 951 l 203 238 q 238 102 203 150 q 336 54 272 54 q 444 94 397 54 q 535 210 492 133 q 533 240 533 219 l 533 951 l 613 951 l 613 238 q 647 103 613 151 q 746 54 682 54 q 856 94 808 54 q 942 211 903 135 l 942 951 l 1022 951 z "},"N":{"ha":840,"x_min":136,"x_max":704,"o":"m 704 0 l 599 0 l 201 861 q 213 538 213 733 l 213 0 l 136 0 l 136 951 l 242 951 l 639 89 q 628 369 628 256 l 628 951 l 704 951 l 704 0 z "},"Ǌ":{"ha":1204,"x_min":136,"x_max":1075,"o":"m 704 0 l 599 0 l 201 861 q 213 538 213 733 l 213 0 l 136 0 l 136 951 l 242 951 l 639 89 q 628 369 628 256 l 628 951 l 704 951 l 704 0 m 1075 126 q 1055 -8 1075 44 q 992 -97 1035 -61 q 876 -164 950 -132 l 856 -106 q 943 -47 914 -76 q 983 22 972 -18 q 994 131 994 63 l 994 951 l 1075 951 l 1075 126 z "},"Ń":{"ha":840,"x_min":136,"x_max":704,"o":"m 704 0 l 599 0 l 201 861 q 213 538 213 733 l 213 0 l 136 0 l 136 951 l 242 951 l 639 89 q 628 369 628 256 l 628 951 l 704 951 l 704 0 m 532 1229 l 567 1160 l 318 1053 l 296 1099 l 532 1229 z "},"Ň":{"ha":840,"x_min":136,"x_max":704,"o":"m 704 0 l 599 0 l 201 861 q 213 538 213 733 l 213 0 l 136 0 l 136 951 l 242 951 l 639 89 q 628 369 628 256 l 628 951 l 704 951 l 704 0 m 585 1231 l 617 1193 l 456 1050 l 407 1050 l 244 1193 l 278 1231 l 432 1118 l 585 1231 z "},"Ṋ":{"ha":840,"x_min":136,"x_max":704,"o":"m 704 0 l 599 0 l 201 861 q 213 538 213 733 l 213 0 l 136 0 l 136 951 l 242 951 l 639 89 q 628 369 628 256 l 628 951 l 704 951 l 704 0 m 269 -282 l 235 -246 l 397 -97 l 444 -97 l 607 -246 l 574 -282 l 421 -165 l 269 -282 z "},"Ņ":{"ha":840,"x_min":136,"x_max":704,"o":"m 704 0 l 599 0 l 201 861 q 213 538 213 733 l 213 0 l 136 0 l 136 951 l 242 951 l 639 89 q 628 369 628 256 l 628 951 l 704 951 l 704 0 m 419 -118 q 460 -135 444 -118 q 476 -176 476 -151 q 471 -209 476 -192 q 449 -267 465 -226 l 397 -386 l 351 -386 l 393 -228 q 361 -176 361 -210 q 377 -135 361 -151 q 419 -118 393 -118 z "},"Ṅ":{"ha":840,"x_min":136,"x_max":704,"o":"m 704 0 l 599 0 l 201 861 q 213 538 213 733 l 213 0 l 136 0 l 136 951 l 242 951 l 639 89 q 628 369 628 256 l 628 951 l 704 951 l 704 0 m 432 1219 q 473 1203 457 1219 q 489 1163 489 1186 q 473 1122 489 1138 q 432 1106 457 1106 q 391 1122 407 1106 q 375 1163 375 1138 q 391 1203 375 1186 q 432 1219 407 1219 z "},"Ṇ":{"ha":840,"x_min":136,"x_max":704,"o":"m 704 0 l 599 0 l 201 861 q 213 538 213 733 l 213 0 l 136 0 l 136 951 l 242 951 l 639 89 q 628 369 628 256 l 628 951 l 704 951 l 704 0 m 421 -235 q 380 -218 396 -235 q 364 -178 364 -201 q 380 -137 364 -153 q 421 -121 396 -121 q 462 -137 446 -121 q 478 -178 478 -153 q 462 -218 478 -201 q 421 -235 446 -235 z "},"Ǹ":{"ha":840,"x_min":136,"x_max":704,"o":"m 704 0 l 599 0 l 201 861 q 213 538 213 733 l 213 0 l 136 0 l 136 951 l 242 951 l 639 89 q 628 369 628 256 l 628 951 l 704 951 l 704 0 m 328 1229 l 563 1097 l 540 1053 l 292 1160 l 328 1229 z "},"Ŋ":{"ha":840,"x_min":136,"x_max":704,"o":"m 704 951 l 704 -112 q 660 -240 704 -196 q 546 -285 617 -285 q 414 -237 472 -285 l 449 -186 q 492 -210 471 -201 q 542 -218 513 -218 q 601 -194 579 -218 q 624 -115 624 -169 l 624 0 l 599 0 l 201 861 q 213 538 213 733 l 213 0 l 136 0 l 136 951 l 242 951 l 639 89 q 628 369 628 256 l 628 951 l 704 951 z "},"Ɲ":{"ha":840,"x_min":-75,"x_max":704,"o":"m 704 951 l 704 0 l 599 0 l 201 861 q 213 538 213 733 l 213 -114 q 169 -241 213 -197 q 56 -285 126 -285 q -75 -237 -19 -285 l -40 -187 q 3 -211 -18 -203 q 53 -219 24 -219 q 136 -117 136 -219 l 136 951 l 242 951 l 639 89 q 628 369 628 256 l 628 951 l 704 951 z "},"ǋ":{"ha":1179,"x_min":136,"x_max":1065,"o":"m 704 0 l 599 0 l 201 861 q 213 538 213 733 l 213 0 l 136 0 l 136 951 l 242 951 l 639 89 q 628 369 628 256 l 628 951 l 704 951 l 704 0 m 1049 6 q 1029 -131 1049 -79 q 973 -216 1010 -183 q 869 -282 936 -249 l 844 -226 q 919 -174 893 -200 q 958 -107 944 -149 q 971 4 971 -65 l 971 726 l 1049 726 l 1049 6 m 1008 1044 q 1049 1028 1033 1044 q 1065 988 1065 1011 q 1049 947 1065 963 q 1008 931 1033 931 q 967 947 983 931 q 951 988 951 963 q 967 1028 951 1011 q 1008 1044 983 1044 z "},"Ƞ":{"ha":826,"x_min":136,"x_max":701,"o":"m 476 967 q 643 898 585 967 q 701 706 701 829 l 701 -274 l 621 -274 l 621 692 q 464 897 621 897 q 328 858 386 897 q 217 746 271 818 l 217 0 l 136 0 l 136 951 l 207 951 l 214 824 q 476 967 326 967 z "},"Ñ":{"ha":840,"x_min":136,"x_max":704,"o":"m 704 0 l 599 0 l 201 861 q 213 538 213 733 l 213 0 l 136 0 l 136 951 l 242 951 l 639 89 q 628 369 628 256 l 628 951 l 704 951 l 704 0 m 506 1103 q 463 1112 482 1103 q 417 1138 444 1121 q 358 1164 379 1164 q 322 1151 338 1164 q 288 1110 306 1139 l 242 1133 q 357 1225 288 1225 q 398 1216 379 1225 q 439 1192 417 1207 q 476 1170 463 1176 q 504 1164 489 1164 q 540 1178 524 1164 q 575 1224 556 1192 l 621 1200 q 506 1103 578 1103 z "},"O":{"ha":867,"x_min":82,"x_max":783,"o":"m 433 967 q 690 842 596 967 q 783 475 783 717 q 690 111 783 238 q 433 -15 596 -15 q 249 40 328 -15 q 126 205 169 94 q 82 474 82 315 q 126 743 82 632 q 249 910 169 854 q 433 967 328 967 m 433 897 q 238 793 308 897 q 167 474 167 689 q 238 158 167 261 q 433 54 310 54 q 631 157 561 54 q 700 475 700 260 q 630 794 700 690 q 433 897 560 897 z "},"Ȣ":{"ha":803,"x_min":82,"x_max":721,"o":"m 542 536 q 675 440 629 507 q 721 276 721 372 q 685 130 721 196 q 576 24 649 64 q 401 -15 504 -15 q 228 23 300 -15 q 119 127 156 61 q 82 275 82 193 q 128 436 82 368 q 261 535 175 504 q 140 742 140 589 l 140 951 l 221 951 l 221 744 q 401 564 221 564 q 544 614 501 564 q 586 744 586 664 l 586 951 l 667 951 l 667 742 q 635 619 667 674 q 542 536 604 565 m 401 54 q 578 112 521 54 q 636 276 636 169 q 578 439 636 382 q 401 496 521 496 q 226 438 285 496 q 167 275 167 379 q 226 112 167 169 q 401 54 285 54 z "},"Ó":{"ha":867,"x_min":82,"x_max":783,"o":"m 433 967 q 690 842 596 967 q 783 475 783 717 q 690 111 783 238 q 433 -15 596 -15 q 249 40 328 -15 q 126 205 169 94 q 82 474 82 315 q 126 743 82 632 q 249 910 169 854 q 433 967 328 967 m 433 897 q 238 793 308 897 q 167 474 167 689 q 238 158 167 261 q 433 54 310 54 q 631 157 561 54 q 700 475 700 260 q 630 794 700 690 q 433 897 560 897 m 533 1229 l 568 1160 l 319 1053 l 297 1099 l 533 1229 z "},"Ŏ":{"ha":867,"x_min":82,"x_max":783,"o":"m 433 967 q 690 842 596 967 q 783 475 783 717 q 690 111 783 238 q 433 -15 596 -15 q 249 40 328 -15 q 126 205 169 94 q 82 474 82 315 q 126 743 82 632 q 249 910 169 854 q 433 967 328 967 m 433 897 q 238 793 308 897 q 167 474 167 689 q 238 158 167 261 q 433 54 310 54 q 631 157 561 54 q 700 475 700 260 q 630 794 700 690 q 433 897 560 897 m 432 1063 q 322 1101 367 1063 q 268 1200 276 1139 l 319 1213 q 360 1149 331 1172 q 432 1126 389 1126 q 505 1149 475 1126 q 546 1213 535 1172 l 597 1200 q 544 1101 589 1139 q 432 1063 499 1063 z "},"Ǒ":{"ha":867,"x_min":82,"x_max":783,"o":"m 433 967 q 690 842 596 967 q 783 475 783 717 q 690 111 783 238 q 433 -15 596 -15 q 249 40 328 -15 q 126 205 169 94 q 82 474 82 315 q 126 743 82 632 q 249 910 169 854 q 433 967 328 967 m 433 897 q 238 793 308 897 q 167 474 167 689 q 238 158 167 261 q 433 54 310 54 q 631 157 561 54 q 700 475 700 260 q 630 794 700 690 q 433 897 560 897 m 586 1231 l 618 1193 l 457 1050 l 408 1050 l 246 1193 l 279 1231 l 433 1118 l 586 1231 z "},"Ɵ":{"ha":867,"x_min":82,"x_max":783,"o":"m 433 967 q 690 842 596 967 q 783 474 783 717 q 690 111 783 238 q 433 -15 596 -15 q 249 40 328 -15 q 126 204 169 94 q 82 472 82 314 q 126 743 82 632 q 249 910 169 854 q 433 967 328 967 m 433 897 q 243 803 314 897 q 165 518 172 710 l 701 518 q 624 805 694 713 q 433 897 554 897 m 433 54 q 630 152 560 54 q 703 454 700 250 l 164 454 q 239 153 167 253 q 433 54 311 54 z "},"Ô":{"ha":867,"x_min":82,"x_max":783,"o":"m 433 967 q 690 842 596 967 q 783 475 783 717 q 690 111 783 238 q 433 -15 596 -15 q 249 40 328 -15 q 126 205 169 94 q 82 474 82 315 q 126 743 82 632 q 249 910 169 854 q 433 967 328 967 m 433 897 q 238 793 308 897 q 167 474 167 689 q 238 158 167 261 q 433 54 310 54 q 631 157 561 54 q 700 475 700 260 q 630 794 700 690 q 433 897 560 897 m 281 1060 l 246 1097 l 408 1239 l 457 1239 l 618 1097 l 585 1060 l 432 1171 l 281 1060 z "},"Ố":{"ha":867,"x_min":82,"x_max":783,"o":"m 433 967 q 690 842 596 967 q 783 475 783 717 q 690 111 783 238 q 433 -15 596 -15 q 249 40 328 -15 q 126 205 169 94 q 82 474 82 315 q 126 743 82 632 q 249 910 169 854 q 433 967 328 967 m 433 897 q 238 793 308 897 q 167 474 167 689 q 238 158 167 261 q 433 54 310 54 q 631 157 561 54 q 700 475 700 260 q 630 794 700 690 q 433 897 560 897 m 282 1013 l 247 1050 l 410 1192 l 458 1192 l 619 1050 l 586 1013 l 433 1124 l 282 1013 m 681 1371 l 735 1325 l 579 1156 l 543 1188 l 681 1371 z "},"Ộ":{"ha":867,"x_min":82,"x_max":783,"o":"m 433 967 q 690 842 596 967 q 783 475 783 717 q 690 111 783 238 q 433 -15 596 -15 q 249 40 328 -15 q 126 205 169 94 q 82 474 82 315 q 126 743 82 632 q 249 910 169 854 q 433 967 328 967 m 433 897 q 238 793 308 897 q 167 474 167 689 q 238 158 167 261 q 433 54 310 54 q 631 157 561 54 q 700 475 700 260 q 630 794 700 690 q 433 897 560 897 m 281 1060 l 246 1097 l 408 1239 l 457 1239 l 618 1097 l 585 1060 l 432 1171 l 281 1060 m 433 -235 q 392 -218 408 -235 q 376 -178 376 -201 q 392 -137 376 -153 q 433 -121 408 -121 q 474 -137 458 -121 q 490 -178 490 -153 q 474 -218 490 -201 q 433 -235 458 -235 z "},"Ồ":{"ha":867,"x_min":82,"x_max":783,"o":"m 433 967 q 690 842 596 967 q 783 475 783 717 q 690 111 783 238 q 433 -15 596 -15 q 249 40 328 -15 q 126 205 169 94 q 82 474 82 315 q 126 743 82 632 q 249 910 169 854 q 433 967 328 967 m 433 897 q 238 793 308 897 q 167 474 167 689 q 238 158 167 261 q 433 54 310 54 q 631 157 561 54 q 700 475 700 260 q 630 794 700 690 q 433 897 560 897 m 281 1013 l 246 1050 l 408 1192 l 457 1192 l 618 1050 l 585 1013 l 432 1124 l 281 1013 m 190 1371 l 328 1188 l 292 1156 l 136 1325 l 190 1371 z "},"Ổ":{"ha":867,"x_min":82,"x_max":783,"o":"m 433 967 q 690 842 596 967 q 783 475 783 717 q 690 111 783 238 q 433 -15 596 -15 q 249 40 328 -15 q 126 205 169 94 q 82 474 82 315 q 126 743 82 632 q 249 910 169 854 q 433 967 328 967 m 433 897 q 238 793 308 897 q 167 474 167 689 q 238 158 167 261 q 433 54 310 54 q 631 157 561 54 q 700 475 700 260 q 630 794 700 690 q 433 897 560 897 m 281 1013 l 246 1050 l 408 1192 l 457 1192 l 618 1050 l 585 1013 l 432 1124 l 281 1013 m 561 1229 q 626 1247 604 1232 q 649 1294 649 1261 q 633 1337 649 1322 q 589 1351 617 1351 q 518 1332 554 1351 l 497 1379 q 600 1408 542 1408 q 685 1378 654 1408 q 717 1299 717 1349 q 692 1226 717 1253 q 624 1193 668 1200 l 624 1129 l 561 1129 l 561 1229 z "},"Ỗ":{"ha":867,"x_min":82,"x_max":783,"o":"m 433 967 q 690 842 596 967 q 783 475 783 717 q 690 111 783 238 q 433 -15 596 -15 q 249 40 328 -15 q 126 205 169 94 q 82 474 82 315 q 126 743 82 632 q 249 910 169 854 q 433 967 328 967 m 433 897 q 238 793 308 897 q 167 474 167 689 q 238 158 167 261 q 433 54 310 54 q 631 157 561 54 q 700 475 700 260 q 630 794 700 690 q 433 897 560 897 m 279 1013 l 244 1050 l 407 1192 l 456 1192 l 617 1050 l 583 1013 l 431 1124 l 279 1013 m 506 1247 q 463 1256 482 1247 q 417 1282 444 1265 q 358 1308 379 1308 q 322 1296 338 1308 q 288 1254 306 1283 l 242 1278 q 357 1369 288 1369 q 397 1360 378 1369 q 439 1336 417 1351 q 476 1315 463 1321 q 504 1308 489 1308 q 540 1322 524 1308 q 575 1368 556 1336 l 621 1344 q 506 1247 578 1247 z "},"Ȍ":{"ha":867,"x_min":82,"x_max":783,"o":"m 433 967 q 690 842 596 967 q 783 475 783 717 q 690 111 783 238 q 433 -15 596 -15 q 249 40 328 -15 q 126 205 169 94 q 82 474 82 315 q 126 743 82 632 q 249 910 169 854 q 433 967 328 967 m 433 897 q 238 793 308 897 q 167 474 167 689 q 238 158 167 261 q 433 54 310 54 q 631 157 561 54 q 700 475 700 260 q 630 794 700 690 q 433 897 560 897 m 282 1299 l 381 1089 l 333 1068 l 215 1264 l 282 1299 m 446 1299 l 535 1096 l 486 1074 l 379 1264 l 446 1299 z "},"Ö":{"ha":867,"x_min":82,"x_max":783,"o":"m 433 967 q 690 842 596 967 q 783 475 783 717 q 690 111 783 238 q 433 -15 596 -15 q 249 40 328 -15 q 126 205 169 94 q 82 474 82 315 q 126 743 82 632 q 249 910 169 854 q 433 967 328 967 m 433 897 q 238 793 308 897 q 167 474 167 689 q 238 158 167 261 q 433 54 310 54 q 631 157 561 54 q 700 475 700 260 q 630 794 700 690 q 433 897 560 897 m 318 1203 q 356 1188 342 1203 q 371 1150 371 1172 q 356 1111 371 1126 q 318 1096 342 1096 q 281 1111 296 1096 q 265 1150 265 1126 q 281 1188 265 1172 q 318 1203 296 1203 m 557 1203 q 594 1188 579 1203 q 610 1150 610 1172 q 594 1111 610 1126 q 557 1096 579 1096 q 518 1111 533 1096 q 503 1150 503 1126 q 518 1188 503 1172 q 557 1203 533 1203 z "},"Ȫ":{"ha":867,"x_min":82,"x_max":783,"o":"m 433 967 q 690 842 596 967 q 783 475 783 717 q 690 111 783 238 q 433 -15 596 -15 q 249 40 328 -15 q 126 205 169 94 q 82 474 82 315 q 126 743 82 632 q 249 910 169 854 q 433 967 328 967 m 433 897 q 238 793 308 897 q 167 474 167 689 q 238 158 167 261 q 433 54 310 54 q 631 157 561 54 q 700 475 700 260 q 630 794 700 690 q 433 897 560 897 m 314 1139 q 352 1124 338 1139 q 367 1086 367 1108 q 352 1047 367 1063 q 314 1032 338 1032 q 276 1047 292 1032 q 261 1086 261 1063 q 276 1124 261 1108 q 314 1139 292 1139 m 553 1139 q 590 1124 575 1139 q 606 1086 606 1108 q 590 1047 606 1063 q 553 1032 575 1032 q 514 1047 529 1032 q 499 1086 499 1063 q 514 1124 499 1108 q 553 1139 529 1139 m 588 1219 l 283 1219 l 283 1281 l 588 1281 l 588 1219 z "},"Ȯ":{"ha":867,"x_min":82,"x_max":783,"o":"m 433 967 q 690 842 596 967 q 783 475 783 717 q 690 111 783 238 q 433 -15 596 -15 q 249 40 328 -15 q 126 205 169 94 q 82 474 82 315 q 126 743 82 632 q 249 910 169 854 q 433 967 328 967 m 433 897 q 238 793 308 897 q 167 474 167 689 q 238 158 167 261 q 433 54 310 54 q 631 157 561 54 q 700 475 700 260 q 630 794 700 690 q 433 897 560 897 m 433 1219 q 474 1203 458 1219 q 490 1163 490 1186 q 474 1122 490 1138 q 433 1106 458 1106 q 392 1122 408 1106 q 376 1163 376 1138 q 392 1203 376 1186 q 433 1219 408 1219 z "},"Ȱ":{"ha":867,"x_min":82,"x_max":783,"o":"m 433 967 q 690 842 596 967 q 783 475 783 717 q 690 111 783 238 q 433 -15 596 -15 q 249 40 328 -15 q 126 205 169 94 q 82 474 82 315 q 126 743 82 632 q 249 910 169 854 q 433 967 328 967 m 433 897 q 238 793 308 897 q 167 474 167 689 q 238 158 167 261 q 433 54 310 54 q 631 157 561 54 q 700 475 700 260 q 630 794 700 690 q 433 897 560 897 m 435 1146 q 476 1129 460 1146 q 492 1089 492 1113 q 476 1048 492 1064 q 435 1032 460 1032 q 394 1048 410 1032 q 378 1089 378 1064 q 394 1129 378 1113 q 435 1146 410 1146 m 588 1219 l 283 1219 l 283 1281 l 588 1281 l 588 1219 z "},"Ọ":{"ha":867,"x_min":82,"x_max":783,"o":"m 433 967 q 690 842 596 967 q 783 475 783 717 q 690 111 783 238 q 433 -15 596 -15 q 249 40 328 -15 q 126 205 169 94 q 82 474 82 315 q 126 743 82 632 q 249 910 169 854 q 433 967 328 967 m 433 897 q 238 793 308 897 q 167 474 167 689 q 238 158 167 261 q 433 54 310 54 q 631 157 561 54 q 700 475 700 260 q 630 794 700 690 q 433 897 560 897 m 433 -235 q 392 -218 408 -235 q 376 -178 376 -201 q 392 -137 376 -153 q 433 -121 408 -121 q 474 -137 458 -121 q 490 -178 490 -153 q 474 -218 490 -201 q 433 -235 458 -235 z "},"Ò":{"ha":867,"x_min":82,"x_max":783,"o":"m 433 967 q 690 842 596 967 q 783 475 783 717 q 690 111 783 238 q 433 -15 596 -15 q 249 40 328 -15 q 126 205 169 94 q 82 474 82 315 q 126 743 82 632 q 249 910 169 854 q 433 967 328 967 m 433 897 q 238 793 308 897 q 167 474 167 689 q 238 158 167 261 q 433 54 310 54 q 631 157 561 54 q 700 475 700 260 q 630 794 700 690 q 433 897 560 897 m 329 1229 l 564 1097 l 542 1053 l 293 1160 l 329 1229 z "},"Ỏ":{"ha":867,"x_min":82,"x_max":783,"o":"m 433 967 q 690 842 596 967 q 783 475 783 717 q 690 111 783 238 q 433 -15 596 -15 q 249 40 328 -15 q 126 205 169 94 q 82 474 82 315 q 126 743 82 632 q 249 910 169 854 q 433 967 328 967 m 433 897 q 238 793 308 897 q 167 474 167 689 q 238 158 167 261 q 433 54 310 54 q 631 157 561 54 q 700 475 700 260 q 630 794 700 690 q 433 897 560 897 m 401 1176 q 467 1194 444 1179 q 489 1242 489 1208 q 473 1284 489 1269 q 429 1299 457 1299 q 358 1279 394 1299 l 338 1326 q 440 1356 382 1356 q 526 1326 494 1356 q 557 1246 557 1296 q 533 1174 557 1200 q 464 1140 508 1147 l 464 1076 l 401 1076 l 401 1176 z "},"Ơ":{"ha":876,"x_min":82,"x_max":797,"o":"m 797 954 q 699 829 797 849 q 783 475 783 701 q 690 111 783 238 q 433 -15 596 -15 q 249 40 328 -15 q 126 205 169 94 q 82 474 82 315 q 126 743 82 632 q 249 910 169 854 q 433 967 328 967 q 663 874 575 967 q 717 898 700 879 q 733 953 733 917 q 728 1004 733 982 q 715 1053 724 1026 l 774 1069 q 797 954 797 1017 m 433 54 q 631 157 561 54 q 700 475 700 260 q 630 794 700 690 q 433 897 560 897 q 238 793 308 897 q 167 474 167 689 q 238 158 167 261 q 433 54 310 54 z "},"Ớ":{"ha":876,"x_min":82,"x_max":797,"o":"m 568 1160 l 319 1053 l 297 1099 l 533 1229 l 568 1160 m 797 954 q 699 829 797 849 q 783 475 783 701 q 690 111 783 238 q 433 -15 596 -15 q 249 40 328 -15 q 126 205 169 94 q 82 474 82 315 q 126 743 82 632 q 249 910 169 854 q 433 967 328 967 q 663 874 575 967 q 717 898 700 879 q 733 953 733 917 q 728 1004 733 982 q 715 1053 724 1026 l 774 1069 q 797 954 797 1017 m 433 54 q 631 157 561 54 q 700 475 700 260 q 630 794 700 690 q 433 897 560 897 q 238 793 308 897 q 167 474 167 689 q 238 158 167 261 q 433 54 310 54 z "},"Ợ":{"ha":876,"x_min":82,"x_max":797,"o":"m 797 954 q 699 829 797 849 q 783 475 783 701 q 690 111 783 238 q 433 -15 596 -15 q 249 40 328 -15 q 126 205 169 94 q 82 474 82 315 q 126 743 82 632 q 249 910 169 854 q 433 967 328 967 q 663 874 575 967 q 717 898 700 879 q 733 953 733 917 q 728 1004 733 982 q 715 1053 724 1026 l 774 1069 q 797 954 797 1017 m 433 54 q 631 157 561 54 q 700 475 700 260 q 630 794 700 690 q 433 897 560 897 q 238 793 308 897 q 167 474 167 689 q 238 158 167 261 q 433 54 310 54 m 433 -121 q 474 -137 458 -121 q 490 -178 490 -153 q 474 -218 490 -201 q 433 -235 458 -235 q 392 -218 408 -235 q 376 -178 376 -201 q 392 -137 376 -153 q 433 -121 408 -121 z "},"Ờ":{"ha":876,"x_min":82,"x_max":797,"o":"m 564 1097 l 542 1053 l 293 1160 l 329 1229 l 564 1097 m 797 954 q 699 829 797 849 q 783 475 783 701 q 690 111 783 238 q 433 -15 596 -15 q 249 40 328 -15 q 126 205 169 94 q 82 474 82 315 q 126 743 82 632 q 249 910 169 854 q 433 967 328 967 q 663 874 575 967 q 717 898 700 879 q 733 953 733 917 q 728 1004 733 982 q 715 1053 724 1026 l 774 1069 q 797 954 797 1017 m 433 54 q 631 157 561 54 q 700 475 700 260 q 630 794 700 690 q 433 897 560 897 q 238 793 308 897 q 167 474 167 689 q 238 158 167 261 q 433 54 310 54 z "},"Ở":{"ha":876,"x_min":82,"x_max":797,"o":"m 429 1299 q 358 1279 394 1299 l 338 1326 q 440 1356 382 1356 q 526 1326 494 1356 q 557 1246 557 1296 q 533 1174 557 1200 q 464 1140 508 1147 l 464 1076 l 401 1076 l 401 1176 q 467 1194 444 1179 q 489 1242 489 1208 q 473 1284 489 1269 q 429 1299 457 1299 m 797 954 q 699 829 797 849 q 783 475 783 701 q 690 111 783 238 q 433 -15 596 -15 q 249 40 328 -15 q 126 205 169 94 q 82 474 82 315 q 126 743 82 632 q 249 910 169 854 q 433 967 328 967 q 663 874 575 967 q 717 898 700 879 q 733 953 733 917 q 728 1004 733 982 q 715 1053 724 1026 l 774 1069 q 797 954 797 1017 m 433 54 q 631 157 561 54 q 700 475 700 260 q 630 794 700 690 q 433 897 560 897 q 238 793 308 897 q 167 474 167 689 q 238 158 167 261 q 433 54 310 54 z "},"Ỡ":{"ha":876,"x_min":82,"x_max":797,"o":"m 360 1164 q 323 1151 339 1164 q 289 1110 307 1139 l 243 1133 q 358 1225 289 1225 q 399 1216 381 1225 q 440 1192 418 1207 q 477 1170 464 1176 q 506 1164 490 1164 q 541 1178 525 1164 q 576 1224 557 1192 l 622 1200 q 507 1103 579 1103 q 465 1112 483 1103 q 418 1138 446 1121 q 360 1164 381 1164 m 797 954 q 699 829 797 849 q 783 475 783 701 q 690 111 783 238 q 433 -15 596 -15 q 249 40 328 -15 q 126 205 169 94 q 82 474 82 315 q 126 743 82 632 q 249 910 169 854 q 433 967 328 967 q 663 874 575 967 q 717 898 700 879 q 733 953 733 917 q 728 1004 733 982 q 715 1053 724 1026 l 774 1069 q 797 954 797 1017 m 433 54 q 631 157 561 54 q 700 475 700 260 q 630 794 700 690 q 433 897 560 897 q 238 793 308 897 q 167 474 167 689 q 238 158 167 261 q 433 54 310 54 z "},"Ő":{"ha":867,"x_min":82,"x_max":783,"o":"m 433 967 q 690 842 596 967 q 783 475 783 717 q 690 111 783 238 q 433 -15 596 -15 q 249 40 328 -15 q 126 205 169 94 q 82 474 82 315 q 126 743 82 632 q 249 910 169 854 q 433 967 328 967 m 433 897 q 238 793 308 897 q 167 474 167 689 q 238 158 167 261 q 433 54 310 54 q 631 157 561 54 q 700 475 700 260 q 630 794 700 690 q 433 897 560 897 m 407 1299 l 474 1264 l 367 1074 l 318 1096 l 407 1299 m 571 1299 l 638 1264 l 521 1068 l 472 1089 l 571 1299 z "},"Ƣ":{"ha":1132,"x_min":82,"x_max":996,"o":"m 817 968 q 949 919 903 968 q 996 776 996 871 l 996 -274 l 915 -274 l 915 778 q 889 874 915 844 q 813 903 863 903 q 742 892 775 903 q 674 860 710 881 q 783 475 783 731 q 690 111 783 238 q 433 -15 596 -15 q 249 40 328 -15 q 126 205 169 94 q 82 474 82 315 q 126 743 82 632 q 249 910 169 854 q 433 967 328 967 q 631 901 549 967 q 719 951 675 933 q 817 968 764 968 m 433 54 q 631 157 561 54 q 700 475 700 260 q 630 794 700 690 q 433 897 560 897 q 238 793 308 897 q 167 474 167 689 q 238 158 167 261 q 433 54 310 54 z "},"Ȏ":{"ha":867,"x_min":82,"x_max":783,"o":"m 433 967 q 690 842 596 967 q 783 475 783 717 q 690 111 783 238 q 433 -15 596 -15 q 249 40 328 -15 q 126 205 169 94 q 82 474 82 315 q 126 743 82 632 q 249 910 169 854 q 433 967 328 967 m 433 897 q 238 793 308 897 q 167 474 167 689 q 238 158 167 261 q 433 54 310 54 q 631 157 561 54 q 700 475 700 260 q 630 794 700 690 q 433 897 560 897 m 432 1256 q 544 1215 499 1256 q 597 1103 589 1174 l 546 1092 q 432 1192 521 1192 q 319 1092 344 1192 l 268 1103 q 321 1215 276 1174 q 432 1256 365 1256 z "},"Ō":{"ha":867,"x_min":82,"x_max":783,"o":"m 433 967 q 690 842 596 967 q 783 475 783 717 q 690 111 783 238 q 433 -15 596 -15 q 249 40 328 -15 q 126 205 169 94 q 82 474 82 315 q 126 743 82 632 q 249 910 169 854 q 433 967 328 967 m 433 897 q 238 793 308 897 q 167 474 167 689 q 238 158 167 261 q 433 54 310 54 q 631 157 561 54 q 700 475 700 260 q 630 794 700 690 q 433 897 560 897 m 586 1115 l 282 1115 l 282 1176 l 586 1176 l 586 1115 z "},"Ṓ":{"ha":867,"x_min":82,"x_max":783,"o":"m 433 967 q 690 842 596 967 q 783 475 783 717 q 690 111 783 238 q 433 -15 596 -15 q 249 40 328 -15 q 126 205 169 94 q 82 474 82 315 q 126 743 82 632 q 249 910 169 854 q 433 967 328 967 m 433 897 q 238 793 308 897 q 167 474 167 689 q 238 158 167 261 q 433 54 310 54 q 631 157 561 54 q 700 475 700 260 q 630 794 700 690 q 433 897 560 897 m 586 1060 l 282 1060 l 282 1121 l 586 1121 l 586 1060 m 532 1365 l 567 1296 l 318 1189 l 296 1235 l 532 1365 z "},"Ṑ":{"ha":867,"x_min":82,"x_max":783,"o":"m 339 1365 l 574 1233 l 551 1189 l 303 1296 l 339 1365 m 588 1060 l 283 1060 l 283 1121 l 588 1121 l 588 1060 m 433 967 q 690 842 596 967 q 783 475 783 717 q 690 111 783 238 q 433 -15 596 -15 q 249 40 328 -15 q 126 205 169 94 q 82 474 82 315 q 126 743 82 632 q 249 910 169 854 q 433 967 328 967 m 433 897 q 238 793 308 897 q 167 474 167 689 q 238 158 167 261 q 433 54 310 54 q 631 157 561 54 q 700 475 700 260 q 630 794 700 690 q 433 897 560 897 z "},"Ꞷ":{"ha":1056,"x_min":89,"x_max":967,"o":"m 874 951 q 944 692 921 811 q 967 404 967 572 q 901 80 967 175 q 717 -15 835 -15 q 591 24 638 -15 q 525 140 544 63 q 335 -15 485 -15 q 151 82 214 -15 q 89 406 89 179 q 113 690 89 572 q 185 951 136 807 l 264 951 q 192 688 214 808 q 171 407 171 567 q 190 193 171 271 q 247 85 210 115 q 340 54 283 54 q 447 100 408 54 q 485 253 485 146 l 485 551 l 565 551 l 565 251 q 604 98 565 143 q 713 53 643 53 q 804 81 767 53 q 863 188 842 110 q 885 404 885 265 q 863 685 885 564 q 793 951 842 806 l 874 951 z "},"Ǫ":{"ha":867,"x_min":82,"x_max":783,"o":"m 783 475 q 719 158 783 279 q 538 0 654 38 q 420 -78 454 -42 q 386 -165 386 -115 q 464 -237 386 -237 q 536 -228 497 -237 l 529 -292 q 456 -301 485 -301 q 352 -267 389 -301 q 315 -175 315 -232 q 342 -87 315 -126 q 421 -15 368 -49 q 174 116 265 -10 q 82 474 82 242 q 126 743 82 632 q 249 910 169 854 q 433 967 328 967 q 690 842 596 967 q 783 475 783 717 m 433 54 q 631 157 561 54 q 700 475 700 260 q 630 794 700 690 q 433 897 560 897 q 238 793 308 897 q 167 474 167 689 q 238 158 167 261 q 433 54 310 54 z "},"Ǭ":{"ha":867,"x_min":82,"x_max":783,"o":"m 586 1176 l 586 1115 l 282 1115 l 282 1176 l 586 1176 m 783 475 q 719 158 783 279 q 538 0 654 38 q 420 -78 454 -42 q 386 -165 386 -115 q 464 -237 386 -237 q 536 -228 497 -237 l 529 -292 q 456 -301 485 -301 q 352 -267 389 -301 q 315 -175 315 -232 q 342 -87 315 -126 q 421 -15 368 -49 q 174 116 265 -10 q 82 474 82 242 q 126 743 82 632 q 249 910 169 854 q 433 967 328 967 q 690 842 596 967 q 783 475 783 717 m 433 54 q 631 157 561 54 q 700 475 700 260 q 630 794 700 690 q 433 897 560 897 q 238 793 308 897 q 167 474 167 689 q 238 158 167 261 q 433 54 310 54 z "},"Ɔ":{"ha":690,"x_min":28,"x_max":608,"o":"m 281 967 q 521 843 433 967 q 608 476 608 719 q 564 206 608 317 q 442 40 519 96 q 263 -15 364 -15 q 28 82 128 -15 l 72 132 q 161 74 119 93 q 261 56 203 56 q 451 160 378 56 q 524 476 524 264 q 457 797 524 697 q 278 897 390 897 q 173 880 221 897 q 79 828 125 863 l 38 879 q 281 967 146 967 z "},"Ø":{"ha":867,"x_min":82,"x_max":783,"o":"m 590 929 q 733 765 682 879 q 783 475 783 650 q 690 112 783 239 q 433 -15 596 -15 q 338 -3 382 -15 l 294 -165 l 225 -147 l 274 24 q 133 189 183 75 q 82 474 82 303 q 126 743 82 632 q 249 910 169 854 q 433 967 328 967 q 526 954 482 967 l 571 1125 l 640 1106 l 590 929 m 165 474 q 303 90 165 178 l 514 886 q 433 897 474 897 q 236 793 307 897 q 165 474 165 689 m 433 54 q 630 157 561 54 q 700 475 699 260 q 563 864 700 778 l 353 67 q 433 54 390 54 z "},"Ǿ":{"ha":867,"x_min":82,"x_max":783,"o":"m 590 929 q 733 765 682 879 q 783 475 783 650 q 690 112 783 239 q 433 -15 596 -15 q 338 -3 382 -15 l 294 -165 l 225 -147 l 274 24 q 133 189 183 75 q 82 474 82 303 q 126 743 82 632 q 249 910 169 854 q 433 967 328 967 q 526 954 482 967 l 571 1125 l 640 1106 l 590 929 m 165 474 q 303 90 165 178 l 514 886 q 433 897 474 897 q 236 793 307 897 q 165 474 165 689 m 433 54 q 630 157 561 54 q 700 475 699 260 q 563 864 700 778 l 353 67 q 433 54 390 54 m 525 1246 l 560 1176 l 311 1069 l 289 1115 l 525 1246 z "},"Õ":{"ha":867,"x_min":82,"x_max":783,"o":"m 433 967 q 690 842 596 967 q 783 475 783 717 q 690 111 783 238 q 433 -15 596 -15 q 249 40 328 -15 q 126 205 169 94 q 82 474 82 315 q 126 743 82 632 q 249 910 169 854 q 433 967 328 967 m 433 897 q 238 793 308 897 q 167 474 167 689 q 238 158 167 261 q 433 54 310 54 q 631 157 561 54 q 700 475 700 260 q 630 794 700 690 q 433 897 560 897 m 507 1103 q 465 1112 483 1103 q 418 1138 446 1121 q 360 1164 381 1164 q 323 1151 339 1164 q 289 1110 307 1139 l 243 1133 q 358 1225 289 1225 q 399 1216 381 1225 q 440 1192 418 1207 q 477 1170 464 1176 q 506 1164 490 1164 q 541 1178 525 1164 q 576 1224 557 1192 l 622 1200 q 507 1103 579 1103 z "},"Ṍ":{"ha":867,"x_min":82,"x_max":783,"o":"m 433 967 q 690 842 596 967 q 783 475 783 717 q 690 111 783 238 q 433 -15 596 -15 q 249 40 328 -15 q 126 205 169 94 q 82 474 82 315 q 126 743 82 632 q 249 910 169 854 q 433 967 328 967 m 433 897 q 238 793 308 897 q 167 474 167 689 q 238 158 167 261 q 433 54 310 54 q 631 157 561 54 q 700 475 700 260 q 630 794 700 690 q 433 897 560 897 m 508 1053 q 466 1062 485 1053 q 419 1088 447 1071 q 361 1114 382 1114 q 324 1101 340 1114 q 290 1060 308 1089 l 244 1083 q 360 1175 290 1175 q 401 1166 382 1175 q 442 1142 419 1157 q 478 1120 465 1126 q 507 1114 492 1114 q 542 1128 526 1114 q 578 1174 558 1142 l 624 1150 q 508 1053 581 1053 m 535 1394 l 569 1325 l 321 1218 l 299 1264 l 535 1394 z "},"Ȭ":{"ha":867,"x_min":82,"x_max":783,"o":"m 433 967 q 690 842 596 967 q 783 475 783 717 q 690 111 783 238 q 433 -15 596 -15 q 249 40 328 -15 q 126 205 169 94 q 82 474 82 315 q 126 743 82 632 q 249 910 169 854 q 433 967 328 967 m 433 897 q 238 793 308 897 q 167 474 167 689 q 238 158 167 261 q 433 54 310 54 q 631 157 561 54 q 700 475 700 260 q 630 794 700 690 q 433 897 560 897 m 508 1053 q 466 1062 485 1053 q 419 1088 447 1071 q 361 1114 382 1114 q 324 1101 340 1114 q 290 1060 308 1089 l 244 1083 q 360 1175 290 1175 q 401 1166 382 1175 q 442 1142 419 1157 q 478 1120 465 1126 q 507 1114 492 1114 q 542 1128 526 1114 q 578 1174 558 1142 l 624 1150 q 508 1053 581 1053 m 582 1242 l 278 1242 l 278 1303 l 582 1303 l 582 1242 z "},"Œ":{"ha":1090,"x_min":82,"x_max":1033,"o":"m 1033 0 l 507 0 q 418 -15 464 -15 q 244 42 321 -15 q 125 208 168 99 q 82 474 82 318 q 125 740 82 628 q 244 909 168 851 q 418 967 321 967 q 510 951 467 967 l 1025 951 l 1015 883 l 618 883 q 717 740 681 831 q 758 528 753 650 l 969 528 l 969 460 l 760 460 q 719 224 757 322 q 614 68 682 125 l 1033 68 l 1033 0 m 167 474 q 236 160 167 267 q 421 54 306 54 q 608 160 540 54 q 675 482 675 267 q 606 792 675 688 q 421 897 538 897 q 236 791 306 897 q 167 474 167 685 z "},"P":{"ha":711,"x_min":136,"x_max":660,"o":"m 319 951 q 660 667 660 951 q 570 444 660 515 q 318 372 481 372 l 217 372 l 217 0 l 136 0 l 136 951 l 319 951 m 318 439 q 510 490 446 439 q 575 665 575 542 q 513 833 575 782 q 321 885 450 885 l 217 885 l 217 439 l 318 439 z "},"Ṕ":{"ha":711,"x_min":136,"x_max":660,"o":"m 319 951 q 660 667 660 951 q 570 444 660 515 q 318 372 481 372 l 217 372 l 217 0 l 136 0 l 136 951 l 319 951 m 318 439 q 510 490 446 439 q 575 665 575 542 q 513 833 575 782 q 321 885 450 885 l 217 885 l 217 439 l 318 439 m 458 1229 l 493 1160 l 244 1053 l 222 1099 l 458 1229 z "},"Ṗ":{"ha":711,"x_min":136,"x_max":660,"o":"m 319 951 q 660 667 660 951 q 570 444 660 515 q 318 372 481 372 l 217 372 l 217 0 l 136 0 l 136 951 l 319 951 m 318 439 q 510 490 446 439 q 575 665 575 542 q 513 833 575 782 q 321 885 450 885 l 217 885 l 217 439 l 318 439 m 358 1219 q 399 1203 383 1219 q 415 1163 415 1186 q 399 1122 415 1138 q 358 1106 383 1106 q 317 1122 333 1106 q 301 1163 301 1138 q 317 1203 301 1186 q 358 1219 333 1219 z "},"Ƥ":{"ha":789,"x_min":19,"x_max":739,"o":"m 399 951 q 739 667 739 951 q 649 444 739 515 q 397 372 560 372 l 296 372 l 296 0 l 215 0 l 215 885 l 183 885 q 92 797 92 885 q 121 692 92 747 l 65 663 q 31 727 43 696 q 19 800 19 758 q 62 910 19 868 q 186 951 104 951 l 399 951 m 397 439 q 590 490 525 439 q 654 665 654 542 q 592 833 654 782 q 400 885 529 885 l 296 885 l 296 439 l 397 439 z "},"Þ":{"ha":711,"x_min":136,"x_max":660,"o":"m 324 781 q 660 494 660 781 q 571 263 660 336 q 322 190 482 190 l 217 190 l 217 0 l 136 0 l 136 951 l 217 951 l 217 781 l 324 781 m 319 257 q 510 310 446 257 q 575 493 575 363 q 513 663 575 611 q 322 714 451 714 l 217 714 l 217 257 l 319 257 z "},"Q":{"ha":865,"x_min":82,"x_max":817,"o":"m 567 32 q 817 -64 717 29 l 763 -128 q 623 -37 696 -61 q 432 -12 550 -12 q 248 42 326 -12 q 126 206 169 97 q 82 474 82 315 q 126 743 82 632 q 249 910 169 854 q 433 967 328 967 q 690 841 596 967 q 783 475 783 715 q 726 179 783 283 q 567 32 669 75 m 167 474 q 238 158 167 261 q 433 54 310 54 q 631 157 561 54 q 700 475 700 260 q 630 794 700 690 q 433 897 560 897 q 238 793 308 897 q 167 474 167 689 z "},"Ɋ":{"ha":828,"x_min":82,"x_max":900,"o":"m 900 -237 q 768 -285 842 -285 q 653 -240 697 -285 q 610 -112 610 -196 l 610 75 q 407 -15 531 -15 q 240 36 314 -15 q 124 194 167 88 q 82 457 82 300 q 125 737 82 622 q 242 909 168 851 q 411 967 317 967 q 614 878 532 967 l 619 951 l 690 951 l 690 -115 q 713 -194 690 -169 q 772 -218 735 -218 q 822 -210 801 -218 q 865 -186 843 -201 l 900 -237 m 414 54 q 610 154 532 54 l 610 804 q 419 897 536 897 q 235 790 304 897 q 167 457 167 682 q 235 152 167 250 q 414 54 303 54 z "},"R":{"ha":739,"x_min":136,"x_max":699,"o":"m 607 0 l 386 429 l 364 428 l 217 428 l 217 0 l 136 0 l 136 951 l 332 951 q 654 693 654 951 q 605 533 654 596 q 464 444 556 469 l 699 0 l 607 0 m 342 494 q 513 543 456 494 q 569 693 569 592 q 514 838 569 790 q 329 885 458 885 l 217 885 l 217 494 l 342 494 z "},"Ŕ":{"ha":739,"x_min":136,"x_max":699,"o":"m 607 0 l 386 429 l 364 428 l 217 428 l 217 0 l 136 0 l 136 951 l 332 951 q 654 693 654 951 q 605 533 654 596 q 464 444 556 469 l 699 0 l 607 0 m 342 494 q 513 543 456 494 q 569 693 569 592 q 514 838 569 790 q 329 885 458 885 l 217 885 l 217 494 l 342 494 m 465 1229 l 500 1160 l 251 1053 l 229 1099 l 465 1229 z "},"Ř":{"ha":739,"x_min":136,"x_max":699,"o":"m 607 0 l 386 429 l 364 428 l 217 428 l 217 0 l 136 0 l 136 951 l 332 951 q 654 693 654 951 q 605 533 654 596 q 464 444 556 469 l 699 0 l 607 0 m 342 494 q 513 543 456 494 q 569 693 569 592 q 514 838 569 790 q 329 885 458 885 l 217 885 l 217 494 l 342 494 m 518 1231 l 550 1193 l 389 1050 l 340 1050 l 178 1193 l 211 1231 l 365 1118 l 518 1231 z "},"Ŗ":{"ha":739,"x_min":136,"x_max":699,"o":"m 607 0 l 386 429 l 364 428 l 217 428 l 217 0 l 136 0 l 136 951 l 332 951 q 654 693 654 951 q 605 533 654 596 q 464 444 556 469 l 699 0 l 607 0 m 342 494 q 513 543 456 494 q 569 693 569 592 q 514 838 569 790 q 329 885 458 885 l 217 885 l 217 494 l 342 494 m 383 -118 q 424 -135 408 -118 q 440 -176 440 -151 q 435 -209 440 -192 q 413 -267 429 -226 l 361 -386 l 315 -386 l 357 -228 q 325 -176 325 -210 q 341 -135 325 -151 q 383 -118 357 -118 z "},"Ȑ":{"ha":739,"x_min":136,"x_max":699,"o":"m 607 0 l 386 429 l 364 428 l 217 428 l 217 0 l 136 0 l 136 951 l 332 951 q 654 693 654 951 q 605 533 654 596 q 464 444 556 469 l 699 0 l 607 0 m 342 494 q 513 543 456 494 q 569 693 569 592 q 514 838 569 790 q 329 885 458 885 l 217 885 l 217 494 l 342 494 m 214 1299 l 313 1089 l 265 1068 l 147 1264 l 214 1299 m 378 1299 l 467 1096 l 418 1074 l 311 1264 l 378 1299 z "},"Ṛ":{"ha":739,"x_min":136,"x_max":699,"o":"m 607 0 l 386 429 l 364 428 l 217 428 l 217 0 l 136 0 l 136 951 l 332 951 q 654 693 654 951 q 605 533 654 596 q 464 444 556 469 l 699 0 l 607 0 m 342 494 q 513 543 456 494 q 569 693 569 592 q 514 838 569 790 q 329 885 458 885 l 217 885 l 217 494 l 342 494 m 385 -235 q 344 -218 360 -235 q 328 -178 328 -201 q 344 -137 328 -153 q 385 -121 360 -121 q 426 -137 410 -121 q 442 -178 442 -153 q 426 -218 442 -201 q 385 -235 410 -235 z "},"Ȓ":{"ha":739,"x_min":136,"x_max":699,"o":"m 607 0 l 386 429 l 364 428 l 217 428 l 217 0 l 136 0 l 136 951 l 332 951 q 654 693 654 951 q 605 533 654 596 q 464 444 556 469 l 699 0 l 607 0 m 342 494 q 513 543 456 494 q 569 693 569 592 q 514 838 569 790 q 329 885 458 885 l 217 885 l 217 494 l 342 494 m 364 1256 q 476 1215 431 1256 q 529 1103 521 1174 l 478 1092 q 364 1192 453 1192 q 251 1092 276 1192 l 200 1103 q 253 1215 208 1174 q 364 1256 297 1256 z "},"Ɍ":{"ha":744,"x_min":29,"x_max":704,"o":"m 613 0 l 392 429 l 369 428 l 222 428 l 222 0 l 142 0 l 142 428 l 29 428 l 29 494 l 142 494 l 142 951 l 338 951 q 660 693 660 951 q 610 533 660 596 q 469 444 561 469 l 704 0 l 613 0 m 347 494 q 518 543 461 494 q 575 693 575 592 q 519 838 575 790 q 335 885 464 885 l 222 885 l 222 494 l 347 494 z "},"Ɽ":{"ha":739,"x_min":136,"x_max":699,"o":"m 217 -115 q 239 -194 217 -169 q 299 -218 261 -218 q 349 -210 328 -218 q 392 -186 369 -201 l 426 -237 q 294 -285 368 -285 q 180 -240 224 -285 q 136 -112 136 -196 l 136 951 l 332 951 q 654 693 654 951 q 605 533 654 596 q 464 444 556 469 l 699 0 l 607 0 l 386 429 l 364 428 l 217 428 l 217 -115 m 217 885 l 217 494 l 342 494 q 513 543 456 494 q 569 693 569 592 q 514 838 569 790 q 329 885 458 885 l 217 885 z "},"S":{"ha":675,"x_min":46,"x_max":608,"o":"m 336 967 q 472 940 414 967 q 583 861 529 914 l 538 813 q 442 877 489 857 q 338 897 396 897 q 211 853 260 897 q 163 736 163 808 q 206 622 163 664 q 361 540 249 579 q 549 435 489 496 q 608 260 608 374 q 573 119 608 182 q 472 20 538 56 q 322 -15 407 -15 q 46 104 161 -15 l 92 151 q 197 78 144 103 q 321 54 250 54 q 469 109 413 54 q 526 257 526 164 q 508 351 526 314 q 446 417 489 389 q 325 474 403 446 q 138 578 194 519 q 81 733 81 638 q 113 852 81 799 q 204 936 146 906 q 336 967 263 967 z "},"Ś":{"ha":675,"x_min":46,"x_max":608,"o":"m 336 967 q 472 940 414 967 q 583 861 529 914 l 538 813 q 442 877 489 857 q 338 897 396 897 q 211 853 260 897 q 163 736 163 808 q 206 622 163 664 q 361 540 249 579 q 549 435 489 496 q 608 260 608 374 q 573 119 608 182 q 472 20 538 56 q 322 -15 407 -15 q 46 104 161 -15 l 92 151 q 197 78 144 103 q 321 54 250 54 q 469 109 413 54 q 526 257 526 164 q 508 351 526 314 q 446 417 489 389 q 325 474 403 446 q 138 578 194 519 q 81 733 81 638 q 113 852 81 799 q 204 936 146 906 q 336 967 263 967 m 440 1229 l 475 1160 l 226 1053 l 204 1099 l 440 1229 z "},"Ꞌ":{"ha":271,"x_min":92,"x_max":178,"o":"m 103 492 l 92 951 l 178 951 l 167 492 l 103 492 z "},"Š":{"ha":675,"x_min":46,"x_max":608,"o":"m 336 967 q 472 940 414 967 q 583 861 529 914 l 538 813 q 442 877 489 857 q 338 897 396 897 q 211 853 260 897 q 163 736 163 808 q 206 622 163 664 q 361 540 249 579 q 549 435 489 496 q 608 260 608 374 q 573 119 608 182 q 472 20 538 56 q 322 -15 407 -15 q 46 104 161 -15 l 92 151 q 197 78 144 103 q 321 54 250 54 q 469 109 413 54 q 526 257 526 164 q 508 351 526 314 q 446 417 489 389 q 325 474 403 446 q 138 578 194 519 q 81 733 81 638 q 113 852 81 799 q 204 936 146 906 q 336 967 263 967 m 493 1231 l 525 1193 l 364 1050 l 315 1050 l 153 1193 l 186 1231 l 340 1118 l 493 1231 z "},"Ş":{"ha":675,"x_min":46,"x_max":608,"o":"m 608 260 q 538 72 608 147 q 351 -14 468 -4 l 351 -90 q 439 -124 410 -96 q 468 -196 468 -151 q 430 -283 468 -251 q 333 -314 392 -314 q 232 -285 274 -314 l 258 -239 q 332 -258 294 -258 q 381 -242 363 -258 q 400 -196 400 -226 q 373 -149 400 -164 q 288 -133 346 -133 l 299 -15 q 46 104 151 -6 l 92 151 q 197 78 144 103 q 321 54 250 54 q 469 109 413 54 q 526 257 526 164 q 508 351 526 314 q 446 417 489 389 q 325 474 403 446 q 138 578 194 519 q 81 733 81 638 q 113 852 81 799 q 204 936 146 906 q 336 967 263 967 q 472 940 414 967 q 583 861 529 914 l 538 813 q 442 877 489 857 q 338 897 396 897 q 211 853 260 897 q 163 736 163 808 q 206 622 163 664 q 361 540 249 579 q 549 435 489 496 q 608 260 608 374 z "},"Ŝ":{"ha":675,"x_min":46,"x_max":608,"o":"m 336 967 q 472 940 414 967 q 583 861 529 914 l 538 813 q 442 877 489 857 q 338 897 396 897 q 211 853 260 897 q 163 736 163 808 q 206 622 163 664 q 361 540 249 579 q 549 435 489 496 q 608 260 608 374 q 573 119 608 182 q 472 20 538 56 q 322 -15 407 -15 q 46 104 161 -15 l 92 151 q 197 78 144 103 q 321 54 250 54 q 469 109 413 54 q 526 257 526 164 q 508 351 526 314 q 446 417 489 389 q 325 474 403 446 q 138 578 194 519 q 81 733 81 638 q 113 852 81 799 q 204 936 146 906 q 336 967 263 967 m 188 1060 l 153 1097 l 315 1239 l 364 1239 l 525 1097 l 492 1060 l 339 1171 l 188 1060 z "},"Ș":{"ha":675,"x_min":46,"x_max":608,"o":"m 336 967 q 472 940 414 967 q 583 861 529 914 l 538 813 q 442 877 489 857 q 338 897 396 897 q 211 853 260 897 q 163 736 163 808 q 206 622 163 664 q 361 540 249 579 q 549 435 489 496 q 608 260 608 374 q 573 119 608 182 q 472 20 538 56 q 322 -15 407 -15 q 46 104 161 -15 l 92 151 q 197 78 144 103 q 321 54 250 54 q 469 109 413 54 q 526 257 526 164 q 508 351 526 314 q 446 417 489 389 q 325 474 403 446 q 138 578 194 519 q 81 733 81 638 q 113 852 81 799 q 204 936 146 906 q 336 967 263 967 m 329 -118 q 370 -135 354 -118 q 386 -176 386 -151 q 381 -209 386 -192 q 358 -267 375 -226 l 307 -386 l 261 -386 l 303 -228 q 271 -176 271 -210 q 287 -135 271 -151 q 329 -118 303 -118 z "},"Ṡ":{"ha":675,"x_min":46,"x_max":608,"o":"m 336 967 q 472 940 414 967 q 583 861 529 914 l 538 813 q 442 877 489 857 q 338 897 396 897 q 211 853 260 897 q 163 736 163 808 q 206 622 163 664 q 361 540 249 579 q 549 435 489 496 q 608 260 608 374 q 573 119 608 182 q 472 20 538 56 q 322 -15 407 -15 q 46 104 161 -15 l 92 151 q 197 78 144 103 q 321 54 250 54 q 469 109 413 54 q 526 257 526 164 q 508 351 526 314 q 446 417 489 389 q 325 474 403 446 q 138 578 194 519 q 81 733 81 638 q 113 852 81 799 q 204 936 146 906 q 336 967 263 967 m 340 1219 q 381 1203 365 1219 q 397 1163 397 1186 q 381 1122 397 1138 q 340 1106 365 1106 q 299 1122 315 1106 q 283 1163 283 1138 q 299 1203 283 1186 q 340 1219 315 1219 z "},"Ṣ":{"ha":675,"x_min":46,"x_max":608,"o":"m 336 967 q 472 940 414 967 q 583 861 529 914 l 538 813 q 442 877 489 857 q 338 897 396 897 q 211 853 260 897 q 163 736 163 808 q 206 622 163 664 q 361 540 249 579 q 549 435 489 496 q 608 260 608 374 q 573 119 608 182 q 472 20 538 56 q 322 -15 407 -15 q 46 104 161 -15 l 92 151 q 197 78 144 103 q 321 54 250 54 q 469 109 413 54 q 526 257 526 164 q 508 351 526 314 q 446 417 489 389 q 325 474 403 446 q 138 578 194 519 q 81 733 81 638 q 113 852 81 799 q 204 936 146 906 q 336 967 263 967 m 331 -235 q 290 -218 306 -235 q 274 -178 274 -201 q 290 -137 274 -153 q 331 -121 306 -121 q 372 -137 356 -121 q 388 -178 388 -153 q 372 -218 388 -201 q 331 -235 356 -235 z "},"ẞ":{"ha":813,"x_min":136,"x_max":747,"o":"m 400 967 q 697 879 542 967 l 697 824 l 458 535 q 747 258 747 499 q 676 58 747 131 q 488 -15 606 -15 q 342 17 399 -15 l 368 75 q 482 54 419 54 q 616 106 568 54 q 664 257 664 158 q 595 416 664 364 q 382 478 526 468 l 382 544 l 624 843 q 515 883 568 869 q 401 897 461 897 q 265 847 313 897 q 217 696 217 796 l 217 0 l 136 0 l 136 700 q 206 896 136 825 q 400 967 275 967 z "},"Ə":{"ha":810,"x_min":68,"x_max":728,"o":"m 399 967 q 728 481 728 967 q 639 106 728 228 q 396 -15 550 -15 q 153 103 239 -15 q 68 461 68 222 q 71 518 68 476 l 644 518 q 576 810 639 722 q 394 897 513 897 q 273 874 328 897 q 164 803 218 851 l 121 853 q 249 939 182 911 q 399 967 315 967 m 396 53 q 646 451 635 53 l 149 451 q 396 53 150 53 z "},"T":{"ha":621,"x_min":18,"x_max":608,"o":"m 608 951 l 600 881 l 350 881 l 350 0 l 271 0 l 271 881 l 18 881 l 18 951 l 608 951 z "},"Ŧ":{"ha":621,"x_min":18,"x_max":608,"o":"m 600 879 l 350 879 l 350 533 l 506 533 l 506 469 l 350 469 l 350 -1 l 271 -1 l 271 469 l 117 469 l 117 533 l 271 533 l 271 879 l 18 879 l 18 950 l 608 950 l 600 879 z "},"Ť":{"ha":621,"x_min":18,"x_max":608,"o":"m 608 951 l 600 881 l 350 881 l 350 0 l 271 0 l 271 881 l 18 881 l 18 951 l 608 951 m 464 1231 l 496 1193 l 335 1050 l 286 1050 l 124 1193 l 157 1231 l 311 1118 l 464 1231 z "},"Ţ":{"ha":621,"x_min":18,"x_max":608,"o":"m 350 -90 q 439 -123 410 -96 q 468 -194 468 -150 q 429 -282 468 -250 q 332 -314 390 -314 q 232 -285 274 -314 l 257 -236 q 329 -258 292 -258 q 380 -242 360 -258 q 400 -194 400 -226 q 373 -149 400 -164 q 289 -133 346 -133 l 300 0 l 271 0 l 271 881 l 18 881 l 18 951 l 608 951 l 600 881 l 350 881 l 350 -90 z "},"Ṱ":{"ha":621,"x_min":18,"x_max":608,"o":"m 608 951 l 600 881 l 350 881 l 350 0 l 271 0 l 271 881 l 18 881 l 18 951 l 608 951 m 160 -282 l 125 -246 l 288 -97 l 335 -97 l 497 -246 l 464 -282 l 311 -165 l 160 -282 z "},"Ț":{"ha":621,"x_min":18,"x_max":608,"o":"m 608 951 l 600 881 l 350 881 l 350 0 l 271 0 l 271 881 l 18 881 l 18 951 l 608 951 m 310 -118 q 351 -135 335 -118 q 367 -176 367 -151 q 361 -209 367 -192 q 339 -267 356 -226 l 288 -386 l 242 -386 l 283 -228 q 251 -176 251 -210 q 267 -135 251 -151 q 310 -118 283 -118 z "},"Ⱦ":{"ha":621,"x_min":18,"x_max":608,"o":"m 600 881 l 465 881 l 349 497 l 349 0 l 271 0 l 271 242 l 168 -97 l 125 -83 l 271 394 l 271 881 l 18 881 l 18 951 l 440 951 l 467 1038 l 508 1024 l 486 951 l 608 951 l 600 881 m 349 650 l 419 881 l 349 881 l 349 650 z "},"Ṫ":{"ha":621,"x_min":18,"x_max":608,"o":"m 608 951 l 600 881 l 350 881 l 350 0 l 271 0 l 271 881 l 18 881 l 18 951 l 608 951 m 311 1219 q 352 1203 336 1219 q 368 1163 368 1186 q 352 1122 368 1138 q 311 1106 336 1106 q 270 1122 286 1106 q 254 1163 254 1138 q 270 1203 254 1186 q 311 1219 286 1219 z "},"Ṭ":{"ha":621,"x_min":18,"x_max":608,"o":"m 608 951 l 600 881 l 350 881 l 350 0 l 271 0 l 271 881 l 18 881 l 18 951 l 608 951 m 311 -235 q 270 -218 286 -235 q 254 -178 254 -201 q 270 -137 254 -153 q 311 -121 286 -121 q 352 -137 336 -121 q 368 -178 368 -153 q 352 -218 368 -201 q 311 -235 336 -235 z "},"Ƭ":{"ha":657,"x_min":19,"x_max":646,"o":"m 636 881 l 388 881 l 388 0 l 307 0 l 307 881 l 182 881 q 115 858 138 881 q 93 796 93 835 q 100 744 93 767 q 122 693 107 721 l 64 663 q 31 726 43 694 q 19 797 19 757 q 64 910 19 868 q 192 951 108 951 l 646 951 l 636 881 z "},"Ṯ":{"ha":621,"x_min":18,"x_max":608,"o":"m 608 951 l 600 881 l 350 881 l 350 0 l 271 0 l 271 881 l 18 881 l 18 951 l 608 951 m 464 -218 l 160 -218 l 160 -157 l 464 -157 l 464 -218 z "},"Ƽ":{"ha":625,"x_min":42,"x_max":561,"o":"m 521 886 l 172 886 l 172 553 q 324 599 243 599 q 497 522 432 599 q 561 304 561 444 q 486 72 561 160 q 285 -15 411 -15 q 151 13 210 -15 q 42 97 92 42 l 90 142 q 178 74 132 96 q 285 51 224 51 q 428 118 376 51 q 481 306 481 185 q 433 479 481 424 q 304 535 386 535 q 228 524 261 535 q 158 490 196 514 l 99 490 l 99 951 l 533 951 l 521 886 z "},"Ƅ":{"ha":704,"x_min":69,"x_max":660,"o":"m 342 586 q 577 515 494 586 q 660 301 660 443 q 576 74 660 147 q 340 0 492 0 l 136 0 l 136 765 l 69 813 q 146 951 119 867 l 217 951 l 217 586 l 342 586 m 349 68 q 517 122 458 68 q 575 301 575 176 q 517 467 575 415 q 344 519 458 519 l 217 519 l 217 68 l 349 68 z "},"Ƨ":{"ha":664,"x_min":65,"x_max":618,"o":"m 351 967 q 528 904 463 967 q 594 742 594 842 q 538 583 594 640 q 350 478 482 525 q 229 419 272 450 q 168 349 186 389 q 150 250 150 310 q 203 106 150 158 q 342 54 257 54 q 467 79 413 54 q 572 151 521 104 l 618 104 q 340 -15 501 -15 q 198 18 261 -15 q 100 112 135 51 q 65 250 65 172 q 126 428 65 365 q 314 538 186 490 q 433 592 392 565 q 493 653 475 618 q 511 742 511 688 q 468 856 511 815 q 349 897 425 897 q 238 878 286 897 q 138 813 189 858 l 93 861 q 212 941 153 915 q 351 967 271 967 z "},"Ʈ":{"ha":621,"x_min":18,"x_max":608,"o":"m 350 -115 q 372 -194 350 -169 q 432 -218 394 -218 q 482 -210 461 -218 q 525 -186 503 -201 l 560 -237 q 428 -285 501 -285 q 313 -240 357 -285 q 269 -112 269 -196 l 269 1 l 271 1 l 271 881 l 18 881 l 18 951 l 608 951 l 600 881 l 350 881 l 350 -115 z "},"U":{"ha":813,"x_min":122,"x_max":689,"o":"m 689 269 q 616 64 689 143 q 406 -15 543 -15 q 194 64 267 -15 q 122 269 122 143 l 122 951 l 203 951 l 203 276 q 253 113 203 171 q 406 56 303 56 q 559 114 510 56 q 608 276 608 172 l 608 951 l 689 951 l 689 269 z "},"Ú":{"ha":813,"x_min":122,"x_max":689,"o":"m 689 269 q 616 64 689 143 q 406 -15 543 -15 q 194 64 267 -15 q 122 269 122 143 l 122 951 l 203 951 l 203 276 q 253 113 203 171 q 406 56 303 56 q 559 114 510 56 q 608 276 608 172 l 608 951 l 689 951 l 689 269 m 506 1229 l 540 1160 l 292 1053 l 269 1099 l 506 1229 z "},"Ʉ":{"ha":843,"x_min":57,"x_max":786,"o":"m 786 714 l 704 714 l 704 269 q 631 64 704 143 q 421 -15 558 -15 q 210 64 282 -15 q 138 269 138 143 l 138 714 l 57 714 l 57 774 l 138 774 l 138 951 l 218 951 l 218 774 l 624 774 l 624 951 l 704 951 l 704 774 l 786 774 l 786 714 m 624 714 l 218 714 l 218 276 q 268 113 218 171 q 421 56 318 56 q 574 114 525 56 q 624 276 624 172 l 624 714 z "},"Ŭ":{"ha":813,"x_min":122,"x_max":689,"o":"m 689 269 q 616 64 689 143 q 406 -15 543 -15 q 194 64 267 -15 q 122 269 122 143 l 122 951 l 203 951 l 203 276 q 253 113 203 171 q 406 56 303 56 q 559 114 510 56 q 608 276 608 172 l 608 951 l 689 951 l 689 269 m 404 1063 q 294 1101 339 1063 q 240 1200 249 1139 l 292 1213 q 332 1149 303 1172 q 404 1126 361 1126 q 477 1149 447 1126 q 518 1213 507 1172 l 569 1200 q 516 1101 561 1139 q 404 1063 471 1063 z "},"Ǔ":{"ha":813,"x_min":122,"x_max":689,"o":"m 689 269 q 616 64 689 143 q 406 -15 543 -15 q 194 64 267 -15 q 122 269 122 143 l 122 951 l 203 951 l 203 276 q 253 113 203 171 q 406 56 303 56 q 559 114 510 56 q 608 276 608 172 l 608 951 l 689 951 l 689 269 m 558 1231 l 590 1193 l 429 1050 l 381 1050 l 218 1193 l 251 1231 l 406 1118 l 558 1231 z "},"Û":{"ha":813,"x_min":122,"x_max":689,"o":"m 689 269 q 616 64 689 143 q 406 -15 543 -15 q 194 64 267 -15 q 122 269 122 143 l 122 951 l 203 951 l 203 276 q 253 113 203 171 q 406 56 303 56 q 559 114 510 56 q 608 276 608 172 l 608 951 l 689 951 l 689 269 m 253 1060 l 218 1097 l 381 1239 l 429 1239 l 590 1097 l 557 1060 l 404 1171 l 253 1060 z "},"Ȕ":{"ha":813,"x_min":122,"x_max":689,"o":"m 689 269 q 616 64 689 143 q 406 -15 543 -15 q 194 64 267 -15 q 122 269 122 143 l 122 951 l 203 951 l 203 276 q 253 113 203 171 q 406 56 303 56 q 559 114 510 56 q 608 276 608 172 l 608 951 l 689 951 l 689 269 m 254 1299 l 353 1089 l 306 1068 l 188 1264 l 254 1299 m 418 1299 l 507 1096 l 458 1074 l 351 1264 l 418 1299 z "},"Ü":{"ha":813,"x_min":122,"x_max":689,"o":"m 689 269 q 616 64 689 143 q 406 -15 543 -15 q 194 64 267 -15 q 122 269 122 143 l 122 951 l 203 951 l 203 276 q 253 113 203 171 q 406 56 303 56 q 559 114 510 56 q 608 276 608 172 l 608 951 l 689 951 l 689 269 m 290 1203 q 328 1188 314 1203 q 343 1150 343 1172 q 328 1111 343 1126 q 290 1096 314 1096 q 253 1111 268 1096 q 238 1150 238 1126 q 253 1188 238 1172 q 290 1203 268 1203 m 529 1203 q 567 1188 551 1203 q 582 1150 582 1172 q 567 1111 582 1126 q 529 1096 551 1096 q 490 1111 506 1096 q 475 1150 475 1126 q 490 1188 475 1172 q 529 1203 506 1203 z "},"Ǘ":{"ha":813,"x_min":122,"x_max":689,"o":"m 689 269 q 616 64 689 143 q 406 -15 543 -15 q 194 64 267 -15 q 122 269 122 143 l 122 951 l 203 951 l 203 276 q 253 113 203 171 q 406 56 303 56 q 559 114 510 56 q 608 276 608 172 l 608 951 l 689 951 l 689 269 m 507 1344 l 561 1299 l 406 1129 l 369 1161 l 507 1344 m 286 1140 q 324 1125 310 1140 q 339 1086 339 1110 q 324 1049 339 1064 q 286 1033 310 1033 q 249 1049 264 1033 q 233 1086 233 1064 q 249 1125 233 1110 q 286 1140 264 1140 m 525 1140 q 563 1125 547 1140 q 578 1086 578 1110 q 563 1049 578 1064 q 525 1033 547 1033 q 486 1049 501 1033 q 471 1086 471 1064 q 486 1125 471 1110 q 525 1140 501 1140 z "},"Ǚ":{"ha":813,"x_min":122,"x_max":689,"o":"m 689 269 q 616 64 689 143 q 406 -15 543 -15 q 194 64 267 -15 q 122 269 122 143 l 122 951 l 203 951 l 203 276 q 253 113 203 171 q 406 56 303 56 q 559 114 510 56 q 608 276 608 172 l 608 951 l 689 951 l 689 269 m 556 1329 l 588 1292 l 426 1149 l 378 1149 l 215 1292 l 249 1329 l 403 1217 l 556 1329 m 286 1140 q 324 1125 310 1140 q 339 1086 339 1110 q 324 1049 339 1064 q 286 1033 310 1033 q 249 1049 264 1033 q 233 1086 233 1064 q 249 1125 233 1110 q 286 1140 264 1140 m 525 1140 q 563 1125 547 1140 q 578 1086 578 1110 q 563 1049 578 1064 q 525 1033 547 1033 q 488 1049 503 1033 q 472 1086 472 1064 q 488 1125 472 1110 q 525 1140 503 1140 z "},"Ǜ":{"ha":813,"x_min":122,"x_max":689,"o":"m 689 269 q 616 64 689 143 q 406 -15 543 -15 q 194 64 267 -15 q 122 269 122 143 l 122 951 l 203 951 l 203 276 q 253 113 203 171 q 406 56 303 56 q 559 114 510 56 q 608 276 608 172 l 608 951 l 689 951 l 689 269 m 314 1344 l 451 1161 l 415 1129 l 260 1299 l 314 1344 m 286 1140 q 324 1125 310 1140 q 339 1086 339 1110 q 324 1049 339 1064 q 286 1033 310 1033 q 249 1049 264 1033 q 233 1086 233 1064 q 249 1125 233 1110 q 286 1140 264 1140 m 525 1140 q 563 1125 547 1140 q 578 1086 578 1110 q 563 1049 578 1064 q 525 1033 547 1033 q 486 1049 501 1033 q 471 1086 471 1064 q 486 1125 471 1110 q 525 1140 501 1140 z "},"Ǖ":{"ha":813,"x_min":122,"x_max":689,"o":"m 689 269 q 616 64 689 143 q 406 -15 543 -15 q 194 64 267 -15 q 122 269 122 143 l 122 951 l 203 951 l 203 276 q 253 113 203 171 q 406 56 303 56 q 559 114 510 56 q 608 276 608 172 l 608 951 l 689 951 l 689 269 m 286 1139 q 324 1124 310 1139 q 339 1086 339 1108 q 324 1047 339 1063 q 286 1032 310 1032 q 249 1047 264 1032 q 233 1086 233 1063 q 249 1124 233 1108 q 286 1139 264 1139 m 525 1139 q 563 1124 547 1139 q 578 1086 578 1108 q 563 1047 578 1063 q 525 1032 547 1032 q 486 1047 501 1032 q 471 1086 471 1063 q 486 1124 471 1108 q 525 1139 501 1139 m 560 1219 l 256 1219 l 256 1281 l 560 1281 l 560 1219 z "},"Ụ":{"ha":813,"x_min":122,"x_max":689,"o":"m 689 269 q 616 64 689 143 q 406 -15 543 -15 q 194 64 267 -15 q 122 269 122 143 l 122 951 l 203 951 l 203 276 q 253 113 203 171 q 406 56 303 56 q 559 114 510 56 q 608 276 608 172 l 608 951 l 689 951 l 689 269 m 406 -235 q 365 -218 381 -235 q 349 -178 349 -201 q 365 -137 349 -153 q 406 -121 381 -121 q 447 -137 431 -121 q 463 -178 463 -153 q 447 -218 463 -201 q 406 -235 431 -235 z "},"Ù":{"ha":813,"x_min":122,"x_max":689,"o":"m 689 269 q 616 64 689 143 q 406 -15 543 -15 q 194 64 267 -15 q 122 269 122 143 l 122 951 l 203 951 l 203 276 q 253 113 203 171 q 406 56 303 56 q 559 114 510 56 q 608 276 608 172 l 608 951 l 689 951 l 689 269 m 301 1229 l 536 1097 l 514 1053 l 265 1160 l 301 1229 z "},"Ủ":{"ha":813,"x_min":122,"x_max":689,"o":"m 689 269 q 616 64 689 143 q 406 -15 543 -15 q 194 64 267 -15 q 122 269 122 143 l 122 951 l 203 951 l 203 276 q 253 113 203 171 q 406 56 303 56 q 559 114 510 56 q 608 276 608 172 l 608 951 l 689 951 l 689 269 m 374 1176 q 439 1194 417 1179 q 461 1242 461 1208 q 445 1284 461 1269 q 401 1299 429 1299 q 331 1279 367 1299 l 310 1326 q 413 1356 354 1356 q 498 1326 467 1356 q 529 1246 529 1296 q 505 1174 529 1200 q 436 1140 481 1147 l 436 1076 l 374 1076 l 374 1176 z "},"Ư":{"ha":825,"x_min":122,"x_max":818,"o":"m 818 954 q 689 825 818 833 l 689 269 q 616 64 689 143 q 406 -15 543 -15 q 194 64 267 -15 q 122 269 122 143 l 122 951 l 203 951 l 203 276 q 253 113 203 171 q 406 56 303 56 q 559 114 510 56 q 608 276 608 172 l 608 951 l 689 951 l 689 874 q 739 899 724 881 q 754 953 754 918 q 749 1004 754 982 q 736 1053 744 1026 l 794 1069 q 818 954 818 1017 z "},"Ứ":{"ha":825,"x_min":122,"x_max":818,"o":"m 540 1160 l 292 1053 l 269 1099 l 506 1229 l 540 1160 m 818 954 q 689 825 818 833 l 689 269 q 616 64 689 143 q 406 -15 543 -15 q 194 64 267 -15 q 122 269 122 143 l 122 951 l 203 951 l 203 276 q 253 113 203 171 q 406 56 303 56 q 559 114 510 56 q 608 276 608 172 l 608 951 l 689 951 l 689 874 q 739 899 724 881 q 754 953 754 918 q 749 1004 754 982 q 736 1053 744 1026 l 794 1069 q 818 954 818 1017 z "},"Ự":{"ha":825,"x_min":122,"x_max":818,"o":"m 818 954 q 689 825 818 833 l 689 269 q 616 64 689 143 q 406 -15 543 -15 q 194 64 267 -15 q 122 269 122 143 l 122 951 l 203 951 l 203 276 q 253 113 203 171 q 406 56 303 56 q 559 114 510 56 q 608 276 608 172 l 608 951 l 689 951 l 689 874 q 739 899 724 881 q 754 953 754 918 q 749 1004 754 982 q 736 1053 744 1026 l 794 1069 q 818 954 818 1017 m 406 -121 q 447 -137 431 -121 q 463 -178 463 -153 q 447 -218 463 -201 q 406 -235 431 -235 q 365 -218 381 -235 q 349 -178 349 -201 q 365 -137 349 -153 q 406 -121 381 -121 z "},"Ừ":{"ha":825,"x_min":122,"x_max":818,"o":"m 536 1097 l 514 1053 l 265 1160 l 301 1229 l 536 1097 m 818 954 q 689 825 818 833 l 689 269 q 616 64 689 143 q 406 -15 543 -15 q 194 64 267 -15 q 122 269 122 143 l 122 951 l 203 951 l 203 276 q 253 113 203 171 q 406 56 303 56 q 559 114 510 56 q 608 276 608 172 l 608 951 l 689 951 l 689 874 q 739 899 724 881 q 754 953 754 918 q 749 1004 754 982 q 736 1053 744 1026 l 794 1069 q 818 954 818 1017 z "},"Ử":{"ha":825,"x_min":122,"x_max":818,"o":"m 401 1299 q 331 1279 367 1299 l 310 1326 q 413 1356 354 1356 q 498 1326 467 1356 q 529 1246 529 1296 q 505 1174 529 1200 q 436 1140 481 1147 l 436 1076 l 374 1076 l 374 1176 q 439 1194 417 1179 q 461 1242 461 1208 q 445 1284 461 1269 q 401 1299 429 1299 m 818 954 q 689 825 818 833 l 689 269 q 616 64 689 143 q 406 -15 543 -15 q 194 64 267 -15 q 122 269 122 143 l 122 951 l 203 951 l 203 276 q 253 113 203 171 q 406 56 303 56 q 559 114 510 56 q 608 276 608 172 l 608 951 l 689 951 l 689 874 q 739 899 724 881 q 754 953 754 918 q 749 1004 754 982 q 736 1053 744 1026 l 794 1069 q 818 954 818 1017 z "},"Ữ":{"ha":825,"x_min":122,"x_max":818,"o":"m 332 1164 q 295 1151 311 1164 q 261 1110 279 1139 l 215 1133 q 331 1225 261 1225 q 372 1216 353 1225 q 413 1192 390 1207 q 449 1170 436 1176 q 478 1164 463 1164 q 513 1178 497 1164 q 549 1224 529 1192 l 594 1200 q 479 1103 551 1103 q 437 1112 456 1103 q 390 1138 418 1121 q 332 1164 353 1164 m 818 954 q 689 825 818 833 l 689 269 q 616 64 689 143 q 406 -15 543 -15 q 194 64 267 -15 q 122 269 122 143 l 122 951 l 203 951 l 203 276 q 253 113 203 171 q 406 56 303 56 q 559 114 510 56 q 608 276 608 172 l 608 951 l 689 951 l 689 874 q 739 899 724 881 q 754 953 754 918 q 749 1004 754 982 q 736 1053 744 1026 l 794 1069 q 818 954 818 1017 z "},"Ű":{"ha":813,"x_min":122,"x_max":689,"o":"m 689 269 q 616 64 689 143 q 406 -15 543 -15 q 194 64 267 -15 q 122 269 122 143 l 122 951 l 203 951 l 203 276 q 253 113 203 171 q 406 56 303 56 q 559 114 510 56 q 608 276 608 172 l 608 951 l 689 951 l 689 269 m 379 1299 l 446 1264 l 339 1074 l 290 1096 l 379 1299 m 543 1299 l 610 1264 l 493 1068 l 444 1089 l 543 1299 z "},"Ȗ":{"ha":813,"x_min":122,"x_max":689,"o":"m 689 269 q 616 64 689 143 q 406 -15 543 -15 q 194 64 267 -15 q 122 269 122 143 l 122 951 l 203 951 l 203 276 q 253 113 203 171 q 406 56 303 56 q 559 114 510 56 q 608 276 608 172 l 608 951 l 689 951 l 689 269 m 404 1256 q 516 1215 471 1256 q 569 1103 561 1174 l 518 1092 q 404 1192 493 1192 q 292 1092 317 1192 l 240 1103 q 293 1215 249 1174 q 404 1256 338 1256 z "},"Ū":{"ha":813,"x_min":122,"x_max":689,"o":"m 689 269 q 616 64 689 143 q 406 -15 543 -15 q 194 64 267 -15 q 122 269 122 143 l 122 951 l 203 951 l 203 276 q 253 113 203 171 q 406 56 303 56 q 559 114 510 56 q 608 276 608 172 l 608 951 l 689 951 l 689 269 m 558 1115 l 254 1115 l 254 1176 l 558 1176 l 558 1115 z "},"Ų":{"ha":813,"x_min":122,"x_max":689,"o":"m 689 951 l 689 269 q 642 96 689 168 q 503 -3 594 24 q 390 -79 424 -43 q 357 -164 357 -115 q 376 -217 357 -199 q 436 -236 396 -236 q 507 -228 465 -236 l 500 -292 q 426 -301 457 -301 q 323 -266 360 -301 q 286 -175 286 -231 q 404 -15 286 -75 q 194 64 267 -15 q 122 269 122 143 l 122 951 l 203 951 l 203 276 q 253 113 203 171 q 406 56 303 56 q 559 114 510 56 q 608 276 608 172 l 608 951 l 689 951 z "},"Ʊ":{"ha":864,"x_min":81,"x_max":783,"o":"m 432 -15 q 246 37 325 -15 q 124 190 167 89 q 81 435 81 292 q 127 708 81 604 q 251 882 174 811 l 108 882 l 108 951 l 342 951 l 342 883 q 211 711 257 817 q 165 435 165 606 q 236 149 165 244 q 432 54 307 54 q 627 150 556 54 q 699 436 699 246 q 652 710 699 604 q 522 883 606 815 l 522 951 l 757 951 l 757 882 l 613 882 q 738 712 692 815 q 783 436 783 608 q 740 192 783 294 q 617 38 696 90 q 432 -15 538 -15 z "},"Ů":{"ha":813,"x_min":122,"x_max":689,"o":"m 689 269 q 616 64 689 143 q 406 -15 543 -15 q 194 64 267 -15 q 122 269 122 143 l 122 951 l 203 951 l 203 276 q 253 113 203 171 q 406 56 303 56 q 559 114 510 56 q 608 276 608 172 l 608 951 l 689 951 l 689 269 m 406 1314 q 497 1278 463 1314 q 532 1185 532 1243 q 497 1090 532 1125 q 406 1054 463 1054 q 315 1090 350 1054 q 281 1185 281 1125 q 315 1278 281 1243 q 406 1314 350 1314 m 406 1267 q 338 1185 338 1267 q 406 1101 338 1101 q 457 1122 439 1101 q 475 1185 475 1143 q 406 1267 475 1267 z "},"Ũ":{"ha":813,"x_min":122,"x_max":689,"o":"m 689 269 q 616 64 689 143 q 406 -15 543 -15 q 194 64 267 -15 q 122 269 122 143 l 122 951 l 203 951 l 203 276 q 253 113 203 171 q 406 56 303 56 q 559 114 510 56 q 608 276 608 172 l 608 951 l 689 951 l 689 269 m 479 1103 q 437 1112 456 1103 q 390 1138 418 1121 q 332 1164 353 1164 q 295 1151 311 1164 q 261 1110 279 1139 l 215 1133 q 331 1225 261 1225 q 372 1216 353 1225 q 413 1192 390 1207 q 449 1170 436 1176 q 478 1164 463 1164 q 513 1178 497 1164 q 549 1224 529 1192 l 594 1200 q 479 1103 551 1103 z "},"Ṹ":{"ha":813,"x_min":122,"x_max":689,"o":"m 689 269 q 616 64 689 143 q 406 -15 543 -15 q 194 64 267 -15 q 122 269 122 143 l 122 951 l 203 951 l 203 276 q 253 113 203 171 q 406 56 303 56 q 559 114 510 56 q 608 276 608 172 l 608 951 l 689 951 l 689 269 m 481 1053 q 438 1062 457 1053 q 392 1088 419 1071 q 333 1114 354 1114 q 297 1101 313 1114 q 263 1060 281 1089 l 217 1083 q 332 1175 263 1175 q 373 1166 354 1175 q 414 1142 392 1157 q 451 1120 438 1126 q 479 1114 464 1114 q 515 1128 499 1114 q 550 1174 531 1142 l 596 1150 q 481 1053 553 1053 m 507 1394 l 542 1325 l 293 1218 l 271 1264 l 507 1394 z "},"V":{"ha":693,"x_min":24,"x_max":669,"o":"m 669 951 l 393 0 l 301 0 l 24 951 l 107 951 l 349 83 l 589 951 l 669 951 z "},"Ʋ":{"ha":813,"x_min":122,"x_max":689,"o":"m 564 967 q 656 931 624 967 q 689 825 689 894 l 689 385 q 649 169 689 260 q 540 32 610 79 q 378 -15 469 -15 q 192 57 261 -15 q 122 246 122 129 l 122 951 l 203 951 l 203 250 q 249 106 203 157 q 378 56 296 56 q 546 142 483 56 q 608 389 608 228 l 608 825 q 595 882 608 864 q 553 900 582 900 q 503 889 525 900 l 481 944 q 564 967 519 967 z "},"Ʌ":{"ha":717,"x_min":24,"x_max":693,"o":"m 408 951 l 693 0 l 610 0 l 357 885 l 104 0 l 24 0 l 308 951 l 408 951 z "},"W":{"ha":1021,"x_min":40,"x_max":981,"o":"m 981 951 l 794 0 l 692 0 l 510 861 l 326 0 l 226 0 l 40 951 l 119 951 l 281 75 l 464 951 l 556 951 l 743 75 l 904 951 l 981 951 z "},"Ẃ":{"ha":1021,"x_min":40,"x_max":981,"o":"m 981 951 l 794 0 l 692 0 l 510 861 l 326 0 l 226 0 l 40 951 l 119 951 l 281 75 l 464 951 l 556 951 l 743 75 l 904 951 l 981 951 m 610 1229 l 644 1160 l 396 1053 l 374 1099 l 610 1229 z "},"Ŵ":{"ha":1021,"x_min":40,"x_max":981,"o":"m 981 951 l 794 0 l 692 0 l 510 861 l 326 0 l 226 0 l 40 951 l 119 951 l 281 75 l 464 951 l 556 951 l 743 75 l 904 951 l 981 951 m 357 1060 l 322 1097 l 485 1239 l 533 1239 l 694 1097 l 661 1060 l 508 1171 l 357 1060 z "},"Ẅ":{"ha":1021,"x_min":40,"x_max":981,"o":"m 981 951 l 794 0 l 692 0 l 510 861 l 326 0 l 226 0 l 40 951 l 119 951 l 281 75 l 464 951 l 556 951 l 743 75 l 904 951 l 981 951 m 394 1203 q 433 1188 418 1203 q 447 1150 447 1172 q 433 1111 447 1126 q 394 1096 418 1096 q 357 1111 372 1096 q 342 1150 342 1126 q 357 1188 342 1172 q 394 1203 372 1203 m 633 1203 q 671 1188 656 1203 q 686 1150 686 1172 q 671 1111 686 1126 q 633 1096 656 1096 q 594 1111 610 1096 q 579 1150 579 1126 q 594 1188 579 1172 q 633 1203 610 1203 z "},"Ẁ":{"ha":1021,"x_min":40,"x_max":981,"o":"m 981 951 l 794 0 l 692 0 l 510 861 l 326 0 l 226 0 l 40 951 l 119 951 l 281 75 l 464 951 l 556 951 l 743 75 l 904 951 l 981 951 m 406 1229 l 640 1097 l 618 1053 l 369 1160 l 406 1229 z "},"Ⱳ":{"ha":1067,"x_min":40,"x_max":1139,"o":"m 226 0 l 326 0 l 510 861 l 692 0 l 794 0 l 944 814 q 972 884 953 865 q 1026 903 992 903 q 1067 894 1050 903 q 1106 869 1085 886 l 1139 915 q 1085 953 1113 939 q 1021 967 1057 967 q 876 826 900 967 l 743 74 l 556 951 l 464 951 l 281 74 l 119 951 l 40 951 l 226 0 z "},"Ƿ":{"ha":711,"x_min":136,"x_max":660,"o":"m 428 967 q 595 899 531 967 q 660 714 660 831 q 618 547 660 615 q 508 432 576 478 q 339 344 439 386 l 217 294 l 217 0 l 136 0 l 136 951 l 217 951 l 217 876 q 428 967 313 967 m 336 414 q 513 531 450 463 q 575 714 575 600 q 533 850 575 803 q 415 897 490 897 q 217 808 303 897 l 217 364 l 336 414 z "},"X":{"ha":644,"x_min":13,"x_max":633,"o":"m 367 515 l 633 0 l 546 0 l 319 460 l 96 0 l 13 0 l 271 511 l 38 951 l 125 951 l 319 563 l 515 951 l 599 951 l 367 515 z "},"Y":{"ha":657,"x_min":15,"x_max":642,"o":"m 642 951 l 369 372 l 369 0 l 289 0 l 289 371 l 15 951 l 103 951 l 332 444 l 557 951 l 642 951 z "},"Ý":{"ha":657,"x_min":15,"x_max":642,"o":"m 642 951 l 369 372 l 369 0 l 289 0 l 289 371 l 15 951 l 103 951 l 332 444 l 557 951 l 642 951 m 428 1229 l 463 1160 l 214 1053 l 192 1099 l 428 1229 z "},"Ŷ":{"ha":657,"x_min":15,"x_max":642,"o":"m 642 951 l 369 372 l 369 0 l 289 0 l 289 371 l 15 951 l 103 951 l 332 444 l 557 951 l 642 951 m 175 1060 l 140 1097 l 303 1239 l 351 1239 l 513 1097 l 479 1060 l 326 1171 l 175 1060 z "},"Ÿ":{"ha":657,"x_min":15,"x_max":642,"o":"m 642 951 l 369 372 l 369 0 l 289 0 l 289 371 l 15 951 l 103 951 l 332 444 l 557 951 l 642 951 m 213 1203 q 251 1188 236 1203 q 265 1150 265 1172 q 251 1111 265 1126 q 213 1096 236 1096 q 175 1111 190 1096 q 160 1150 160 1126 q 175 1188 160 1172 q 213 1203 190 1203 m 451 1203 q 489 1188 474 1203 q 504 1150 504 1172 q 489 1111 504 1126 q 451 1096 474 1096 q 413 1111 428 1096 q 397 1150 397 1126 q 413 1188 397 1172 q 451 1203 428 1203 z "},"Ỵ":{"ha":657,"x_min":15,"x_max":642,"o":"m 642 951 l 369 372 l 369 0 l 289 0 l 289 371 l 15 951 l 103 951 l 332 444 l 557 951 l 642 951 m 331 -235 q 290 -218 306 -235 q 274 -178 274 -201 q 290 -137 274 -153 q 331 -121 306 -121 q 372 -137 356 -121 q 388 -178 388 -153 q 372 -218 388 -201 q 331 -235 356 -235 z "},"Ỳ":{"ha":657,"x_min":15,"x_max":642,"o":"m 642 951 l 369 372 l 369 0 l 289 0 l 289 371 l 15 951 l 103 951 l 332 444 l 557 951 l 642 951 m 224 1229 l 458 1097 l 436 1053 l 188 1160 l 224 1229 z "},"Ƴ":{"ha":688,"x_min":15,"x_max":760,"o":"m 289 371 l 15 951 l 103 951 l 331 443 l 493 844 q 554 938 519 908 q 642 967 589 967 q 706 953 678 967 q 760 915 733 939 l 726 869 q 688 894 706 886 q 647 903 671 903 q 599 885 617 903 q 558 818 581 867 l 369 372 l 369 0 l 289 0 l 289 371 z "},"Ỷ":{"ha":657,"x_min":15,"x_max":642,"o":"m 642 951 l 369 372 l 369 0 l 289 0 l 289 371 l 15 951 l 103 951 l 332 444 l 557 951 l 642 951 m 296 1176 q 361 1194 339 1179 q 383 1242 383 1208 q 367 1284 383 1269 q 324 1299 351 1299 q 253 1279 289 1299 l 232 1326 q 335 1356 276 1356 q 420 1326 389 1356 q 451 1246 451 1296 q 427 1174 451 1200 q 358 1140 403 1147 l 358 1076 l 296 1076 l 296 1176 z "},"Ȳ":{"ha":657,"x_min":15,"x_max":642,"o":"m 642 951 l 369 372 l 369 0 l 289 0 l 289 371 l 15 951 l 103 951 l 332 444 l 557 951 l 642 951 m 481 1115 l 176 1115 l 176 1176 l 481 1176 l 481 1115 z "},"Ʀ":{"ha":740,"x_min":136,"x_max":700,"o":"m 608 -175 l 386 254 l 364 253 l 217 253 l 217 0 l 136 0 l 136 951 l 217 951 l 217 776 l 333 776 q 576 710 497 776 q 656 518 656 643 q 606 356 656 419 q 464 268 557 293 l 700 -175 l 608 -175 m 343 318 q 513 367 457 318 q 569 518 569 415 q 515 663 569 615 q 331 710 460 710 l 217 708 l 217 318 l 343 318 z "},"Ɏ":{"ha":657,"x_min":15,"x_max":642,"o":"m 642 951 l 582 825 l 642 825 l 642 765 l 554 765 l 369 372 l 369 0 l 289 0 l 289 371 l 103 765 l 18 765 l 18 825 l 75 825 l 15 951 l 103 951 l 160 825 l 501 825 l 557 951 l 642 951 m 332 443 l 475 765 l 186 765 l 332 443 z "},"Ỹ":{"ha":657,"x_min":15,"x_max":642,"o":"m 642 951 l 369 372 l 369 0 l 289 0 l 289 371 l 15 951 l 103 951 l 332 444 l 557 951 l 642 951 m 401 1103 q 359 1112 378 1103 q 313 1138 340 1121 q 254 1164 275 1164 q 217 1151 233 1164 q 183 1110 201 1139 l 138 1133 q 253 1225 183 1225 q 294 1216 275 1225 q 335 1192 313 1207 q 372 1170 358 1176 q 400 1164 385 1164 q 435 1178 419 1164 q 471 1224 451 1192 l 517 1200 q 401 1103 474 1103 z "},"Z":{"ha":644,"x_min":43,"x_max":588,"o":"m 588 951 l 588 885 l 131 71 l 581 71 l 571 0 l 43 0 l 43 67 l 501 882 l 89 882 l 89 951 l 588 951 z "},"Ź":{"ha":644,"x_min":43,"x_max":588,"o":"m 588 951 l 588 885 l 131 71 l 581 71 l 571 0 l 43 0 l 43 67 l 501 882 l 89 882 l 89 951 l 588 951 m 429 1229 l 464 1160 l 215 1053 l 193 1099 l 429 1229 z "},"Ž":{"ha":644,"x_min":43,"x_max":588,"o":"m 588 951 l 588 885 l 131 71 l 581 71 l 571 0 l 43 0 l 43 67 l 501 882 l 89 882 l 89 951 l 588 951 m 482 1231 l 514 1193 l 353 1050 l 304 1050 l 142 1193 l 175 1231 l 329 1118 l 482 1231 z "},"Ż":{"ha":644,"x_min":43,"x_max":588,"o":"m 588 951 l 588 885 l 131 71 l 581 71 l 571 0 l 43 0 l 43 67 l 501 882 l 89 882 l 89 951 l 588 951 m 329 1219 q 370 1203 354 1219 q 386 1163 386 1186 q 370 1122 386 1138 q 329 1106 354 1106 q 288 1122 304 1106 q 272 1163 272 1138 q 288 1203 272 1186 q 329 1219 304 1219 z "},"Ẓ":{"ha":644,"x_min":43,"x_max":588,"o":"m 588 951 l 588 885 l 131 71 l 581 71 l 571 0 l 43 0 l 43 67 l 501 882 l 89 882 l 89 951 l 588 951 m 324 -235 q 283 -218 299 -235 q 267 -178 267 -201 q 283 -137 267 -153 q 324 -121 299 -121 q 365 -137 349 -121 q 381 -178 381 -153 q 365 -218 381 -201 q 324 -235 349 -235 z "},"Ȥ":{"ha":644,"x_min":43,"x_max":588,"o":"m 588 885 l 131 71 l 575 71 l 575 -112 q 531 -240 575 -196 q 417 -285 488 -285 q 286 -237 342 -285 l 321 -186 q 365 -210 344 -201 q 414 -218 386 -218 q 497 -115 497 -218 l 497 0 l 43 0 l 43 67 l 501 882 l 89 882 l 89 951 l 588 951 l 588 885 z "},"Ƶ":{"ha":644,"x_min":43,"x_max":588,"o":"m 588 951 l 588 885 l 378 511 l 511 511 l 511 446 l 340 446 l 129 71 l 581 71 l 571 0 l 43 0 l 43 67 l 257 446 l 131 446 l 131 511 l 293 511 l 503 882 l 89 882 l 89 951 l 588 951 z "},"ʙ":{"ha":689,"x_min":131,"x_max":610,"o":"m 444 394 q 567 342 524 386 q 610 217 610 297 q 538 54 610 108 q 343 0 465 0 l 131 0 l 131 719 q 333 742 258 742 q 510 690 447 742 q 574 551 574 639 q 444 394 574 424 m 335 678 q 208 668 279 678 l 208 418 l 358 418 q 460 451 424 418 q 496 549 496 483 q 456 644 496 611 q 335 678 415 678 m 342 64 q 529 217 529 64 q 489 324 529 290 q 367 357 449 357 l 208 357 l 208 64 l 342 64 z "},"ɢ":{"ha":696,"x_min":79,"x_max":593,"o":"m 376 743 q 488 724 439 743 q 583 664 536 704 l 539 615 q 460 662 499 647 q 376 676 422 676 q 223 602 285 676 q 161 368 161 528 q 215 126 161 200 q 372 53 269 53 q 517 89 453 53 l 517 332 l 381 332 l 371 396 l 593 396 l 593 51 q 489 4 546 21 q 372 -12 432 -12 q 156 80 233 -12 q 79 368 79 172 q 119 575 79 490 q 228 701 160 660 q 376 743 296 743 z "},"ʛ":{"ha":694,"x_min":79,"x_max":793,"o":"m 663 1032 q 793 985 738 1032 l 760 935 q 716 958 736 950 q 668 967 696 967 q 583 860 583 967 l 583 664 l 543 621 q 462 663 501 649 q 376 676 422 676 q 222 602 283 676 q 161 368 161 528 q 215 126 161 200 q 372 53 269 53 q 517 89 453 53 l 517 332 l 381 332 l 371 396 l 593 396 l 593 51 q 489 4 546 21 q 372 -12 432 -12 q 156 80 233 -12 q 79 368 79 172 q 119 575 79 490 q 227 701 160 660 q 375 743 294 743 q 507 708 451 743 l 507 856 q 549 987 507 942 q 663 1032 590 1032 z "},"ʜ":{"ha":736,"x_min":131,"x_max":606,"o":"m 528 0 l 528 343 l 208 343 l 208 0 l 131 0 l 131 726 l 208 726 l 208 408 l 528 408 l 528 726 l 606 726 l 606 0 l 528 0 z "},"ɪ":{"ha":401,"x_min":35,"x_max":367,"o":"m 367 663 l 239 663 l 239 64 l 367 64 l 367 0 l 35 0 l 35 64 l 161 64 l 161 663 l 35 663 l 35 726 l 367 726 l 367 663 z "},"ʟ":{"ha":522,"x_min":131,"x_max":507,"o":"m 208 726 l 208 68 l 507 68 l 497 0 l 131 0 l 131 726 l 208 726 z "},"ɴ":{"ha":738,"x_min":131,"x_max":607,"o":"m 607 0 l 507 0 l 194 647 q 203 363 203 517 l 203 0 l 131 0 l 131 726 l 231 726 l 544 78 q 535 311 535 194 l 535 726 l 607 726 l 607 0 z "},"ɶ":{"ha":913,"x_min":79,"x_max":865,"o":"m 865 0 l 443 0 q 357 -15 400 -15 q 153 83 226 -15 q 79 363 79 182 q 153 643 79 544 q 358 742 228 742 q 450 726 410 742 l 860 726 l 851 663 l 535 663 q 603 562 576 626 q 636 408 631 497 l 811 408 l 811 346 l 638 346 q 606 173 635 240 q 528 64 578 106 l 865 64 l 865 0 m 161 363 q 213 128 161 206 q 358 50 264 50 q 503 131 450 50 q 557 368 557 211 q 503 598 557 521 q 358 675 449 675 q 213 599 264 675 q 161 363 161 522 z "},"ʀ":{"ha":660,"x_min":131,"x_max":594,"o":"m 510 0 l 335 303 q 304 301 325 301 l 208 301 l 208 0 l 131 0 l 131 726 l 294 726 q 494 672 426 726 q 561 514 561 617 q 522 388 561 439 q 408 314 483 336 l 594 0 l 510 0 m 310 364 q 481 514 481 364 q 436 626 481 589 q 293 663 392 663 l 208 663 l 208 364 l 310 364 z "},"ʁ":{"ha":660,"x_min":131,"x_max":594,"o":"m 408 413 q 522 342 483 393 q 561 215 561 290 q 494 56 561 111 q 294 0 428 0 l 131 0 l 131 726 l 208 726 l 208 425 l 307 425 q 335 424 325 425 l 510 726 l 594 726 l 408 413 m 293 64 q 436 101 392 64 q 481 215 481 138 q 310 363 481 363 l 208 363 l 208 64 l 293 64 z "},"ʏ":{"ha":536,"x_min":6,"x_max":531,"o":"m 531 726 l 308 286 l 308 0 l 231 0 l 231 285 l 6 726 l 88 726 l 271 343 l 451 726 l 531 726 z "},"a":{"ha":672,"x_min":69,"x_max":597,"o":"m 543 149 q 556 75 543 99 q 597 39 568 51 l 579 -15 q 508 23 533 -4 q 475 103 483 50 q 274 -15 404 -15 q 124 44 179 -15 q 69 201 69 103 q 143 376 69 315 q 350 436 217 436 l 465 436 l 465 514 q 431 637 465 597 q 319 676 396 676 q 139 635 240 676 l 117 693 q 328 742 232 742 q 490 685 438 742 q 543 519 543 628 l 543 149 m 286 47 q 465 181 404 47 l 465 379 l 360 379 q 151 204 151 379 q 187 88 151 128 q 286 47 222 47 z "},"á":{"ha":672,"x_min":69,"x_max":597,"o":"m 543 149 q 556 75 543 99 q 597 39 568 51 l 579 -15 q 508 23 533 -4 q 475 103 483 50 q 274 -15 404 -15 q 124 44 179 -15 q 69 201 69 103 q 143 376 69 315 q 350 436 217 436 l 465 436 l 465 514 q 431 637 465 597 q 319 676 396 676 q 139 635 240 676 l 117 693 q 328 742 232 742 q 490 685 438 742 q 543 519 543 628 l 543 149 m 286 47 q 465 181 404 47 l 465 379 l 360 379 q 151 204 151 379 q 187 88 151 128 q 286 47 222 47 m 417 1082 l 453 1014 l 207 897 l 182 940 l 417 1082 z "},"ă":{"ha":672,"x_min":69,"x_max":597,"o":"m 543 149 q 556 75 543 99 q 597 39 568 51 l 579 -15 q 508 23 533 -4 q 475 103 483 50 q 274 -15 404 -15 q 124 44 179 -15 q 69 201 69 103 q 143 376 69 315 q 350 436 217 436 l 465 436 l 465 514 q 431 637 465 597 q 319 676 396 676 q 139 635 240 676 l 117 693 q 328 742 232 742 q 490 685 438 742 q 543 519 543 628 l 543 149 m 286 47 q 465 181 404 47 l 465 379 l 360 379 q 151 204 151 379 q 187 88 151 128 q 286 47 222 47 m 324 907 q 213 948 257 907 q 160 1060 168 989 l 211 1071 q 324 971 236 971 q 438 1071 413 971 l 489 1060 q 435 948 481 989 q 324 907 390 907 z "},"ắ":{"ha":672,"x_min":69,"x_max":597,"o":"m 543 149 q 556 75 543 99 q 597 39 568 51 l 579 -15 q 508 23 533 -4 q 475 103 483 50 q 274 -15 404 -15 q 124 44 179 -15 q 69 201 69 103 q 143 376 69 315 q 350 436 217 436 l 465 436 l 465 514 q 431 637 465 597 q 319 676 396 676 q 139 635 240 676 l 117 693 q 328 742 232 742 q 490 685 438 742 q 543 519 543 628 l 543 149 m 286 47 q 465 181 404 47 l 465 379 l 360 379 q 151 204 151 379 q 187 88 151 128 q 286 47 222 47 m 321 828 q 210 866 256 828 q 157 965 165 904 l 208 978 q 249 915 219 938 q 321 892 278 892 q 394 915 364 892 q 435 978 424 938 l 486 965 q 433 866 478 904 q 321 828 388 828 m 426 1213 l 481 1167 l 325 997 l 289 1029 l 426 1213 z "},"ặ":{"ha":672,"x_min":69,"x_max":597,"o":"m 543 149 q 556 75 543 99 q 597 39 568 51 l 579 -15 q 508 23 533 -4 q 475 103 483 50 q 274 -15 404 -15 q 124 44 179 -15 q 69 201 69 103 q 143 376 69 315 q 350 436 217 436 l 465 436 l 465 514 q 431 637 465 597 q 319 676 396 676 q 139 635 240 676 l 117 693 q 328 742 232 742 q 490 685 438 742 q 543 519 543 628 l 543 149 m 286 47 q 465 181 404 47 l 465 379 l 360 379 q 151 204 151 379 q 187 88 151 128 q 286 47 222 47 m 324 907 q 213 948 257 907 q 160 1060 168 989 l 211 1071 q 324 971 236 971 q 438 1071 413 971 l 489 1060 q 435 948 481 989 q 324 907 390 907 m 325 -235 q 284 -218 300 -235 q 268 -178 268 -201 q 284 -137 268 -153 q 325 -121 300 -121 q 366 -137 350 -121 q 382 -178 382 -153 q 366 -218 382 -201 q 325 -235 350 -235 z "},"ằ":{"ha":672,"x_min":69,"x_max":597,"o":"m 543 149 q 556 75 543 99 q 597 39 568 51 l 579 -15 q 508 23 533 -4 q 475 103 483 50 q 274 -15 404 -15 q 124 44 179 -15 q 69 201 69 103 q 143 376 69 315 q 350 436 217 436 l 465 436 l 465 514 q 431 637 465 597 q 319 676 396 676 q 139 635 240 676 l 117 693 q 328 742 232 742 q 490 685 438 742 q 543 519 543 628 l 543 149 m 286 47 q 465 181 404 47 l 465 379 l 360 379 q 151 204 151 379 q 187 88 151 128 q 286 47 222 47 m 328 828 q 217 866 263 828 q 164 965 172 904 l 215 978 q 256 915 226 938 q 328 892 285 892 q 401 915 371 892 q 442 978 431 938 l 493 965 q 440 866 485 904 q 328 828 394 828 m 231 1213 l 368 1029 l 332 997 l 176 1167 l 231 1213 z "},"ẳ":{"ha":672,"x_min":69,"x_max":597,"o":"m 543 149 q 556 75 543 99 q 597 39 568 51 l 579 -15 q 508 23 533 -4 q 475 103 483 50 q 274 -15 404 -15 q 124 44 179 -15 q 69 201 69 103 q 143 376 69 315 q 350 436 217 436 l 465 436 l 465 514 q 431 637 465 597 q 319 676 396 676 q 139 635 240 676 l 117 693 q 328 742 232 742 q 490 685 438 742 q 543 519 543 628 l 543 149 m 286 47 q 465 181 404 47 l 465 379 l 360 379 q 151 204 151 379 q 187 88 151 128 q 286 47 222 47 m 324 828 q 213 866 258 828 q 160 965 168 904 l 211 978 q 251 915 222 938 q 324 892 281 892 q 397 915 367 892 q 438 978 426 938 l 489 965 q 435 866 481 904 q 324 828 390 828 m 290 1085 q 356 1102 333 1088 q 378 1150 378 1117 q 362 1192 378 1178 q 318 1207 346 1207 q 247 1189 282 1207 l 226 1235 q 329 1265 274 1265 q 415 1235 383 1265 q 446 1156 446 1206 q 422 1082 446 1108 q 353 1049 397 1056 l 353 971 l 290 971 l 290 1085 z "},"ẵ":{"ha":672,"x_min":69,"x_max":597,"o":"m 543 149 q 556 75 543 99 q 597 39 568 51 l 579 -15 q 508 23 533 -4 q 475 103 483 50 q 274 -15 404 -15 q 124 44 179 -15 q 69 201 69 103 q 143 376 69 315 q 350 436 217 436 l 465 436 l 465 514 q 431 637 465 597 q 319 676 396 676 q 139 635 240 676 l 117 693 q 328 742 232 742 q 490 685 438 742 q 543 519 543 628 l 543 149 m 286 47 q 465 181 404 47 l 465 379 l 360 379 q 151 204 151 379 q 187 88 151 128 q 286 47 222 47 m 325 828 q 215 866 260 828 q 161 965 169 904 l 213 978 q 253 915 224 938 q 325 892 282 892 q 398 915 368 892 q 439 978 428 938 l 490 965 q 437 866 482 904 q 325 828 392 828 m 400 1042 q 358 1051 376 1042 q 311 1076 339 1060 q 253 1103 274 1103 q 216 1090 232 1103 q 182 1049 200 1078 l 136 1072 q 251 1164 182 1164 q 292 1155 272 1164 q 333 1131 311 1146 q 370 1109 357 1115 q 399 1103 383 1103 q 434 1117 418 1103 q 469 1163 450 1131 l 515 1139 q 400 1042 472 1042 z "},"ǎ":{"ha":672,"x_min":69,"x_max":597,"o":"m 543 149 q 556 75 543 99 q 597 39 568 51 l 579 -15 q 508 23 533 -4 q 475 103 483 50 q 274 -15 404 -15 q 124 44 179 -15 q 69 201 69 103 q 143 376 69 315 q 350 436 217 436 l 465 436 l 465 514 q 431 637 465 597 q 319 676 396 676 q 139 635 240 676 l 117 693 q 328 742 232 742 q 490 685 438 742 q 543 519 543 628 l 543 149 m 286 47 q 465 181 404 47 l 465 379 l 360 379 q 151 204 151 379 q 187 88 151 128 q 286 47 222 47 m 476 1065 l 510 1028 l 349 879 l 300 879 l 138 1028 l 172 1065 l 325 947 l 476 1065 z "},"â":{"ha":672,"x_min":69,"x_max":597,"o":"m 543 149 q 556 75 543 99 q 597 39 568 51 l 579 -15 q 508 23 533 -4 q 475 103 483 50 q 274 -15 404 -15 q 124 44 179 -15 q 69 201 69 103 q 143 376 69 315 q 350 436 217 436 l 465 436 l 465 514 q 431 637 465 597 q 319 676 396 676 q 139 635 240 676 l 117 693 q 328 742 232 742 q 490 685 438 742 q 543 519 543 628 l 543 149 m 286 47 q 465 181 404 47 l 465 379 l 360 379 q 151 204 151 379 q 187 88 151 128 q 286 47 222 47 m 172 896 l 138 933 l 300 1082 l 347 1082 l 510 933 l 476 896 l 324 1014 l 172 896 z "},"ấ":{"ha":672,"x_min":69,"x_max":624,"o":"m 543 149 q 556 75 543 99 q 597 39 568 51 l 579 -15 q 508 23 533 -4 q 475 103 483 50 q 274 -15 404 -15 q 124 44 179 -15 q 69 201 69 103 q 143 376 69 315 q 350 436 217 436 l 465 436 l 465 514 q 431 637 465 597 q 319 676 396 676 q 139 635 240 676 l 117 693 q 328 742 232 742 q 490 685 438 742 q 543 519 543 628 l 543 149 m 286 47 q 465 181 404 47 l 465 379 l 360 379 q 151 204 151 379 q 187 88 151 128 q 286 47 222 47 m 171 815 l 136 853 l 299 994 l 347 994 l 508 853 l 475 815 l 322 926 l 171 815 m 569 1174 l 624 1128 l 468 958 l 432 990 l 569 1174 z "},"ậ":{"ha":672,"x_min":69,"x_max":597,"o":"m 543 149 q 556 75 543 99 q 597 39 568 51 l 579 -15 q 508 23 533 -4 q 475 103 483 50 q 274 -15 404 -15 q 124 44 179 -15 q 69 201 69 103 q 143 376 69 315 q 350 436 217 436 l 465 436 l 465 514 q 431 637 465 597 q 319 676 396 676 q 139 635 240 676 l 117 693 q 328 742 232 742 q 490 685 438 742 q 543 519 543 628 l 543 149 m 286 47 q 465 181 404 47 l 465 379 l 360 379 q 151 204 151 379 q 187 88 151 128 q 286 47 222 47 m 172 896 l 138 933 l 300 1082 l 347 1082 l 510 933 l 476 896 l 324 1014 l 172 896 m 325 -235 q 284 -218 300 -235 q 268 -178 268 -201 q 284 -137 268 -153 q 325 -121 300 -121 q 366 -137 350 -121 q 382 -178 382 -153 q 366 -218 382 -201 q 325 -235 350 -235 z "},"ầ":{"ha":672,"x_min":25,"x_max":597,"o":"m 543 149 q 556 75 543 99 q 597 39 568 51 l 579 -15 q 508 23 533 -4 q 475 103 483 50 q 274 -15 404 -15 q 124 44 179 -15 q 69 201 69 103 q 143 376 69 315 q 350 436 217 436 l 465 436 l 465 514 q 431 637 465 597 q 319 676 396 676 q 139 635 240 676 l 117 693 q 328 742 232 742 q 490 685 438 742 q 543 519 543 628 l 543 149 m 286 47 q 465 181 404 47 l 465 379 l 360 379 q 151 204 151 379 q 187 88 151 128 q 286 47 222 47 m 169 815 l 135 853 l 297 994 l 346 994 l 507 853 l 474 815 l 321 926 l 169 815 m 79 1174 l 217 990 l 181 958 l 25 1128 l 79 1174 z "},"ẩ":{"ha":672,"x_min":69,"x_max":606,"o":"m 543 149 q 556 75 543 99 q 597 39 568 51 l 579 -15 q 508 23 533 -4 q 475 103 483 50 q 274 -15 404 -15 q 124 44 179 -15 q 69 201 69 103 q 143 376 69 315 q 350 436 217 436 l 465 436 l 465 514 q 431 637 465 597 q 319 676 396 676 q 139 635 240 676 l 117 693 q 328 742 232 742 q 490 685 438 742 q 543 519 543 628 l 543 149 m 286 47 q 465 181 404 47 l 465 379 l 360 379 q 151 204 151 379 q 187 88 151 128 q 286 47 222 47 m 171 815 l 136 853 l 299 994 l 347 994 l 508 853 l 475 815 l 322 926 l 171 815 m 450 1068 q 515 1085 493 1071 q 538 1133 538 1100 q 522 1176 538 1161 q 478 1190 506 1190 q 407 1172 442 1190 l 386 1218 q 489 1249 433 1249 q 574 1219 543 1249 q 606 1139 606 1189 q 581 1065 606 1092 q 513 1032 557 1039 l 513 954 l 450 954 l 450 1068 z "},"ẫ":{"ha":672,"x_min":69,"x_max":597,"o":"m 543 149 q 556 75 543 99 q 597 39 568 51 l 579 -15 q 508 23 533 -4 q 475 103 483 50 q 274 -15 404 -15 q 124 44 179 -15 q 69 201 69 103 q 143 376 69 315 q 350 436 217 436 l 465 436 l 465 514 q 431 637 465 597 q 319 676 396 676 q 139 635 240 676 l 117 693 q 328 742 232 742 q 490 685 438 742 q 543 519 543 628 l 543 149 m 286 47 q 465 181 404 47 l 465 379 l 360 379 q 151 204 151 379 q 187 88 151 128 q 286 47 222 47 m 171 801 l 136 839 l 299 981 l 347 981 l 508 839 l 475 801 l 322 913 l 171 801 m 397 1038 q 355 1047 374 1038 q 308 1072 336 1056 q 250 1099 271 1099 q 213 1086 229 1099 q 179 1044 197 1074 l 133 1068 q 249 1160 179 1160 q 289 1151 269 1160 q 331 1126 308 1142 q 367 1105 354 1111 q 396 1099 381 1099 q 431 1113 415 1099 q 467 1158 447 1126 l 513 1135 q 397 1038 469 1038 z "},"ȁ":{"ha":672,"x_min":69,"x_max":597,"o":"m 543 149 q 556 75 543 99 q 597 39 568 51 l 579 -15 q 508 23 533 -4 q 475 103 483 50 q 274 -15 404 -15 q 124 44 179 -15 q 69 201 69 103 q 143 376 69 315 q 350 436 217 436 l 465 436 l 465 514 q 431 637 465 597 q 319 676 396 676 q 139 635 240 676 l 117 693 q 328 742 232 742 q 490 685 438 742 q 543 519 543 628 l 543 149 m 286 47 q 465 181 404 47 l 465 379 l 360 379 q 151 204 151 379 q 187 88 151 128 q 286 47 222 47 m 185 1124 l 283 914 l 236 893 l 118 1089 l 185 1124 m 349 1124 l 438 921 l 389 899 l 282 1089 l 349 1124 z "},"ä":{"ha":672,"x_min":69,"x_max":597,"o":"m 543 149 q 556 75 543 99 q 597 39 568 51 l 579 -15 q 508 23 533 -4 q 475 103 483 50 q 274 -15 404 -15 q 124 44 179 -15 q 69 201 69 103 q 143 376 69 315 q 350 436 217 436 l 465 436 l 465 514 q 431 637 465 597 q 319 676 396 676 q 139 635 240 676 l 117 693 q 328 742 232 742 q 490 685 438 742 q 543 519 543 628 l 543 149 m 286 47 q 465 181 404 47 l 465 379 l 360 379 q 151 204 151 379 q 187 88 151 128 q 286 47 222 47 m 206 1028 q 244 1013 229 1028 q 258 975 258 997 q 244 936 258 951 q 206 921 229 921 q 168 936 183 921 q 153 975 153 951 q 168 1013 153 997 q 206 1028 183 1028 m 444 1028 q 482 1013 467 1028 q 497 975 497 997 q 482 936 497 951 q 444 921 467 921 q 406 936 421 921 q 390 975 390 951 q 406 1013 390 997 q 444 1028 421 1028 z "},"ǟ":{"ha":672,"x_min":69,"x_max":597,"o":"m 543 149 q 556 75 543 99 q 597 39 568 51 l 579 -15 q 508 23 533 -4 q 475 103 483 50 q 274 -15 404 -15 q 124 44 179 -15 q 69 201 69 103 q 143 376 69 315 q 350 436 217 436 l 465 436 l 465 514 q 431 637 465 597 q 319 676 396 676 q 139 635 240 676 l 117 693 q 328 742 232 742 q 490 685 438 742 q 543 519 543 628 l 543 149 m 286 47 q 465 181 404 47 l 465 379 l 360 379 q 151 204 151 379 q 187 88 151 128 q 286 47 222 47 m 206 986 q 244 971 229 986 q 258 933 258 956 q 244 894 258 910 q 206 879 229 879 q 168 894 183 879 q 153 933 153 910 q 168 971 153 956 q 206 986 183 986 m 444 986 q 482 971 467 986 q 497 933 497 956 q 482 894 497 910 q 444 879 467 879 q 406 894 421 879 q 390 933 390 910 q 406 971 390 956 q 444 986 421 986 m 478 1074 l 174 1074 l 174 1135 l 478 1135 l 478 1074 z "},"ȧ":{"ha":672,"x_min":69,"x_max":597,"o":"m 543 149 q 556 75 543 99 q 597 39 568 51 l 579 -15 q 508 23 533 -4 q 475 103 483 50 q 274 -15 404 -15 q 124 44 179 -15 q 69 201 69 103 q 143 376 69 315 q 350 436 217 436 l 465 436 l 465 514 q 431 637 465 597 q 319 676 396 676 q 139 635 240 676 l 117 693 q 328 742 232 742 q 490 685 438 742 q 543 519 543 628 l 543 149 m 286 47 q 465 181 404 47 l 465 379 l 360 379 q 151 204 151 379 q 187 88 151 128 q 286 47 222 47 m 325 1044 q 366 1028 350 1044 q 382 988 382 1011 q 366 947 382 963 q 325 931 350 931 q 284 947 300 931 q 268 988 268 963 q 284 1028 268 1011 q 325 1044 300 1044 z "},"ạ":{"ha":672,"x_min":69,"x_max":597,"o":"m 543 149 q 556 75 543 99 q 597 39 568 51 l 579 -15 q 508 23 533 -4 q 475 103 483 50 q 274 -15 404 -15 q 124 44 179 -15 q 69 201 69 103 q 143 376 69 315 q 350 436 217 436 l 465 436 l 465 514 q 431 637 465 597 q 319 676 396 676 q 139 635 240 676 l 117 693 q 328 742 232 742 q 490 685 438 742 q 543 519 543 628 l 543 149 m 286 47 q 465 181 404 47 l 465 379 l 360 379 q 151 204 151 379 q 187 88 151 128 q 286 47 222 47 m 325 -235 q 284 -218 300 -235 q 268 -178 268 -201 q 284 -137 268 -153 q 325 -121 300 -121 q 366 -137 350 -121 q 382 -178 382 -153 q 366 -218 382 -201 q 325 -235 350 -235 z "},"ǡ":{"ha":672,"x_min":69,"x_max":597,"o":"m 543 149 q 556 75 543 99 q 597 39 568 51 l 579 -15 q 508 23 533 -4 q 475 103 483 50 q 274 -15 404 -15 q 124 44 179 -15 q 69 201 69 103 q 143 376 69 315 q 350 436 217 436 l 465 436 l 465 514 q 431 637 465 597 q 319 676 396 676 q 139 635 240 676 l 117 693 q 328 742 232 742 q 490 685 438 742 q 543 519 543 628 l 543 149 m 286 47 q 465 181 404 47 l 465 379 l 360 379 q 151 204 151 379 q 187 88 151 128 q 286 47 222 47 m 325 975 q 366 958 350 975 q 382 918 382 942 q 366 877 382 893 q 325 861 350 861 q 284 877 300 861 q 268 918 268 893 q 284 958 268 942 q 325 975 300 975 m 478 1053 l 174 1053 l 174 1114 l 478 1114 l 478 1053 z "},"à":{"ha":672,"x_min":69,"x_max":597,"o":"m 543 149 q 556 75 543 99 q 597 39 568 51 l 579 -15 q 508 23 533 -4 q 475 103 483 50 q 274 -15 404 -15 q 124 44 179 -15 q 69 201 69 103 q 143 376 69 315 q 350 436 217 436 l 465 436 l 465 514 q 431 637 465 597 q 319 676 396 676 q 139 635 240 676 l 117 693 q 328 742 232 742 q 490 685 438 742 q 543 519 543 628 l 543 149 m 286 47 q 465 181 404 47 l 465 379 l 360 379 q 151 204 151 379 q 187 88 151 128 q 286 47 222 47 m 232 1082 l 467 940 l 440 897 l 194 1014 l 232 1082 z "},"ả":{"ha":672,"x_min":69,"x_max":597,"o":"m 543 149 q 556 75 543 99 q 597 39 568 51 l 579 -15 q 508 23 533 -4 q 475 103 483 50 q 274 -15 404 -15 q 124 44 179 -15 q 69 201 69 103 q 143 376 69 315 q 350 436 217 436 l 465 436 l 465 514 q 431 637 465 597 q 319 676 396 676 q 139 635 240 676 l 117 693 q 328 742 232 742 q 490 685 438 742 q 543 519 543 628 l 543 149 m 286 47 q 465 181 404 47 l 465 379 l 360 379 q 151 204 151 379 q 187 88 151 128 q 286 47 222 47 m 293 971 q 358 988 336 974 q 381 1036 381 1003 q 365 1078 381 1064 q 321 1093 349 1093 q 250 1075 285 1093 l 229 1121 q 332 1151 276 1151 q 417 1122 386 1151 q 449 1042 449 1092 q 424 968 449 994 q 356 935 400 942 l 356 857 l 293 857 l 293 971 z "},"ȃ":{"ha":672,"x_min":69,"x_max":597,"o":"m 543 149 q 556 75 543 99 q 597 39 568 51 l 579 -15 q 508 23 533 -4 q 475 103 483 50 q 274 -15 404 -15 q 124 44 179 -15 q 69 201 69 103 q 143 376 69 315 q 350 436 217 436 l 465 436 l 465 514 q 431 637 465 597 q 319 676 396 676 q 139 635 240 676 l 117 693 q 328 742 232 742 q 490 685 438 742 q 543 519 543 628 l 543 149 m 286 47 q 465 181 404 47 l 465 379 l 360 379 q 151 204 151 379 q 187 88 151 128 q 286 47 222 47 m 324 1031 q 435 990 390 1031 q 489 878 481 949 l 438 867 q 324 967 413 967 q 211 867 236 967 l 160 878 q 213 990 168 949 q 324 1031 257 1031 z "},"ɑ":{"ha":732,"x_min":79,"x_max":656,"o":"m 597 160 q 610 88 597 111 q 656 50 624 65 l 632 -11 q 558 32 582 6 q 525 103 533 58 q 444 17 493 49 q 331 -15 394 -15 q 147 83 214 -15 q 79 360 79 181 q 111 563 79 476 q 202 695 143 649 q 340 742 261 742 q 524 639 456 742 l 529 726 l 597 726 l 597 160 m 340 50 q 443 83 400 50 q 519 182 486 115 l 519 568 q 351 676 450 676 q 213 597 264 676 q 163 361 161 517 q 209 127 163 204 q 340 50 256 50 z "},"ɒ":{"ha":732,"x_min":76,"x_max":653,"o":"m 401 742 q 585 644 518 742 q 653 367 653 546 q 621 164 653 250 q 530 31 589 78 q 392 -15 471 -15 q 208 88 276 -15 l 203 0 l 135 0 l 135 567 q 122 638 135 615 q 76 676 108 661 l 100 738 q 174 694 150 721 q 207 624 199 668 q 288 710 239 678 q 401 742 338 742 m 381 50 q 518 128 467 50 q 569 360 569 207 q 524 599 569 521 q 392 676 478 676 q 289 644 332 676 q 213 544 246 611 l 213 158 q 381 50 282 50 z "},"ā":{"ha":672,"x_min":69,"x_max":597,"o":"m 543 149 q 556 75 543 99 q 597 39 568 51 l 579 -15 q 508 23 533 -4 q 475 103 483 50 q 274 -15 404 -15 q 124 44 179 -15 q 69 201 69 103 q 143 376 69 315 q 350 436 217 436 l 465 436 l 465 514 q 431 637 465 597 q 319 676 396 676 q 139 635 240 676 l 117 693 q 328 742 232 742 q 490 685 438 742 q 543 519 543 628 l 543 149 m 286 47 q 465 181 404 47 l 465 379 l 360 379 q 151 204 151 379 q 187 88 151 128 q 286 47 222 47 m 478 940 l 174 940 l 174 1001 l 478 1001 l 478 940 z "},"ą":{"ha":672,"x_min":69,"x_max":597,"o":"m 579 -15 q 462 -94 496 -57 q 428 -181 428 -131 q 506 -253 428 -253 q 578 -243 539 -253 l 571 -307 q 497 -317 526 -317 q 394 -282 431 -317 q 357 -190 357 -247 q 399 -81 357 -128 q 529 4 442 -35 q 475 103 485 33 q 274 -15 404 -15 q 124 44 179 -15 q 69 201 69 103 q 143 376 69 315 q 350 436 217 436 l 465 436 l 465 514 q 431 637 465 597 q 319 676 396 676 q 139 635 240 676 l 117 693 q 328 742 232 742 q 490 685 438 742 q 543 519 543 628 l 543 149 q 556 75 543 99 q 597 39 568 51 l 579 -15 m 286 47 q 465 181 404 47 l 465 379 l 360 379 q 151 204 151 379 q 187 88 151 128 q 286 47 222 47 z "},"å":{"ha":672,"x_min":69,"x_max":597,"o":"m 543 149 q 556 75 543 99 q 597 39 568 51 l 579 -15 q 508 23 533 -4 q 475 103 483 50 q 274 -15 404 -15 q 124 44 179 -15 q 69 201 69 103 q 143 376 69 315 q 350 436 217 436 l 465 436 l 465 514 q 431 637 465 597 q 319 676 396 676 q 139 635 240 676 l 117 693 q 328 742 232 742 q 490 685 438 742 q 543 519 543 628 l 543 149 m 286 47 q 465 181 404 47 l 465 379 l 360 379 q 151 204 151 379 q 187 88 151 128 q 286 47 222 47 m 325 1139 q 417 1103 382 1139 q 451 1010 451 1068 q 417 915 451 950 q 325 879 382 879 q 235 915 269 879 q 200 1010 200 950 q 235 1103 200 1068 q 325 1139 269 1139 m 325 1092 q 257 1010 257 1092 q 325 926 257 926 q 376 947 358 926 q 394 1010 394 968 q 325 1092 394 1092 z "},"ǻ":{"ha":672,"x_min":69,"x_max":597,"o":"m 461 1193 l 213 1086 l 190 1132 l 426 1263 l 461 1193 m 200 946 q 235 1040 200 1004 q 325 1075 269 1075 q 417 1040 382 1075 q 451 946 451 1004 q 417 851 451 886 q 325 815 382 815 q 235 851 269 815 q 200 946 200 886 m 394 946 q 325 1028 394 1028 q 257 946 257 1028 q 325 863 257 863 q 376 883 358 863 q 394 946 394 904 m 543 149 q 556 75 543 99 q 597 39 568 51 l 579 -15 q 508 23 533 -4 q 475 103 483 50 q 274 -15 404 -15 q 124 44 179 -15 q 69 201 69 103 q 143 376 69 315 q 350 436 217 436 l 465 436 l 465 514 q 431 637 465 597 q 319 676 396 676 q 139 635 240 676 l 117 693 q 328 742 232 742 q 490 685 438 742 q 543 519 543 628 l 543 149 m 286 47 q 465 181 404 47 l 465 379 l 360 379 q 151 204 151 379 q 187 88 151 128 q 286 47 222 47 z "},"ⱥ":{"ha":672,"x_min":69,"x_max":597,"o":"m 543 149 q 556 75 543 99 q 597 39 568 51 l 579 -15 q 508 23 533 -4 q 475 103 483 50 q 274 -15 404 -15 l 263 -15 l 242 -97 l 201 -87 l 221 -10 q 110 62 150 6 q 69 201 69 118 q 138 371 69 311 q 331 436 206 431 l 386 667 q 319 676 361 676 q 139 635 240 676 l 117 693 q 328 742 232 742 q 403 733 369 742 l 425 822 l 467 813 l 443 718 q 543 519 543 669 l 543 149 m 465 514 q 425 643 465 604 l 374 436 l 465 436 l 465 514 m 286 47 q 465 181 404 47 l 465 379 l 360 379 l 278 47 l 286 47 m 151 204 q 174 107 151 144 q 236 56 196 69 l 315 376 q 151 204 151 360 z "},"ã":{"ha":672,"x_min":69,"x_max":597,"o":"m 543 149 q 556 75 543 99 q 597 39 568 51 l 579 -15 q 508 23 533 -4 q 475 103 483 50 q 274 -15 404 -15 q 124 44 179 -15 q 69 201 69 103 q 143 376 69 315 q 350 436 217 436 l 465 436 l 465 514 q 431 637 465 597 q 319 676 396 676 q 139 635 240 676 l 117 693 q 328 742 232 742 q 490 685 438 742 q 543 519 543 628 l 543 149 m 286 47 q 465 181 404 47 l 465 379 l 360 379 q 151 204 151 379 q 187 88 151 128 q 286 47 222 47 m 399 928 q 356 937 375 928 q 310 963 338 946 q 251 989 272 989 q 215 976 231 989 q 181 935 199 964 l 135 958 q 250 1050 181 1050 q 291 1041 272 1050 q 332 1017 310 1032 q 369 995 356 1001 q 397 989 382 989 q 433 1003 417 989 q 468 1049 449 1017 l 514 1025 q 399 928 471 928 z "},"ɐ":{"ha":672,"x_min":75,"x_max":603,"o":"m 353 50 q 533 92 432 50 l 556 33 q 344 -15 440 -15 q 182 42 235 -15 q 129 207 129 99 l 129 578 q 117 651 129 628 q 75 688 104 675 l 93 742 q 164 703 139 731 q 197 624 189 676 q 399 742 268 742 q 548 683 493 742 q 603 525 603 624 q 529 351 603 411 q 322 290 456 290 l 207 290 l 207 213 q 242 90 207 129 q 353 50 276 50 m 386 679 q 207 546 268 679 l 207 347 l 313 347 q 521 522 521 347 q 485 639 521 599 q 386 679 450 679 z "},"æ":{"ha":1060,"x_min":69,"x_max":988,"o":"m 988 390 q 985 332 988 360 l 549 332 q 610 120 556 189 q 751 51 664 51 q 842 68 801 51 q 925 121 882 85 l 963 74 q 862 7 914 29 q 746 -15 810 -15 q 607 23 667 -15 q 511 132 547 61 q 406 19 461 53 q 276 -15 350 -15 q 125 44 181 -15 q 69 201 69 103 q 144 376 69 315 q 350 436 218 436 l 467 436 l 467 507 q 432 635 467 594 q 317 675 397 675 q 140 635 243 675 l 119 693 q 328 742 236 742 q 459 706 411 742 q 526 603 507 671 q 738 742 599 742 q 924 650 860 742 q 988 390 988 558 m 911 415 q 867 609 911 542 q 736 676 824 676 q 603 606 654 676 q 547 393 553 536 l 911 393 l 911 415 m 289 47 q 395 83 349 47 q 488 196 442 118 q 467 356 467 265 l 467 379 l 358 379 q 206 335 258 379 q 153 204 153 292 q 189 88 153 129 q 289 47 225 47 z "},"ǽ":{"ha":1060,"x_min":69,"x_max":988,"o":"m 988 390 q 985 332 988 360 l 549 332 q 610 120 556 189 q 751 51 664 51 q 842 68 801 51 q 925 121 882 85 l 963 74 q 862 7 914 29 q 746 -15 810 -15 q 607 23 667 -15 q 511 132 547 61 q 406 19 461 53 q 276 -15 350 -15 q 125 44 181 -15 q 69 201 69 103 q 144 376 69 315 q 350 436 218 436 l 467 436 l 467 507 q 432 635 467 594 q 317 675 397 675 q 140 635 243 675 l 119 693 q 328 742 236 742 q 459 706 411 742 q 526 603 507 671 q 738 742 599 742 q 924 650 860 742 q 988 390 988 558 m 911 415 q 867 609 911 542 q 736 676 824 676 q 603 606 654 676 q 547 393 553 536 l 911 393 l 911 415 m 289 47 q 395 83 349 47 q 488 196 442 118 q 467 356 467 265 l 467 379 l 358 379 q 206 335 258 379 q 153 204 153 292 q 189 88 153 129 q 289 47 225 47 m 624 1082 l 660 1014 l 414 897 l 389 940 l 624 1082 z "},"ǣ":{"ha":1060,"x_min":69,"x_max":988,"o":"m 988 390 q 985 332 988 360 l 549 332 q 610 120 556 189 q 751 51 664 51 q 842 68 801 51 q 925 121 882 85 l 963 74 q 862 7 914 29 q 746 -15 810 -15 q 607 23 667 -15 q 511 132 547 61 q 406 19 461 53 q 276 -15 350 -15 q 125 44 181 -15 q 69 201 69 103 q 144 376 69 315 q 350 436 218 436 l 467 436 l 467 507 q 432 635 467 594 q 317 675 397 675 q 140 635 243 675 l 119 693 q 328 742 236 742 q 459 706 411 742 q 526 603 507 671 q 738 742 599 742 q 924 650 860 742 q 988 390 988 558 m 911 415 q 867 609 911 542 q 736 676 824 676 q 603 606 654 676 q 547 393 553 536 l 911 393 l 911 415 m 289 47 q 395 83 349 47 q 488 196 442 118 q 467 356 467 265 l 467 379 l 358 379 q 206 335 258 379 q 153 204 153 292 q 189 88 153 129 q 289 47 225 47 m 685 940 l 381 940 l 381 1001 l 685 1001 l 685 940 z "},"b":{"ha":725,"x_min":131,"x_max":643,"o":"m 404 742 q 581 647 518 742 q 643 367 643 551 q 577 85 643 186 q 393 -15 511 -15 q 288 14 335 -15 q 206 92 240 43 l 199 0 l 131 0 l 131 1022 l 208 1032 l 208 625 q 404 742 285 742 m 381 50 q 513 128 467 50 q 560 367 560 206 q 517 602 560 528 q 390 676 474 676 q 289 643 332 676 q 208 551 246 610 l 208 165 q 381 50 281 50 z "},"ḃ":{"ha":725,"x_min":131,"x_max":643,"o":"m 404 742 q 581 647 518 742 q 643 367 643 551 q 577 85 643 186 q 393 -15 511 -15 q 288 14 335 -15 q 206 92 240 43 l 199 0 l 131 0 l 131 1022 l 208 1032 l 208 625 q 404 742 285 742 m 381 50 q 513 128 467 50 q 560 367 560 206 q 517 602 560 528 q 390 676 474 676 q 289 643 332 676 q 208 551 246 610 l 208 165 q 381 50 281 50 m 379 1290 q 420 1274 404 1290 q 436 1233 436 1257 q 420 1192 436 1208 q 379 1176 404 1176 q 338 1192 354 1176 q 322 1233 322 1208 q 338 1274 322 1257 q 379 1290 354 1290 z "},"ḅ":{"ha":725,"x_min":131,"x_max":643,"o":"m 404 742 q 581 647 518 742 q 643 367 643 551 q 577 85 643 186 q 393 -15 511 -15 q 288 14 335 -15 q 206 92 240 43 l 199 0 l 131 0 l 131 1022 l 208 1032 l 208 625 q 404 742 285 742 m 381 50 q 513 128 467 50 q 560 367 560 206 q 517 602 560 528 q 390 676 474 676 q 289 643 332 676 q 208 551 246 610 l 208 165 q 381 50 281 50 m 379 -235 q 338 -218 354 -235 q 322 -178 322 -201 q 338 -137 322 -153 q 379 -121 354 -121 q 420 -137 404 -121 q 436 -178 436 -153 q 420 -218 436 -201 q 379 -235 404 -235 z "},"ꞵ":{"ha":738,"x_min":131,"x_max":674,"o":"m 411 557 q 599 484 525 551 q 674 281 674 417 q 638 123 674 190 q 543 20 603 56 q 414 -15 483 -15 q 208 72 294 -15 l 208 -272 l 131 -286 l 131 751 q 197 960 131 888 q 376 1032 264 1032 q 545 967 479 1032 q 611 789 611 903 q 558 627 611 685 q 411 557 506 569 m 406 50 q 541 110 488 50 q 594 275 594 171 q 529 459 594 396 q 344 522 464 522 l 286 522 l 294 585 l 349 585 q 480 631 424 585 q 536 788 536 678 q 492 924 535 879 q 376 968 449 968 q 253 915 297 968 q 208 750 208 861 l 208 143 q 298 72 251 94 q 406 50 344 50 z "},"ɓ":{"ha":725,"x_min":131,"x_max":643,"o":"m 404 742 q 581 647 518 742 q 643 367 643 551 q 577 85 643 186 q 393 -15 511 -15 q 288 14 335 -15 q 206 92 240 43 l 199 0 l 131 0 l 131 850 q 180 983 131 935 q 315 1032 229 1032 q 469 993 396 1032 l 442 936 q 321 967 376 967 q 208 849 208 967 l 208 625 q 404 742 285 742 m 381 50 q 513 128 467 50 q 560 367 560 206 q 517 602 560 528 q 390 676 474 676 q 289 643 332 676 q 208 551 246 610 l 208 165 q 381 50 281 50 z "},"ʭ":{"ha":417,"x_min":42,"x_max":375,"o":"m 42 556 l 42 738 l 375 738 l 375 556 l 317 556 l 317 681 l 100 681 l 100 556 l 42 556 m 42 0 l 42 182 l 375 182 l 375 0 l 317 0 l 317 125 l 100 125 l 100 0 l 42 0 z "},"ʘ":{"ha":992,"x_min":82,"x_max":910,"o":"m 496 967 q 713 910 619 967 q 858 744 806 854 q 910 475 910 633 q 858 210 910 321 q 713 42 807 100 q 496 -15 619 -15 q 280 41 374 -15 q 134 208 186 97 q 82 474 82 318 q 135 740 82 629 q 281 909 188 851 q 496 967 374 967 m 496 900 q 249 793 340 900 q 158 474 158 686 q 250 157 158 264 q 496 50 342 50 q 744 157 654 50 q 833 475 833 264 q 743 794 833 688 q 496 900 653 900 m 496 532 q 537 515 521 532 q 553 475 553 499 q 537 434 553 450 q 496 418 521 418 q 455 434 471 418 q 439 475 439 450 q 455 515 439 499 q 496 532 471 532 z "},"ʬ":{"ha":578,"x_min":51,"x_max":526,"o":"m 526 921 l 439 556 l 363 556 l 290 858 l 217 556 l 140 556 l 51 921 l 117 921 l 182 611 l 258 921 l 326 921 l 400 611 l 467 921 l 526 921 m 526 365 l 439 0 l 363 0 l 290 303 l 217 0 l 140 0 l 51 365 l 117 365 l 182 56 l 258 365 l 326 365 l 400 56 l 467 365 l 526 365 z "},"ƀ":{"ha":732,"x_min":43,"x_max":650,"o":"m 411 742 q 588 647 525 742 q 650 367 650 551 q 584 85 650 186 q 400 -15 518 -15 q 294 14 342 -15 q 213 92 247 43 l 206 0 l 138 0 l 138 857 l 43 857 l 43 919 l 138 919 l 138 1022 l 215 1032 l 215 919 l 419 919 l 419 857 l 215 857 l 215 625 q 411 742 292 742 m 388 50 q 520 128 474 50 q 567 367 567 206 q 524 602 567 528 q 397 676 481 676 q 296 643 339 676 q 215 551 253 610 l 215 165 q 388 50 288 50 z "},"ƃ":{"ha":725,"x_min":131,"x_max":643,"o":"m 404 742 q 581 647 518 742 q 643 367 643 551 q 577 85 643 186 q 393 -15 511 -15 q 288 14 335 -15 q 206 92 240 43 l 199 0 l 131 0 l 131 1022 l 503 1022 l 492 958 l 208 958 l 208 625 q 404 742 285 742 m 381 50 q 513 128 467 50 q 560 367 560 206 q 517 602 560 528 q 390 676 474 676 q 289 643 332 676 q 208 551 246 610 l 208 165 q 381 50 281 50 z "},"c":{"ha":583,"x_min":79,"x_max":549,"o":"m 360 742 q 458 724 414 742 q 544 668 503 707 l 506 618 q 439 661 474 647 q 361 675 404 675 q 216 597 269 675 q 163 360 163 518 q 215 128 163 203 q 361 53 268 53 q 439 67 404 53 q 510 111 474 82 l 549 63 q 360 -15 467 -15 q 154 81 229 -15 q 79 358 79 178 q 155 640 79 539 q 360 742 231 742 z "},"ć":{"ha":583,"x_min":79,"x_max":549,"o":"m 360 742 q 458 724 414 742 q 544 668 503 707 l 506 618 q 439 661 474 647 q 361 675 404 675 q 216 597 269 675 q 163 360 163 518 q 215 128 163 203 q 361 53 268 53 q 439 67 404 53 q 510 111 474 82 l 549 63 q 360 -15 467 -15 q 154 81 229 -15 q 79 358 79 178 q 155 640 79 539 q 360 742 231 742 m 450 1082 l 486 1014 l 240 897 l 215 940 l 450 1082 z "},"č":{"ha":583,"x_min":79,"x_max":549,"o":"m 360 742 q 458 724 414 742 q 544 668 503 707 l 506 618 q 439 661 474 647 q 361 675 404 675 q 216 597 269 675 q 163 360 163 518 q 215 128 163 203 q 361 53 268 53 q 439 67 404 53 q 510 111 474 82 l 549 63 q 360 -15 467 -15 q 154 81 229 -15 q 79 358 79 178 q 155 640 79 539 q 360 742 231 742 m 510 1065 l 543 1028 l 382 879 l 333 879 l 171 1028 l 206 1065 l 358 947 l 510 1065 z "},"ç":{"ha":583,"x_min":79,"x_max":549,"o":"m 376 -90 q 464 -124 435 -96 q 493 -196 493 -151 q 455 -283 493 -251 q 358 -314 417 -314 q 257 -285 299 -314 l 283 -239 q 357 -258 319 -258 q 406 -242 388 -258 q 425 -196 425 -226 q 398 -149 425 -164 q 313 -133 371 -133 l 324 -14 q 144 95 208 0 q 79 358 79 190 q 155 640 79 539 q 360 742 231 742 q 458 724 414 742 q 544 668 503 707 l 506 618 q 439 661 474 647 q 361 675 404 675 q 216 597 269 675 q 163 360 163 518 q 215 128 163 203 q 361 53 268 53 q 439 67 404 53 q 510 111 474 82 l 549 63 q 376 -15 472 -10 l 376 -90 z "},"ĉ":{"ha":583,"x_min":79,"x_max":549,"o":"m 360 742 q 458 724 414 742 q 544 668 503 707 l 506 618 q 439 661 474 647 q 361 675 404 675 q 216 597 269 675 q 163 360 163 518 q 215 128 163 203 q 361 53 268 53 q 439 67 404 53 q 510 111 474 82 l 549 63 q 360 -15 467 -15 q 154 81 229 -15 q 79 358 79 178 q 155 640 79 539 q 360 742 231 742 m 206 896 l 171 933 l 333 1082 l 381 1082 l 543 933 l 510 896 l 357 1014 l 206 896 z "},"ɕ":{"ha":601,"x_min":79,"x_max":568,"o":"m 431 299 q 531 261 494 299 q 568 161 568 224 q 513 32 568 79 q 363 -15 457 -15 q 251 8 303 -15 l 211 -90 l 158 -68 l 201 38 q 111 166 143 85 q 79 358 79 247 q 155 640 79 539 q 360 742 231 742 q 458 724 414 742 q 544 668 503 707 l 506 618 q 439 661 474 647 q 361 675 404 675 q 216 597 269 675 q 163 360 163 518 q 235 107 163 183 q 319 254 272 210 q 431 299 365 299 m 369 53 q 464 78 428 53 q 500 161 500 104 q 482 219 500 199 q 428 240 464 240 q 351 205 383 240 q 279 74 318 169 q 369 53 324 53 z "},"ċ":{"ha":583,"x_min":79,"x_max":549,"o":"m 360 742 q 458 724 414 742 q 544 668 503 707 l 506 618 q 439 661 474 647 q 361 675 404 675 q 216 597 269 675 q 163 360 163 518 q 215 128 163 203 q 361 53 268 53 q 439 67 404 53 q 510 111 474 82 l 549 63 q 360 -15 467 -15 q 154 81 229 -15 q 79 358 79 178 q 155 640 79 539 q 360 742 231 742 m 358 1044 q 399 1028 383 1044 q 415 988 415 1011 q 399 947 415 963 q 358 931 383 931 q 317 947 333 931 q 301 988 301 963 q 317 1028 301 1011 q 358 1044 333 1044 z "},"ƈ":{"ha":583,"x_min":79,"x_max":756,"o":"m 625 1032 q 756 985 697 1032 l 722 935 q 677 959 697 951 q 629 967 657 967 q 544 860 544 967 l 544 668 l 511 625 q 439 663 474 650 q 361 675 404 675 q 216 597 269 675 q 163 360 163 518 q 215 128 163 203 q 361 53 268 53 q 439 67 404 53 q 510 111 474 82 l 549 63 q 360 -15 467 -15 q 154 81 229 -15 q 79 358 79 178 q 155 640 79 539 q 360 742 231 742 q 468 714 422 742 l 468 856 q 510 987 468 942 q 625 1032 553 1032 z "},"ʗ":{"ha":608,"x_min":103,"x_max":574,"o":"m 389 742 q 485 724 442 742 q 569 668 528 707 l 532 618 q 464 661 497 647 q 389 675 431 675 q 240 562 294 675 q 186 222 186 449 q 240 -111 186 -1 q 388 -221 294 -221 q 465 -206 429 -221 q 535 -161 500 -190 l 574 -211 q 388 -289 489 -289 q 178 -158 254 -289 q 103 221 103 -28 q 179 606 103 469 q 389 742 256 742 z "},"ȼ":{"ha":583,"x_min":79,"x_max":549,"o":"m 549 63 q 360 -15 467 -15 q 272 -3 313 -15 l 249 -97 l 207 -87 l 232 14 q 119 140 158 53 q 79 358 79 228 q 155 640 79 539 q 360 742 231 742 q 411 738 386 742 l 432 822 l 474 813 l 453 726 q 544 668 504 706 l 506 618 q 436 663 469 650 l 289 67 q 361 53 321 53 q 439 67 404 53 q 510 111 474 82 l 549 63 m 163 360 q 250 89 163 161 l 394 672 q 361 675 375 675 q 216 597 269 675 q 163 360 163 518 z "},"d":{"ha":731,"x_min":82,"x_max":600,"o":"m 600 1022 l 600 0 l 532 0 l 525 108 q 445 18 493 51 q 331 -15 397 -15 q 148 84 214 -15 q 82 360 82 183 q 114 560 82 474 q 204 694 146 647 q 340 742 263 742 q 522 644 451 742 l 522 1032 l 600 1022 m 342 50 q 444 83 401 50 q 522 183 488 117 l 522 565 q 353 676 453 676 q 215 595 265 676 q 165 361 164 514 q 212 128 165 207 q 342 50 258 50 z "},"ð":{"ha":699,"x_min":79,"x_max":613,"o":"m 407 921 q 563 707 514 833 q 613 390 613 581 q 540 90 613 194 q 343 -15 467 -15 q 151 75 222 -15 q 79 324 79 165 q 108 486 79 411 q 192 606 136 561 q 325 650 249 650 q 434 623 386 650 q 525 543 482 596 q 472 728 511 649 q 360 872 433 808 l 264 765 l 208 792 l 311 908 q 160 972 232 957 l 175 1033 q 357 957 271 1013 l 444 1057 l 492 1018 l 407 921 m 342 50 q 483 138 432 50 q 533 393 533 225 l 532 460 q 335 586 447 586 q 204 514 249 586 q 160 324 160 442 q 208 121 160 192 q 342 50 256 50 z "},"ȸ":{"ha":1067,"x_min":82,"x_max":983,"o":"m 758 742 q 924 647 865 742 q 983 367 983 553 q 920 85 983 186 q 749 -15 857 -15 q 647 18 692 -15 q 574 103 603 51 l 565 0 l 507 0 l 499 104 q 422 18 468 51 q 317 -15 375 -15 q 146 83 210 -15 q 82 360 82 182 q 112 563 82 476 q 197 695 142 649 q 326 742 253 742 q 497 638 426 742 l 497 1022 l 575 1032 l 575 633 q 758 742 650 742 m 329 50 q 422 83 382 50 q 497 179 463 115 l 497 564 q 424 648 461 619 q 339 676 386 676 q 212 597 260 676 q 165 361 164 517 q 209 128 165 206 q 329 50 253 50 m 738 50 q 858 128 814 50 q 901 367 901 206 q 860 603 901 531 q 743 676 819 676 q 651 646 690 676 q 575 560 613 615 l 575 183 q 646 84 607 118 q 738 50 685 50 z "},"ď":{"ha":739,"x_min":82,"x_max":771,"o":"m 600 1022 l 600 0 l 532 0 l 525 108 q 445 18 493 51 q 331 -15 397 -15 q 148 84 214 -15 q 82 360 82 183 q 114 560 82 474 q 204 694 146 647 q 340 742 263 742 q 522 644 451 742 l 522 1032 l 600 1022 m 342 50 q 444 83 401 50 q 522 183 488 117 l 522 565 q 353 676 453 676 q 215 595 265 676 q 165 361 164 514 q 212 128 165 207 q 342 50 258 50 m 721 796 l 771 1021 l 699 1031 l 674 803 l 721 796 z "},"ḓ":{"ha":731,"x_min":82,"x_max":600,"o":"m 600 1022 l 600 0 l 532 0 l 525 108 q 445 18 493 51 q 331 -15 397 -15 q 148 84 214 -15 q 82 360 82 183 q 114 560 82 474 q 204 694 146 647 q 340 742 263 742 q 522 644 451 742 l 522 1032 l 600 1022 m 342 50 q 444 83 401 50 q 522 183 488 117 l 522 565 q 353 676 453 676 q 215 595 265 676 q 165 361 164 514 q 212 128 165 207 q 342 50 258 50 m 225 -282 l 190 -246 l 353 -97 l 400 -97 l 563 -246 l 529 -282 l 376 -165 l 225 -282 z "},"đ":{"ha":738,"x_min":82,"x_max":694,"o":"m 694 919 l 694 857 l 600 857 l 600 0 l 532 0 l 525 108 q 445 18 493 51 q 331 -15 397 -15 q 148 84 214 -15 q 82 360 82 183 q 114 560 82 474 q 204 694 146 647 q 340 742 263 742 q 522 644 451 742 l 522 857 l 318 857 l 318 919 l 522 919 l 522 1032 l 600 1022 l 600 919 l 694 919 m 342 50 q 444 83 401 50 q 522 183 488 117 l 522 565 q 353 676 453 676 q 215 595 265 676 q 165 361 164 514 q 212 128 165 207 q 342 50 258 50 z "},"ȡ":{"ha":868,"x_min":82,"x_max":900,"o":"m 774 278 q 865 242 831 278 q 900 150 900 207 q 848 29 900 74 q 713 -15 796 -15 q 608 10 654 -15 l 564 -90 l 513 -67 l 564 46 q 529 117 539 78 q 448 20 497 56 q 331 -15 399 -15 q 148 84 214 -15 q 82 360 82 183 q 114 560 82 474 q 204 694 146 647 q 340 742 263 742 q 522 644 451 742 l 522 1032 l 600 1022 l 600 168 q 603 129 600 154 q 675 240 635 203 q 774 278 715 278 m 342 50 q 444 83 401 50 q 522 183 488 117 l 522 565 q 353 676 453 676 q 215 595 265 676 q 165 361 164 514 q 212 128 165 207 q 342 50 258 50 m 715 53 q 801 78 769 53 q 832 150 832 104 q 815 200 832 182 q 768 218 799 218 q 701 186 728 218 q 636 72 674 154 q 715 53 667 53 z "},"ḋ":{"ha":731,"x_min":82,"x_max":600,"o":"m 600 1022 l 600 0 l 532 0 l 525 108 q 445 18 493 51 q 331 -15 397 -15 q 148 84 214 -15 q 82 360 82 183 q 114 560 82 474 q 204 694 146 647 q 340 742 263 742 q 522 644 451 742 l 522 1032 l 600 1022 m 342 50 q 444 83 401 50 q 522 183 488 117 l 522 565 q 353 676 453 676 q 215 595 265 676 q 165 361 164 514 q 212 128 165 207 q 342 50 258 50 m 358 1290 q 399 1274 383 1290 q 415 1233 415 1257 q 399 1192 415 1208 q 358 1176 383 1176 q 317 1192 333 1176 q 301 1233 301 1208 q 317 1274 301 1257 q 358 1290 333 1290 z "},"ḍ":{"ha":731,"x_min":82,"x_max":600,"o":"m 600 1022 l 600 0 l 532 0 l 525 108 q 445 18 493 51 q 331 -15 397 -15 q 148 84 214 -15 q 82 360 82 183 q 114 560 82 474 q 204 694 146 647 q 340 742 263 742 q 522 644 451 742 l 522 1032 l 600 1022 m 342 50 q 444 83 401 50 q 522 183 488 117 l 522 565 q 353 676 453 676 q 215 595 265 676 q 165 361 164 514 q 212 128 165 207 q 342 50 258 50 m 376 -235 q 335 -218 351 -235 q 319 -178 319 -201 q 335 -137 319 -153 q 376 -121 351 -121 q 417 -137 401 -121 q 433 -178 433 -153 q 417 -218 433 -201 q 376 -235 401 -235 z "},"ƍ":{"ha":711,"x_min":79,"x_max":632,"o":"m 433 75 q 533 -3 503 40 q 564 -108 564 -47 q 506 -239 564 -186 q 351 -292 449 -292 q 242 -275 290 -292 q 147 -224 193 -258 l 188 -175 q 264 -215 228 -203 q 346 -226 300 -226 q 449 -194 413 -226 q 485 -107 485 -161 q 472 -46 485 -71 q 424 3 458 -21 q 321 56 389 26 q 136 190 193 111 q 79 406 79 269 q 153 650 79 558 q 358 742 228 742 q 559 655 486 742 q 632 407 632 568 q 579 206 632 289 q 433 75 526 122 m 161 406 q 181 269 161 324 q 248 176 201 215 q 378 100 294 136 q 550 407 550 190 q 501 608 550 540 q 358 676 451 676 q 212 608 263 676 q 161 406 161 539 z "},"ʤ":{"ha":1135,"x_min":82,"x_max":1094,"o":"m 800 278 q 1022 208 949 278 q 1094 6 1094 139 q 1019 -204 1094 -124 q 817 -285 944 -285 q 678 -255 738 -285 q 569 -165 618 -225 l 617 -124 q 708 -196 661 -174 q 815 -218 756 -218 q 962 -158 911 -218 q 1013 7 1013 -99 q 960 167 1013 118 q 790 215 907 215 l 710 215 l 710 276 l 976 660 l 600 660 l 600 0 l 532 0 l 525 108 q 445 18 493 51 q 331 -15 397 -15 q 148 84 214 -15 q 82 360 82 183 q 114 560 82 474 q 204 694 146 647 q 340 742 263 742 q 522 644 451 742 l 522 1032 l 600 1022 l 600 726 l 1064 726 l 1064 665 l 789 278 l 800 278 m 342 50 q 444 83 401 50 q 522 183 488 117 l 522 565 q 353 676 453 676 q 215 595 265 676 q 165 361 164 514 q 212 128 165 207 q 342 50 258 50 z "},"ɗ":{"ha":731,"x_min":82,"x_max":811,"o":"m 681 1032 q 811 985 753 1032 l 778 935 q 733 958 754 950 q 685 967 713 967 q 600 860 600 967 l 600 0 l 532 0 l 525 108 q 445 18 493 51 q 331 -15 397 -15 q 148 84 214 -15 q 82 360 82 183 q 114 560 82 474 q 204 694 146 647 q 340 742 263 742 q 522 644 451 742 l 522 856 q 565 987 522 942 q 681 1032 607 1032 m 342 50 q 444 83 401 50 q 522 183 488 117 l 522 565 q 353 676 453 676 q 215 595 265 676 q 165 361 164 514 q 212 128 165 207 q 342 50 258 50 z "},"ḏ":{"ha":731,"x_min":82,"x_max":600,"o":"m 600 1022 l 600 0 l 532 0 l 525 108 q 445 18 493 51 q 331 -15 397 -15 q 148 84 214 -15 q 82 360 82 183 q 114 560 82 474 q 204 694 146 647 q 340 742 263 742 q 522 644 451 742 l 522 1032 l 600 1022 m 342 50 q 444 83 401 50 q 522 183 488 117 l 522 565 q 353 676 453 676 q 215 595 265 676 q 165 361 164 514 q 212 128 165 207 q 342 50 258 50 m 529 -218 l 225 -218 l 225 -157 l 529 -157 l 529 -218 z "},"ɖ":{"ha":731,"x_min":82,"x_max":813,"o":"m 813 -237 q 681 -285 754 -285 q 566 -241 610 -285 q 522 -114 522 -197 l 522 104 q 331 -15 456 -15 q 148 84 214 -15 q 82 360 82 183 q 114 560 82 474 q 204 694 146 647 q 340 742 263 742 q 522 644 451 742 l 522 1032 l 600 1022 l 600 -117 q 685 -219 600 -219 q 735 -212 714 -219 q 778 -189 756 -204 l 813 -237 m 342 50 q 444 83 401 50 q 522 183 488 117 l 522 565 q 353 676 453 676 q 215 595 265 676 q 165 361 164 514 q 212 128 165 207 q 342 50 258 50 z "},"ƌ":{"ha":731,"x_min":82,"x_max":600,"o":"m 600 0 l 532 0 l 525 108 q 445 18 493 51 q 331 -15 397 -15 q 148 84 214 -15 q 82 360 82 183 q 114 560 82 474 q 204 694 146 647 q 340 742 263 742 q 522 644 451 742 l 522 958 l 233 958 l 233 1022 l 600 1022 l 600 0 m 342 50 q 444 83 401 50 q 522 183 488 117 l 522 565 q 353 676 453 676 q 215 595 265 676 q 165 361 164 514 q 212 128 165 207 q 342 50 258 50 z "},"ǳ":{"ha":1260,"x_min":82,"x_max":1218,"o":"m 600 1022 l 600 0 l 532 0 l 525 108 q 445 18 493 51 q 331 -15 397 -15 q 148 84 214 -15 q 82 360 82 183 q 114 560 82 474 q 204 694 146 647 q 340 742 263 742 q 522 644 451 742 l 522 1032 l 600 1022 m 342 50 q 444 83 401 50 q 522 183 488 117 l 522 565 q 353 676 453 676 q 215 595 265 676 q 165 361 164 514 q 212 128 165 207 q 342 50 258 50 m 1218 726 l 1218 665 l 851 68 l 1217 68 l 1208 0 l 764 0 l 764 60 l 1132 658 l 794 658 l 794 726 l 1218 726 z "},"ʣ":{"ha":1104,"x_min":82,"x_max":1061,"o":"m 1061 665 l 685 68 l 1060 68 l 1051 0 l 532 0 l 525 108 q 445 18 493 51 q 331 -15 397 -15 q 148 84 214 -15 q 82 360 82 183 q 114 560 82 474 q 204 694 146 647 q 340 742 263 742 q 522 644 451 742 l 522 1032 l 600 1022 l 600 726 l 1061 726 l 1061 665 m 342 50 q 444 83 401 50 q 522 183 488 117 l 522 565 q 353 676 453 676 q 215 595 265 676 q 165 361 164 514 q 212 128 165 207 q 342 50 258 50 m 600 60 l 976 658 l 600 658 l 600 60 z "},"ǆ":{"ha":1260,"x_min":82,"x_max":1218,"o":"m 600 1022 l 600 0 l 532 0 l 525 108 q 445 18 493 51 q 331 -15 397 -15 q 148 84 214 -15 q 82 360 82 183 q 114 560 82 474 q 204 694 146 647 q 340 742 263 742 q 522 644 451 742 l 522 1032 l 600 1022 m 342 50 q 444 83 401 50 q 522 183 488 117 l 522 565 q 353 676 453 676 q 215 595 265 676 q 165 361 164 514 q 212 128 165 207 q 342 50 258 50 m 1218 726 l 1218 665 l 851 68 l 1217 68 l 1208 0 l 764 0 l 764 60 l 1132 658 l 794 658 l 794 726 l 1218 726 m 1154 1065 l 1188 1028 l 1026 879 l 978 879 l 815 1028 l 850 1065 l 1003 947 l 1154 1065 z "},"ʥ":{"ha":1121,"x_min":82,"x_max":1146,"o":"m 1146 156 q 1089 38 1146 75 q 911 0 1032 1 q 908 -153 908 -53 l 850 -153 q 853 0 849 -85 l 532 0 l 525 108 q 445 18 493 51 q 331 -15 397 -15 q 148 84 214 -15 q 82 360 82 183 q 114 560 82 474 q 204 694 146 647 q 340 742 263 742 q 522 644 451 742 l 522 1032 l 600 1022 l 600 726 l 1063 726 l 1063 665 l 686 68 l 861 68 q 915 228 872 174 q 1024 282 957 282 q 1112 249 1078 282 q 1146 156 1146 215 m 342 50 q 444 83 401 50 q 522 183 488 117 l 522 565 q 353 676 453 676 q 215 595 265 676 q 165 361 164 514 q 212 128 165 207 q 342 50 258 50 m 600 658 l 600 63 l 975 658 l 600 658 m 921 68 q 1043 87 1007 67 q 1079 156 1079 107 q 1064 207 1079 189 q 1021 225 1049 225 q 921 68 938 225 z "},"e":{"ha":672,"x_min":79,"x_max":600,"o":"m 600 390 q 597 332 600 360 l 160 332 q 219 119 165 186 q 363 51 274 51 q 453 68 414 51 q 536 121 493 85 l 575 72 q 474 7 526 29 q 360 -15 422 -15 q 154 82 229 -15 q 79 357 79 179 q 151 640 79 538 q 346 742 222 742 q 535 650 469 742 q 600 390 600 558 m 524 415 q 479 609 524 542 q 346 676 435 676 q 215 608 265 676 q 160 393 165 540 l 524 393 l 524 415 z "},"é":{"ha":672,"x_min":79,"x_max":600,"o":"m 600 390 q 597 332 600 360 l 160 332 q 219 119 165 186 q 363 51 274 51 q 453 68 414 51 q 536 121 493 85 l 575 72 q 474 7 526 29 q 360 -15 422 -15 q 154 82 229 -15 q 79 357 79 179 q 151 640 79 538 q 346 742 222 742 q 535 650 469 742 q 600 390 600 558 m 524 415 q 479 609 524 542 q 346 676 435 676 q 215 608 265 676 q 160 393 165 540 l 524 393 l 524 415 m 439 1082 l 475 1014 l 229 897 l 204 940 l 439 1082 z "},"ĕ":{"ha":672,"x_min":79,"x_max":600,"o":"m 600 390 q 597 332 600 360 l 160 332 q 219 119 165 186 q 363 51 274 51 q 453 68 414 51 q 536 121 493 85 l 575 72 q 474 7 526 29 q 360 -15 422 -15 q 154 82 229 -15 q 79 357 79 179 q 151 640 79 538 q 346 742 222 742 q 535 650 469 742 q 600 390 600 558 m 524 415 q 479 609 524 542 q 346 676 435 676 q 215 608 265 676 q 160 393 165 540 l 524 393 l 524 415 m 346 907 q 235 948 279 907 q 182 1060 190 989 l 233 1071 q 346 971 258 971 q 460 1071 435 971 l 511 1060 q 458 948 503 989 q 346 907 413 907 z "},"ě":{"ha":672,"x_min":79,"x_max":600,"o":"m 600 390 q 597 332 600 360 l 160 332 q 219 119 165 186 q 363 51 274 51 q 453 68 414 51 q 536 121 493 85 l 575 72 q 474 7 526 29 q 360 -15 422 -15 q 154 82 229 -15 q 79 357 79 179 q 151 640 79 538 q 346 742 222 742 q 535 650 469 742 q 600 390 600 558 m 524 415 q 479 609 524 542 q 346 676 435 676 q 215 608 265 676 q 160 393 165 540 l 524 393 l 524 415 m 499 1065 l 532 1028 l 371 879 l 322 879 l 160 1028 l 194 1065 l 347 947 l 499 1065 z "},"ȩ":{"ha":672,"x_min":79,"x_max":600,"o":"m 600 390 q 597 332 600 360 l 160 332 q 219 119 165 186 q 363 51 274 51 q 453 68 414 51 q 536 121 493 85 l 575 72 q 383 -14 485 -7 l 383 -90 q 471 -124 442 -96 q 500 -196 500 -151 q 462 -283 500 -251 q 365 -314 424 -314 q 264 -285 306 -314 l 290 -239 q 364 -258 326 -258 q 413 -242 394 -258 q 432 -196 432 -226 q 405 -149 432 -164 q 319 -133 378 -133 l 331 -14 q 146 93 213 -3 q 79 357 79 189 q 151 640 79 538 q 346 742 222 742 q 535 650 469 742 q 600 390 600 558 m 524 415 q 479 609 524 542 q 346 676 435 676 q 215 608 265 676 q 160 393 165 540 l 524 393 l 524 415 z "},"ê":{"ha":672,"x_min":79,"x_max":600,"o":"m 600 390 q 597 332 600 360 l 160 332 q 219 119 165 186 q 363 51 274 51 q 453 68 414 51 q 536 121 493 85 l 575 72 q 474 7 526 29 q 360 -15 422 -15 q 154 82 229 -15 q 79 357 79 179 q 151 640 79 538 q 346 742 222 742 q 535 650 469 742 q 600 390 600 558 m 524 415 q 479 609 524 542 q 346 676 435 676 q 215 608 265 676 q 160 393 165 540 l 524 393 l 524 415 m 194 896 l 160 933 l 322 1082 l 369 1082 l 532 933 l 499 896 l 346 1014 l 194 896 z "},"ế":{"ha":672,"x_min":79,"x_max":646,"o":"m 600 390 q 597 332 600 360 l 160 332 q 219 119 165 186 q 363 51 274 51 q 453 68 414 51 q 536 121 493 85 l 575 72 q 474 7 526 29 q 360 -15 422 -15 q 154 82 229 -15 q 79 357 79 179 q 151 640 79 538 q 346 742 222 742 q 535 650 469 742 q 600 390 600 558 m 524 415 q 479 609 524 542 q 346 676 435 676 q 215 608 265 676 q 160 393 165 540 l 524 393 l 524 415 m 193 815 l 158 853 l 321 994 l 369 994 l 531 853 l 497 815 l 344 926 l 193 815 m 592 1174 l 646 1128 l 490 958 l 454 990 l 592 1174 z "},"ệ":{"ha":672,"x_min":79,"x_max":600,"o":"m 600 390 q 597 332 600 360 l 160 332 q 219 119 165 186 q 363 51 274 51 q 453 68 414 51 q 536 121 493 85 l 575 72 q 474 7 526 29 q 360 -15 422 -15 q 154 82 229 -15 q 79 357 79 179 q 151 640 79 538 q 346 742 222 742 q 535 650 469 742 q 600 390 600 558 m 524 415 q 479 609 524 542 q 346 676 435 676 q 215 608 265 676 q 160 393 165 540 l 524 393 l 524 415 m 194 896 l 160 933 l 322 1082 l 369 1082 l 532 933 l 499 896 l 346 1014 l 194 896 m 363 -235 q 322 -218 338 -235 q 306 -178 306 -201 q 322 -137 306 -153 q 363 -121 338 -121 q 403 -137 388 -121 q 419 -178 419 -153 q 403 -218 419 -201 q 363 -235 388 -235 z "},"ề":{"ha":672,"x_min":47,"x_max":600,"o":"m 600 390 q 597 332 600 360 l 160 332 q 219 119 165 186 q 363 51 274 51 q 453 68 414 51 q 536 121 493 85 l 575 72 q 474 7 526 29 q 360 -15 422 -15 q 154 82 229 -15 q 79 357 79 179 q 151 640 79 538 q 346 742 222 742 q 535 650 469 742 q 600 390 600 558 m 524 415 q 479 609 524 542 q 346 676 435 676 q 215 608 265 676 q 160 393 165 540 l 524 393 l 524 415 m 192 815 l 157 853 l 319 994 l 368 994 l 529 853 l 496 815 l 343 926 l 192 815 m 101 1174 l 239 990 l 203 958 l 47 1128 l 101 1174 z "},"ể":{"ha":672,"x_min":79,"x_max":628,"o":"m 600 390 q 597 332 600 360 l 160 332 q 219 119 165 186 q 363 51 274 51 q 453 68 414 51 q 536 121 493 85 l 575 72 q 474 7 526 29 q 360 -15 422 -15 q 154 82 229 -15 q 79 357 79 179 q 151 640 79 538 q 346 742 222 742 q 535 650 469 742 q 600 390 600 558 m 524 415 q 479 609 524 542 q 346 676 435 676 q 215 608 265 676 q 160 393 165 540 l 524 393 l 524 415 m 193 815 l 158 853 l 321 994 l 369 994 l 531 853 l 497 815 l 344 926 l 193 815 m 472 1068 q 538 1085 515 1071 q 560 1133 560 1100 q 544 1176 560 1161 q 500 1190 528 1190 q 429 1172 464 1190 l 408 1218 q 511 1249 456 1249 q 597 1219 565 1249 q 628 1139 628 1189 q 603 1065 628 1092 q 535 1032 579 1039 l 535 954 l 472 954 l 472 1068 z "},"ễ":{"ha":672,"x_min":79,"x_max":600,"o":"m 600 390 q 597 332 600 360 l 160 332 q 219 119 165 186 q 363 51 274 51 q 453 68 414 51 q 536 121 493 85 l 575 72 q 474 7 526 29 q 360 -15 422 -15 q 154 82 229 -15 q 79 357 79 179 q 151 640 79 538 q 346 742 222 742 q 535 650 469 742 q 600 390 600 558 m 524 415 q 479 609 524 542 q 346 676 435 676 q 215 608 265 676 q 160 393 165 540 l 524 393 l 524 415 m 193 801 l 158 839 l 321 981 l 369 981 l 531 839 l 497 801 l 344 913 l 193 801 m 419 1038 q 377 1047 396 1038 q 331 1072 358 1056 q 272 1099 293 1099 q 235 1086 251 1099 q 201 1044 219 1074 l 156 1068 q 271 1160 201 1160 q 311 1151 292 1160 q 353 1126 331 1142 q 390 1105 376 1111 q 418 1099 403 1099 q 453 1113 438 1099 q 489 1158 469 1126 l 535 1135 q 419 1038 492 1038 z "},"ȅ":{"ha":672,"x_min":79,"x_max":600,"o":"m 600 390 q 597 332 600 360 l 160 332 q 219 119 165 186 q 363 51 274 51 q 453 68 414 51 q 536 121 493 85 l 575 72 q 474 7 526 29 q 360 -15 422 -15 q 154 82 229 -15 q 79 357 79 179 q 151 640 79 538 q 346 742 222 742 q 535 650 469 742 q 600 390 600 558 m 524 415 q 479 609 524 542 q 346 676 435 676 q 215 608 265 676 q 160 393 165 540 l 524 393 l 524 415 m 207 1124 l 306 914 l 258 893 l 140 1089 l 207 1124 m 371 1124 l 460 921 l 411 899 l 304 1089 l 371 1124 z "},"ë":{"ha":672,"x_min":79,"x_max":600,"o":"m 600 390 q 597 332 600 360 l 160 332 q 219 119 165 186 q 363 51 274 51 q 453 68 414 51 q 536 121 493 85 l 575 72 q 474 7 526 29 q 360 -15 422 -15 q 154 82 229 -15 q 79 357 79 179 q 151 640 79 538 q 346 742 222 742 q 535 650 469 742 q 600 390 600 558 m 524 415 q 479 609 524 542 q 346 676 435 676 q 215 608 265 676 q 160 393 165 540 l 524 393 l 524 415 m 228 1028 q 266 1013 251 1028 q 281 975 281 997 q 266 936 281 951 q 228 921 251 921 q 190 936 206 921 q 175 975 175 951 q 190 1013 175 997 q 228 1028 206 1028 m 467 1028 q 504 1013 489 1028 q 519 975 519 997 q 504 936 519 951 q 467 921 489 921 q 428 936 443 921 q 413 975 413 951 q 428 1013 413 997 q 467 1028 443 1028 z "},"ė":{"ha":672,"x_min":79,"x_max":600,"o":"m 600 390 q 597 332 600 360 l 160 332 q 219 119 165 186 q 363 51 274 51 q 453 68 414 51 q 536 121 493 85 l 575 72 q 474 7 526 29 q 360 -15 422 -15 q 154 82 229 -15 q 79 357 79 179 q 151 640 79 538 q 346 742 222 742 q 535 650 469 742 q 600 390 600 558 m 524 415 q 479 609 524 542 q 346 676 435 676 q 215 608 265 676 q 160 393 165 540 l 524 393 l 524 415 m 347 1044 q 388 1028 372 1044 q 404 988 404 1011 q 388 947 404 963 q 347 931 372 931 q 306 947 322 931 q 290 988 290 963 q 306 1028 290 1011 q 347 1044 322 1044 z "},"ẹ":{"ha":672,"x_min":79,"x_max":600,"o":"m 600 390 q 597 332 600 360 l 160 332 q 219 119 165 186 q 363 51 274 51 q 453 68 414 51 q 536 121 493 85 l 575 72 q 474 7 526 29 q 360 -15 422 -15 q 154 82 229 -15 q 79 357 79 179 q 151 640 79 538 q 346 742 222 742 q 535 650 469 742 q 600 390 600 558 m 524 415 q 479 609 524 542 q 346 676 435 676 q 215 608 265 676 q 160 393 165 540 l 524 393 l 524 415 m 363 -235 q 322 -218 338 -235 q 306 -178 306 -201 q 322 -137 306 -153 q 363 -121 338 -121 q 403 -137 388 -121 q 419 -178 419 -153 q 403 -218 419 -201 q 363 -235 388 -235 z "},"è":{"ha":672,"x_min":79,"x_max":600,"o":"m 600 390 q 597 332 600 360 l 160 332 q 219 119 165 186 q 363 51 274 51 q 453 68 414 51 q 536 121 493 85 l 575 72 q 474 7 526 29 q 360 -15 422 -15 q 154 82 229 -15 q 79 357 79 179 q 151 640 79 538 q 346 742 222 742 q 535 650 469 742 q 600 390 600 558 m 524 415 q 479 609 524 542 q 346 676 435 676 q 215 608 265 676 q 160 393 165 540 l 524 393 l 524 415 m 254 1082 l 489 940 l 463 897 l 217 1014 l 254 1082 z "},"ẻ":{"ha":672,"x_min":79,"x_max":600,"o":"m 600 390 q 597 332 600 360 l 160 332 q 219 119 165 186 q 363 51 274 51 q 453 68 414 51 q 536 121 493 85 l 575 72 q 474 7 526 29 q 360 -15 422 -15 q 154 82 229 -15 q 79 357 79 179 q 151 640 79 538 q 346 742 222 742 q 535 650 469 742 q 600 390 600 558 m 524 415 q 479 609 524 542 q 346 676 435 676 q 215 608 265 676 q 160 393 165 540 l 524 393 l 524 415 m 315 971 q 381 988 358 974 q 403 1036 403 1003 q 387 1078 403 1064 q 343 1093 371 1093 q 272 1075 307 1093 l 251 1121 q 354 1151 299 1151 q 440 1122 408 1151 q 471 1042 471 1092 q 447 968 471 994 q 378 935 422 942 l 378 857 l 315 857 l 315 971 z "},"ȇ":{"ha":672,"x_min":79,"x_max":600,"o":"m 600 390 q 597 332 600 360 l 160 332 q 219 119 165 186 q 363 51 274 51 q 453 68 414 51 q 536 121 493 85 l 575 72 q 474 7 526 29 q 360 -15 422 -15 q 154 82 229 -15 q 79 357 79 179 q 151 640 79 538 q 346 742 222 742 q 535 650 469 742 q 600 390 600 558 m 524 415 q 479 609 524 542 q 346 676 435 676 q 215 608 265 676 q 160 393 165 540 l 524 393 l 524 415 m 346 1031 q 458 990 413 1031 q 511 878 503 949 l 460 867 q 346 967 435 967 q 233 867 258 967 l 182 878 q 235 990 190 949 q 346 1031 279 1031 z "},"ē":{"ha":672,"x_min":79,"x_max":600,"o":"m 600 390 q 597 332 600 360 l 160 332 q 219 119 165 186 q 363 51 274 51 q 453 68 414 51 q 536 121 493 85 l 575 72 q 474 7 526 29 q 360 -15 422 -15 q 154 82 229 -15 q 79 357 79 179 q 151 640 79 538 q 346 742 222 742 q 535 650 469 742 q 600 390 600 558 m 524 415 q 479 609 524 542 q 346 676 435 676 q 215 608 265 676 q 160 393 165 540 l 524 393 l 524 415 m 500 940 l 196 940 l 196 1001 l 500 1001 l 500 940 z "},"ę":{"ha":672,"x_min":79,"x_max":600,"o":"m 600 390 q 597 332 600 360 l 160 332 q 219 119 165 186 q 363 51 274 51 q 453 68 414 51 q 536 121 493 85 l 575 72 q 469 6 526 28 q 356 -72 389 -35 q 322 -157 322 -108 q 342 -210 322 -192 q 401 -229 361 -229 q 472 -221 431 -229 l 465 -285 q 392 -294 422 -294 q 288 -259 325 -294 q 251 -168 251 -224 q 357 -15 251 -75 q 153 83 228 -14 q 79 357 79 179 q 151 640 79 538 q 346 742 222 742 q 535 650 469 742 q 600 390 600 558 m 524 415 q 479 609 524 542 q 346 676 435 676 q 215 608 265 676 q 160 393 165 540 l 524 393 l 524 415 z "},"ɛ":{"ha":576,"x_min":79,"x_max":549,"o":"m 326 742 q 529 676 442 742 l 493 628 q 418 665 456 653 q 333 676 381 676 q 224 642 263 676 q 185 544 185 607 q 226 449 185 486 q 338 411 268 411 l 413 411 l 403 349 l 332 349 q 203 312 244 349 q 161 197 161 275 q 206 90 161 129 q 326 50 250 50 q 424 67 383 50 q 508 121 465 85 l 549 72 q 322 -15 454 -15 q 147 42 214 -15 q 79 197 79 99 q 124 328 79 282 q 247 385 169 374 q 106 549 106 419 q 167 690 106 638 q 326 742 228 742 z "},"ʚ":{"ha":700,"x_min":79,"x_max":621,"o":"m 333 -15 q 149 44 218 -15 q 79 210 79 103 q 124 335 79 293 q 253 388 168 376 q 149 442 183 404 q 114 547 114 481 q 175 688 114 635 q 333 742 236 742 q 545 643 469 742 q 621 363 621 544 q 547 83 621 181 q 333 -15 474 -15 m 335 50 q 488 127 438 50 q 539 363 539 204 q 486 599 539 522 q 335 676 433 676 q 231 641 268 676 q 193 546 193 606 q 236 447 193 482 q 354 413 279 413 l 386 413 l 390 350 l 344 350 q 209 318 257 350 q 161 210 161 286 q 207 88 161 126 q 335 50 253 50 z "},"ɜ":{"ha":604,"x_min":28,"x_max":525,"o":"m 275 742 q 429 690 368 742 q 490 550 490 639 q 455 442 490 482 q 350 388 419 403 q 481 335 436 376 q 525 210 525 293 q 455 43 525 101 q 272 -15 385 -15 q 28 79 129 -15 l 71 125 q 163 69 117 88 q 269 50 208 50 q 396 88 349 50 q 443 210 443 126 q 394 318 443 286 q 250 350 344 350 l 175 350 l 181 413 l 242 413 q 367 447 324 413 q 411 549 411 482 q 372 643 411 610 q 268 676 333 676 q 173 662 213 676 q 88 617 133 647 l 50 664 q 153 722 100 703 q 275 742 207 742 z "},"ɞ":{"ha":700,"x_min":79,"x_max":621,"o":"m 367 -15 q 153 83 226 -15 q 79 363 79 181 q 155 643 79 544 q 367 742 231 742 q 525 688 464 742 q 586 547 586 635 q 551 442 586 481 q 447 388 517 404 q 576 335 532 376 q 621 210 621 293 q 551 44 621 103 q 367 -15 482 -15 m 365 50 q 493 88 447 50 q 539 210 539 126 q 491 318 539 286 q 356 350 443 350 l 310 350 l 314 413 l 346 413 q 464 447 421 413 q 507 546 507 482 q 469 641 507 606 q 365 676 432 676 q 214 599 267 676 q 161 363 161 522 q 212 127 161 204 q 365 50 263 50 z "},"ɝ":{"ha":840,"x_min":28,"x_max":875,"o":"m 875 496 q 746 449 817 449 q 634 491 675 449 q 593 611 593 533 l 593 660 l 485 599 q 490 550 490 578 q 455 442 490 482 q 350 388 419 403 q 481 335 436 376 q 525 210 525 293 q 455 43 525 101 q 272 -15 385 -15 q 28 79 129 -15 l 71 125 q 163 69 117 88 q 269 50 208 50 q 396 88 349 50 q 443 210 443 126 q 394 318 443 286 q 250 350 344 350 l 175 350 l 181 413 l 242 413 q 367 447 324 413 q 411 549 411 482 q 372 643 411 610 q 268 676 333 676 q 173 662 213 676 q 88 617 133 647 l 50 664 q 153 722 100 703 q 275 742 207 742 q 385 719 336 742 q 461 654 433 696 l 592 726 l 665 726 l 665 618 q 750 514 665 514 q 799 522 778 514 q 842 544 819 529 l 875 496 z "},"ɘ":{"ha":672,"x_min":72,"x_max":593,"o":"m 332 742 q 526 644 460 742 q 593 357 593 546 q 518 82 593 179 q 313 -15 443 -15 q 197 7 249 -15 q 97 72 144 29 l 136 121 q 218 68 178 85 q 314 51 258 51 q 513 332 501 51 l 75 332 q 72 390 72 360 q 140 649 72 557 q 332 742 207 742 m 149 393 l 513 393 q 462 613 507 549 q 332 676 417 676 q 196 608 243 676 q 149 415 149 540 l 149 393 z "},"ʃ":{"ha":339,"x_min":-82,"x_max":419,"o":"m 289 1032 q 419 985 361 1032 l 386 935 q 342 958 363 950 q 293 967 321 967 q 208 860 208 967 l 208 -114 q 165 -241 208 -197 q 50 -285 121 -285 q -82 -237 -24 -285 l -47 -189 q -4 -212 -25 -204 q 46 -219 17 -219 q 131 -117 131 -219 l 131 856 q 173 987 131 942 q 289 1032 215 1032 z "},"ʆ":{"ha":363,"x_min":-104,"x_max":442,"o":"m 315 967 q 231 860 231 967 l 231 726 l 232 726 l 232 -25 q 363 -78 293 -43 l 342 -124 q 231 -81 296 -101 q 176 -232 224 -179 q 43 -285 129 -285 q -65 -248 -25 -285 q -104 -150 -104 -211 q -58 -42 -104 -81 q 67 -3 -11 -3 q 154 -10 115 -3 l 154 725 l 153 725 l 153 856 q 195 987 153 942 q 311 1032 238 1032 q 442 985 383 1032 l 408 935 q 364 958 385 950 q 315 967 343 967 m 43 -228 q 126 -188 99 -228 q 154 -65 153 -149 q 68 -56 117 -56 q -13 -79 14 -56 q -40 -147 -40 -103 q -19 -207 -40 -186 q 43 -228 3 -228 z "},"ƪ":{"ha":364,"x_min":-65,"x_max":444,"o":"m 444 -237 q 313 -285 386 -285 q 198 -241 242 -285 q 154 -114 154 -197 l 154 1 l 156 1 l 156 713 q 81 696 119 696 q -25 739 15 696 q -65 861 -65 782 q -24 986 -65 940 q 85 1032 18 1032 q 194 989 154 1032 q 233 868 233 946 l 233 0 l 232 0 l 232 -117 q 317 -219 232 -219 q 367 -212 346 -219 q 410 -189 388 -204 l 444 -237 m 90 760 q 156 775 125 760 l 156 872 q 85 968 156 968 q 30 942 49 968 q 11 864 11 915 q 31 784 11 808 q 90 760 51 760 z "},"ʅ":{"ha":504,"x_min":1,"x_max":503,"o":"m 503 32 q 371 -15 444 -15 q 256 28 300 -15 q 213 156 213 72 l 213 569 q 128 676 213 676 q 79 668 100 676 q 35 644 58 660 l 1 694 q 132 742 60 742 q 248 697 206 742 q 290 565 290 651 l 290 153 q 375 50 290 50 q 425 58 404 50 q 468 81 446 65 l 503 32 z "},"ɇ":{"ha":672,"x_min":79,"x_max":600,"o":"m 347 332 l 282 68 q 363 51 319 51 q 454 68 414 51 q 538 121 494 85 l 575 74 q 474 7 526 29 q 360 -15 422 -15 q 265 0 311 -15 l 242 -97 l 200 -87 l 226 18 q 117 145 156 58 q 79 357 79 232 q 151 639 79 536 q 346 742 222 742 q 404 736 381 742 l 425 822 l 465 813 l 443 724 q 560 606 519 692 q 600 390 600 521 q 597 332 600 360 l 347 332 m 346 676 q 215 608 265 676 q 160 393 165 540 l 319 393 l 388 672 q 346 676 369 676 m 524 415 q 428 658 524 606 l 363 393 l 524 393 l 524 415 m 304 332 l 160 332 q 244 92 168 157 l 304 332 z "},"ẽ":{"ha":672,"x_min":79,"x_max":600,"o":"m 600 390 q 597 332 600 360 l 160 332 q 219 119 165 186 q 363 51 274 51 q 453 68 414 51 q 536 121 493 85 l 575 72 q 474 7 526 29 q 360 -15 422 -15 q 154 82 229 -15 q 79 357 79 179 q 151 640 79 538 q 346 742 222 742 q 535 650 469 742 q 600 390 600 558 m 524 415 q 479 609 524 542 q 346 676 435 676 q 215 608 265 676 q 160 393 165 540 l 524 393 l 524 415 m 421 928 q 378 937 397 928 q 332 963 360 946 q 274 989 294 989 q 237 976 253 989 q 203 935 221 964 l 157 958 q 272 1050 203 1050 q 313 1041 294 1050 q 354 1017 332 1032 q 391 995 378 1001 q 419 989 404 989 q 455 1003 439 989 q 490 1049 471 1017 l 536 1025 q 421 928 493 928 z "},"ǝ":{"ha":679,"x_min":72,"x_max":600,"o":"m 335 742 q 533 648 465 742 q 600 367 600 554 q 529 80 600 175 q 332 -15 458 -15 q 141 77 210 -15 q 72 342 72 169 q 75 394 72 364 l 519 394 q 333 675 511 675 q 241 659 283 675 q 154 607 199 643 l 117 658 q 335 742 213 742 m 332 50 q 470 115 422 50 q 519 333 518 181 l 150 333 l 150 325 q 197 119 150 188 q 332 50 244 50 z "},"ə":{"ha":679,"x_min":72,"x_max":600,"o":"m 335 742 q 533 648 465 742 q 600 367 600 554 q 529 80 600 175 q 332 -15 458 -15 q 141 77 210 -15 q 72 342 72 169 q 75 394 72 364 l 519 394 q 333 675 511 675 q 241 659 283 675 q 154 607 199 643 l 117 658 q 335 742 213 742 m 332 50 q 470 115 422 50 q 519 333 518 181 l 150 333 l 150 325 q 197 119 150 188 q 332 50 244 50 z "},"ɚ":{"ha":914,"x_min":72,"x_max":949,"o":"m 949 496 q 819 449 889 449 q 708 491 749 449 q 667 611 667 533 l 667 660 l 560 600 q 600 367 600 511 q 529 80 600 175 q 332 -15 458 -15 q 141 77 210 -15 q 72 342 72 169 q 75 394 72 364 l 519 394 q 333 675 511 675 q 241 659 283 675 q 154 607 199 643 l 117 658 q 335 742 213 742 q 531 651 465 742 l 665 726 l 739 726 l 739 618 q 824 514 739 514 q 872 522 851 514 q 915 544 893 529 l 949 496 m 332 50 q 470 115 422 50 q 519 333 518 181 l 150 333 l 150 325 q 197 119 150 188 q 332 50 244 50 z "},"ʒ":{"ha":578,"x_min":13,"x_max":538,"o":"m 243 278 q 465 208 392 278 q 538 6 538 139 q 463 -204 538 -124 q 260 -285 388 -285 q 121 -255 181 -285 q 13 -165 61 -225 l 60 -124 q 151 -196 104 -174 q 258 -218 199 -218 q 405 -158 354 -218 q 456 7 456 -99 q 403 167 456 118 q 233 215 350 215 l 153 215 l 153 276 l 419 660 l 42 660 l 42 726 l 507 726 l 507 665 l 232 278 l 243 278 z "},"ǯ":{"ha":578,"x_min":13,"x_max":538,"o":"m 243 278 q 465 208 392 278 q 538 6 538 139 q 463 -204 538 -124 q 260 -285 388 -285 q 121 -255 181 -285 q 13 -165 61 -225 l 60 -124 q 151 -196 104 -174 q 258 -218 199 -218 q 405 -158 354 -218 q 456 7 456 -99 q 403 167 456 118 q 233 215 350 215 l 153 215 l 153 276 l 419 660 l 42 660 l 42 726 l 507 726 l 507 665 l 232 278 l 243 278 m 425 1065 l 458 1028 l 297 879 l 249 879 l 86 1028 l 121 1065 l 274 947 l 425 1065 z "},"ʓ":{"ha":578,"x_min":-22,"x_max":538,"o":"m 538 10 q 492 -160 538 -89 q 357 -261 446 -231 l 389 -339 l 333 -361 l 299 -278 q 211 -285 254 -285 q 37 -241 96 -285 q -22 -117 -22 -197 q 16 -12 -22 -53 q 117 28 54 28 q 199 8 164 28 q 265 -61 233 -12 q 331 -199 297 -110 q 424 -122 393 -175 q 456 10 456 -68 q 402 167 456 118 q 233 215 349 215 l 153 215 l 153 276 l 419 660 l 42 660 l 42 726 l 507 726 l 507 665 l 232 278 l 244 278 q 465 209 392 278 q 538 10 538 140 m 46 -115 q 88 -194 46 -171 q 211 -218 129 -218 q 272 -214 246 -218 q 198 -69 231 -107 q 121 -31 165 -31 q 66 -53 86 -31 q 46 -115 46 -75 z "},"ƹ":{"ha":578,"x_min":40,"x_max":567,"o":"m 567 -165 q 456 -255 517 -225 q 314 -285 396 -285 q 115 -208 189 -285 q 40 -7 40 -132 q 115 202 40 126 q 336 278 190 278 l 346 278 l 71 665 l 71 726 l 536 726 l 536 660 l 160 660 l 426 276 l 426 215 l 344 215 q 176 160 231 215 q 122 -6 122 106 q 172 -162 122 -107 q 315 -218 222 -218 q 426 -196 379 -218 q 519 -124 474 -174 l 567 -165 z "},"ƺ":{"ha":572,"x_min":38,"x_max":535,"o":"m 188 -286 q 77 -209 114 -250 q 40 -112 40 -168 q 92 -11 40 -47 q 254 40 144 25 q 408 90 363 57 q 453 197 453 122 q 317 313 453 313 l 142 313 l 142 375 l 403 660 l 38 660 l 38 726 l 497 726 l 497 665 l 226 375 l 319 375 q 478 328 422 375 q 535 196 535 282 q 472 49 533 97 q 289 -21 411 0 q 156 -56 193 -36 q 119 -118 119 -75 q 142 -177 119 -151 q 214 -232 164 -203 l 188 -286 z "},"f":{"ha":404,"x_min":26,"x_max":476,"o":"m 329 967 q 244 939 272 967 q 217 851 217 911 l 217 726 l 389 726 l 379 663 l 217 663 l 217 0 l 139 0 l 139 663 l 26 663 l 26 726 l 139 726 l 139 854 q 188 984 139 936 q 324 1032 238 1032 q 476 993 403 1032 l 450 936 q 329 967 389 967 z "},"ḟ":{"ha":404,"x_min":26,"x_max":476,"o":"m 329 967 q 244 939 272 967 q 217 851 217 911 l 217 726 l 389 726 l 379 663 l 217 663 l 217 0 l 139 0 l 139 663 l 26 663 l 26 726 l 139 726 l 139 854 q 188 984 139 936 q 324 1032 238 1032 q 476 993 403 1032 l 450 936 q 329 967 389 967 m 319 1290 q 360 1274 344 1290 q 376 1233 376 1257 q 360 1192 376 1208 q 319 1176 344 1176 q 278 1192 294 1176 q 263 1233 263 1208 q 278 1274 263 1257 q 319 1290 294 1290 z "},"ʩ":{"ha":1088,"x_min":26,"x_max":964,"o":"m 781 742 q 916 685 868 742 q 964 526 964 628 l 964 -114 q 920 -241 964 -197 q 806 -285 876 -285 q 674 -237 732 -285 l 708 -189 q 751 -212 731 -204 q 801 -219 772 -219 q 886 -117 886 -219 l 886 515 q 856 638 886 599 q 767 678 826 678 q 658 638 707 678 q 565 524 610 597 l 565 0 l 488 0 l 488 663 l 217 663 l 217 0 l 139 0 l 139 663 l 26 663 l 26 726 l 139 726 l 139 854 q 188 984 139 936 q 324 1032 238 1032 q 476 993 403 1032 l 450 936 q 329 967 389 967 q 244 939 272 967 q 217 851 217 911 l 217 726 l 554 726 l 563 600 q 781 742 649 742 z "},"g":{"ha":632,"x_min":40,"x_max":621,"o":"m 621 713 q 547 697 589 701 q 440 692 504 693 q 553 493 553 633 q 489 319 553 383 q 314 254 425 254 q 229 269 268 254 q 179 185 179 235 q 288 107 179 107 l 382 107 q 542 56 483 107 q 600 -76 600 6 q 528 -229 600 -174 q 314 -285 456 -285 q 104 -234 168 -285 q 40 -76 40 -183 l 111 -76 q 157 -187 113 -154 q 315 -219 201 -219 q 522 -81 522 -219 q 483 10 522 -22 q 368 42 443 42 l 282 42 q 151 76 196 42 q 107 168 107 111 q 181 290 107 239 q 97 373 124 322 q 69 496 69 424 q 136 674 69 607 q 313 742 203 742 q 485 751 431 740 q 597 786 540 761 l 621 713 m 313 681 q 189 632 231 681 q 147 496 147 583 q 192 360 147 410 q 311 311 236 311 q 432 358 390 311 q 474 494 474 404 q 433 631 474 582 q 313 681 392 681 z "},"ǵ":{"ha":632,"x_min":40,"x_max":621,"o":"m 621 713 q 547 697 589 701 q 440 692 504 693 q 553 493 553 633 q 489 319 553 383 q 314 254 425 254 q 229 269 268 254 q 179 185 179 235 q 288 107 179 107 l 382 107 q 542 56 483 107 q 600 -76 600 6 q 528 -229 600 -174 q 314 -285 456 -285 q 104 -234 168 -285 q 40 -76 40 -183 l 111 -76 q 157 -187 113 -154 q 315 -219 201 -219 q 522 -81 522 -219 q 483 10 522 -22 q 368 42 443 42 l 282 42 q 151 76 196 42 q 107 168 107 111 q 181 290 107 239 q 97 373 124 322 q 69 496 69 424 q 136 674 69 607 q 313 742 203 742 q 485 751 431 740 q 597 786 540 761 l 621 713 m 313 681 q 189 632 231 681 q 147 496 147 583 q 192 360 147 410 q 311 311 236 311 q 432 358 390 311 q 474 494 474 404 q 433 631 474 582 q 313 681 392 681 m 408 1082 l 444 1014 l 199 897 l 174 940 l 408 1082 z "},"ɣ":{"ha":594,"x_min":22,"x_max":572,"o":"m 340 74 q 399 -60 381 -7 q 417 -165 417 -114 q 385 -252 417 -219 q 299 -285 354 -285 q 212 -253 243 -285 q 181 -167 181 -221 q 199 -63 181 -118 q 256 72 217 -8 l 22 726 l 104 726 l 299 129 l 492 726 l 572 726 l 340 74 m 346 -161 q 335 -84 346 -122 q 299 18 324 -46 q 261 -86 272 -50 q 250 -161 250 -122 q 299 -222 250 -222 q 346 -161 346 -222 z "},"ğ":{"ha":632,"x_min":40,"x_max":621,"o":"m 621 713 q 547 697 589 701 q 440 692 504 693 q 553 493 553 633 q 489 319 553 383 q 314 254 425 254 q 229 269 268 254 q 179 185 179 235 q 288 107 179 107 l 382 107 q 542 56 483 107 q 600 -76 600 6 q 528 -229 600 -174 q 314 -285 456 -285 q 104 -234 168 -285 q 40 -76 40 -183 l 111 -76 q 157 -187 113 -154 q 315 -219 201 -219 q 522 -81 522 -219 q 483 10 522 -22 q 368 42 443 42 l 282 42 q 151 76 196 42 q 107 168 107 111 q 181 290 107 239 q 97 373 124 322 q 69 496 69 424 q 136 674 69 607 q 313 742 203 742 q 485 751 431 740 q 597 786 540 761 l 621 713 m 313 681 q 189 632 231 681 q 147 496 147 583 q 192 360 147 410 q 311 311 236 311 q 432 358 390 311 q 474 494 474 404 q 433 631 474 582 q 313 681 392 681 m 315 907 q 204 948 249 907 q 151 1060 160 989 l 203 1071 q 315 971 228 971 q 429 1071 404 971 l 481 1060 q 427 948 472 989 q 315 907 382 907 z "},"ǧ":{"ha":632,"x_min":40,"x_max":621,"o":"m 621 713 q 547 697 589 701 q 440 692 504 693 q 553 493 553 633 q 489 319 553 383 q 314 254 425 254 q 229 269 268 254 q 179 185 179 235 q 288 107 179 107 l 382 107 q 542 56 483 107 q 600 -76 600 6 q 528 -229 600 -174 q 314 -285 456 -285 q 104 -234 168 -285 q 40 -76 40 -183 l 111 -76 q 157 -187 113 -154 q 315 -219 201 -219 q 522 -81 522 -219 q 483 10 522 -22 q 368 42 443 42 l 282 42 q 151 76 196 42 q 107 168 107 111 q 181 290 107 239 q 97 373 124 322 q 69 496 69 424 q 136 674 69 607 q 313 742 203 742 q 485 751 431 740 q 597 786 540 761 l 621 713 m 313 681 q 189 632 231 681 q 147 496 147 583 q 192 360 147 410 q 311 311 236 311 q 432 358 390 311 q 474 494 474 404 q 433 631 474 582 q 313 681 392 681 m 468 1065 l 501 1028 l 340 879 l 292 879 l 129 1028 l 164 1065 l 317 947 l 468 1065 z "},"ĝ":{"ha":632,"x_min":40,"x_max":621,"o":"m 621 713 q 547 697 589 701 q 440 692 504 693 q 553 493 553 633 q 489 319 553 383 q 314 254 425 254 q 229 269 268 254 q 179 185 179 235 q 288 107 179 107 l 382 107 q 542 56 483 107 q 600 -76 600 6 q 528 -229 600 -174 q 314 -285 456 -285 q 104 -234 168 -285 q 40 -76 40 -183 l 111 -76 q 157 -187 113 -154 q 315 -219 201 -219 q 522 -81 522 -219 q 483 10 522 -22 q 368 42 443 42 l 282 42 q 151 76 196 42 q 107 168 107 111 q 181 290 107 239 q 97 373 124 322 q 69 496 69 424 q 136 674 69 607 q 313 742 203 742 q 485 751 431 740 q 597 786 540 761 l 621 713 m 313 681 q 189 632 231 681 q 147 496 147 583 q 192 360 147 410 q 311 311 236 311 q 432 358 390 311 q 474 494 474 404 q 433 631 474 582 q 313 681 392 681 m 164 896 l 129 933 l 292 1082 l 339 1082 l 501 933 l 468 896 l 315 1014 l 164 896 z "},"ģ":{"ha":632,"x_min":40,"x_max":621,"o":"m 621 713 q 547 697 589 701 q 440 692 504 693 q 553 493 553 633 q 489 319 553 383 q 314 254 425 254 q 229 269 268 254 q 179 185 179 235 q 288 107 179 107 l 382 107 q 542 56 483 107 q 600 -76 600 6 q 528 -229 600 -174 q 314 -285 456 -285 q 104 -234 168 -285 q 40 -76 40 -183 l 111 -76 q 157 -187 113 -154 q 315 -219 201 -219 q 522 -81 522 -219 q 483 10 522 -22 q 368 42 443 42 l 282 42 q 151 76 196 42 q 107 168 107 111 q 181 290 107 239 q 97 373 124 322 q 69 496 69 424 q 136 674 69 607 q 313 742 203 742 q 485 751 431 740 q 597 786 540 761 l 621 713 m 313 681 q 189 632 231 681 q 147 496 147 583 q 192 360 147 410 q 311 311 236 311 q 432 358 390 311 q 474 494 474 404 q 433 631 474 582 q 313 681 392 681 m 315 818 q 274 835 290 818 q 258 876 258 851 q 264 909 258 892 q 286 967 269 926 l 338 1086 l 383 1086 l 342 928 q 374 876 374 910 q 358 835 374 851 q 315 818 342 818 z "}}}
